<svg width="132" height="131" viewBox="0 0 132 131" fill="none" xmlns="http://www.w3.org/2000/svg">
<g clip-path="url(#clip0_415_6)">
<rect width="131" height="131" transform="translate(0.948242)" fill="white"/>
<path d="M47.42 6.00879L47.42 4.50879L47.42 6.00879ZM45.3327 6.00879L45.3327 7.50879L45.3327 6.00879ZM42.376 8.96551L40.876 8.96551V8.96551H42.376ZM50.3768 8.96551L48.8768 8.96551V8.96551H50.3768ZM28.0313 61.7423L29.4871 61.3806L29.2639 60.4825L28.3612 60.279L28.0313 61.7423ZM46.3764 77.6978L46.3854 76.1978L46.3764 76.1977L46.3674 76.1978L46.3764 77.6978ZM64.7214 61.7423L64.3915 60.279L63.4888 60.4825L63.2657 61.3806L64.7214 61.7423ZM3.03076 124.553H1.53076V126.053H3.03076V124.553ZM91.1665 124.553V126.053H92.6665V124.553H91.1665ZM37.8966 75.3849L38.0833 73.8966L35.1066 73.5232L34.9199 75.0115L37.8966 75.3849ZM59.8302 73.9059L59.4563 72.4532L56.551 73.2011L56.9249 74.6537L59.8302 73.9059ZM105.217 117.785L105.817 119.16L105.817 119.16L105.217 117.785ZM109.291 116.008L108.691 114.633L108.691 114.633L109.291 116.008ZM112.492 116.557L113.516 115.462L113.516 115.462L112.492 116.557ZM113.784 117.765L112.76 118.861L112.76 118.861L113.784 117.765ZM117.903 117.686L118.968 118.742L118.968 118.742L117.903 117.686ZM122.003 113.549L123.068 114.605L123.068 114.605L122.003 113.549ZM122.081 109.468L123.186 108.453L123.186 108.453L122.081 109.468ZM121.156 108.46L120.051 109.475L120.051 109.475L121.156 108.46ZM120.615 105.3L121.994 105.889L121.994 105.889L120.615 105.3ZM122.52 100.838L121.14 100.249L121.14 100.249L122.52 100.838ZM122.564 85.3321L121.161 85.8624L121.161 85.8624L122.564 85.3321ZM121.012 81.2245L122.415 80.6942L122.415 80.6942L121.012 81.2245ZM121.535 78.2527L122.673 79.2301L122.673 79.2301L121.535 78.2527ZM123.037 76.5036L121.899 75.5263L121.899 75.5263L123.037 76.5036ZM122.937 72.5402L121.85 73.5735L121.85 73.5735L122.937 72.5402ZM119.22 68.6293L120.307 67.5959L120.307 67.5959L119.22 68.6293ZM115.423 68.2152L114.584 66.9718L114.584 66.9718L115.423 68.2152ZM113.431 69.5597L114.27 70.8031L114.27 70.8031L113.431 69.5597ZM110.702 69.8629L111.247 68.4656L111.247 68.4656L110.702 69.8629ZM106.132 68.0793L105.587 69.4766L105.587 69.4766L106.132 68.0793ZM90.5869 67.5776L91.1682 68.9603L91.1682 68.9603L90.5869 67.5776ZM86.574 69.2646L87.1553 70.6474L87.1553 70.6474L86.574 69.2646ZM83.6437 68.8965L82.7384 70.0926L82.7384 70.0926L83.6437 68.8965ZM82.2714 67.8578L83.1766 66.6618L83.1766 66.6618L82.2714 67.8578ZM78.5406 67.9897L77.5531 66.8606L77.5531 66.8606L78.5406 67.9897ZM74.5567 71.4737L75.5441 72.6028L75.5441 72.6028L74.5567 71.4737ZM74.0031 75.278L75.2714 74.4771L75.2714 74.4771L74.0031 75.278ZM75.2222 77.2086L73.9539 78.0095L73.9539 78.0095L75.2222 77.2086ZM75.4033 80.0338L74.0431 79.4014L74.0431 79.4014L75.4033 80.0338ZM20.1579 40.1419H18.6579V41.2151H20.1579H21.6579V40.1419H20.1579ZM23.1146 44.1718V45.6718H69.6381V44.1718V42.6718H23.1146V44.1718ZM72.5948 41.2151H74.0948V40.1419H72.5948H71.0948V41.2151H72.5948ZM69.6381 37.1852V35.6852H23.1146V37.1852V38.6852H69.6381V37.1852ZM72.5948 40.1419H74.0948C74.0948 37.6806 72.0995 35.6852 69.6381 35.6852V37.1852V38.6852C70.4426 38.6852 71.0948 39.3374 71.0948 40.1419H72.5948ZM69.6381 44.1718V45.6718C72.0995 45.6718 74.0948 43.6764 74.0948 41.2151H72.5948H71.0948C71.0948 42.0196 70.4426 42.6718 69.6381 42.6718V44.1718ZM20.1579 41.2151H18.6579C18.6579 43.6764 20.6532 45.6718 23.1146 45.6718V44.1718V42.6718C22.3101 42.6718 21.6579 42.0196 21.6579 41.2151H20.1579ZM20.1579 40.1419H21.6579C21.6579 39.3374 22.3101 38.6852 23.1146 38.6852V37.1852V35.6852C20.6532 35.6852 18.6579 37.6806 18.6579 40.1419H20.1579ZM47.42 6.00879L47.42 4.50879L45.3327 4.50879L45.3327 6.00879L45.3327 7.50879L47.42 7.50879L47.42 6.00879ZM42.376 8.96551H40.876V37.1853H42.376H43.876V8.96551H42.376ZM50.3768 37.1853H51.8768V8.96551H50.3768H48.8768V37.1853H50.3768ZM45.3327 6.00879L45.3327 4.50879C42.8714 4.50879 40.876 6.50413 40.876 8.96551L42.376 8.96551L43.876 8.96551C43.876 8.16098 44.5282 7.50879 45.3327 7.50879L45.3327 6.00879ZM47.42 6.00879L47.42 7.50879C48.2246 7.50879 48.8768 8.16098 48.8768 8.96551L50.3768 8.96551L51.8768 8.96551C51.8768 6.50413 49.8814 4.50879 47.42 4.50879L47.42 6.00879ZM23.1628 37.2607L24.6627 37.2428C24.6147 33.2365 25.4691 27.1287 28.1419 21.901C30.7896 16.7224 35.1445 12.5201 42.1597 11.8598L42.0191 10.3664L41.8785 8.87299C33.5683 9.6552 28.445 14.7182 25.4708 20.5353C22.5218 26.3031 21.6107 32.9212 21.6629 37.2787L23.1628 37.2607ZM70.2639 37.2607L71.7638 37.2787C71.816 32.9212 70.9049 26.3031 67.9559 20.5353C64.9817 14.7182 59.8584 9.6552 51.5482 8.87299L51.4076 10.3664L51.267 11.8598C58.2822 12.5201 62.6371 16.7224 65.2848 21.901C67.9576 27.1287 68.812 33.2365 68.764 37.2428L70.2639 37.2607ZM28.0313 61.7423C26.5756 62.104 26.5758 62.1047 26.5759 62.1054C26.576 62.1057 26.5762 62.1065 26.5764 62.1071C26.5767 62.1084 26.5771 62.11 26.5775 62.1118C26.5784 62.1153 26.5796 62.1199 26.581 62.1254C26.5838 62.1364 26.5876 62.1512 26.5925 62.1697C26.6023 62.2068 26.6162 62.2588 26.6345 62.3247C26.6712 62.4564 26.7255 62.6437 26.7989 62.8789C26.9458 63.3488 27.1701 64.0112 27.4848 64.8021C28.1126 66.3794 29.11 68.4914 30.5892 70.6107C33.5521 74.8562 38.5462 79.2447 46.3854 79.1977L46.3764 77.6978L46.3674 76.1978C39.8475 76.2368 35.6691 72.6475 33.0493 68.8938C31.737 67.0135 30.8405 65.1205 30.2722 63.6927C29.9889 62.981 29.7896 62.391 29.6624 61.9839C29.5988 61.7806 29.5534 61.6234 29.5247 61.5202C29.5103 61.4685 29.5001 61.4305 29.4939 61.4068C29.4908 61.395 29.4887 61.3869 29.4876 61.3825C29.487 61.3802 29.4867 61.379 29.4866 61.3786C29.4865 61.3785 29.4866 61.3786 29.4866 61.3789C29.4867 61.379 29.4868 61.3795 29.4868 61.3795C29.4869 61.38 29.4871 61.3806 28.0313 61.7423ZM64.7214 61.7423C63.2657 61.3806 63.2658 61.38 63.2659 61.3795C63.2659 61.3795 63.266 61.379 63.2661 61.3789C63.2662 61.3786 63.2662 61.3785 63.2661 61.3786C63.2661 61.379 63.2657 61.3802 63.2652 61.3825C63.264 61.3869 63.2619 61.3951 63.2588 61.4069C63.2526 61.4305 63.2424 61.4685 63.2281 61.5202C63.1993 61.6234 63.1539 61.7806 63.0904 61.9839C62.9632 62.391 62.7638 62.981 62.4806 63.6927C61.9123 65.1205 61.0157 67.0135 59.7035 68.8938C57.0837 72.6476 52.9052 76.2368 46.3854 76.1978L46.3764 77.6978L46.3674 79.1977C54.2065 79.2447 59.2006 74.8562 62.1636 70.6107C63.6427 68.4914 64.6401 66.3794 65.2679 64.8021C65.5827 64.0112 65.8069 63.3488 65.9538 62.8789C66.0273 62.6437 66.0815 62.4564 66.1182 62.3247C66.1365 62.2588 66.1505 62.2068 66.1602 62.1697C66.1651 62.1512 66.1689 62.1364 66.1717 62.1254C66.1731 62.1199 66.1743 62.1153 66.1752 62.1118C66.1756 62.11 66.176 62.1084 66.1763 62.1071C66.1765 62.1065 66.1767 62.1057 66.1768 62.1054C66.177 62.1047 66.1771 62.104 64.7214 61.7423ZM66.1812 44.3506L65.2029 45.4877C67.1899 47.1971 68.7043 50.653 68.7497 53.9142C68.772 55.5146 68.4366 56.9415 67.748 58.029C67.0814 59.082 66.0285 59.91 64.3915 60.279L64.7214 61.7423L65.0513 63.2056C67.4437 62.6662 69.18 61.3755 70.2827 59.6338C71.3635 57.9268 71.7775 55.8834 71.7494 53.8724C71.6942 49.9105 69.9091 45.579 67.1594 43.2135L66.1812 44.3506ZM26.5715 44.3506L25.5933 43.2135C22.8437 45.579 21.0585 49.9105 21.0033 53.8724C20.9753 55.8834 21.3892 57.9268 22.47 59.6338C23.5727 61.3755 25.3091 62.6662 27.7015 63.2056L28.0313 61.7423L28.3612 60.279C26.7242 59.91 25.6713 59.082 25.0047 58.029C24.3162 56.9415 23.9807 55.5146 24.003 53.9142C24.0484 50.653 25.5628 47.1971 27.5498 45.4877L26.5715 44.3506ZM3.03076 124.553V126.053H91.1665V124.553V123.053H3.03076V124.553ZM91.1665 124.553H92.6665V103.629H91.1665H89.6665V124.553H91.1665ZM68.4983 80.9604V79.4604H60.0971V80.9604V82.4604H68.4983V80.9604ZM35.6854 80.9604V79.4604H25.6989V80.9604V82.4604H35.6854V80.9604ZM3.03076 103.629H1.53076V124.553H3.03076H4.53076V103.629H3.03076ZM60.0971 80.9604L58.7807 80.2412C53.3763 90.1342 40.8383 89.3108 37.0673 80.377L35.6854 80.9604L34.3035 81.5437C39.1721 93.0779 54.9573 93.4977 61.4134 81.6795L60.0971 80.9604ZM35.6854 80.9604L37.1737 81.1471L37.8966 75.3849L36.4082 75.1982L34.9199 75.0115L34.197 80.7737L35.6854 80.9604ZM60.0971 80.9604L61.5497 80.5865L59.8302 73.9059L58.3775 74.2798L56.9249 74.6537L58.6444 81.3343L60.0971 80.9604ZM25.6989 80.9604V79.4604C12.3512 79.4604 1.53076 90.2808 1.53076 103.629H3.03076H4.53076C4.53076 91.9377 14.0081 82.4604 25.6989 82.4604V80.9604ZM91.1665 103.629H92.6665C92.6665 90.2808 81.846 79.4604 68.4983 79.4604V80.9604V82.4604C80.1892 82.4604 89.6665 91.9377 89.6665 103.629H91.1665ZM24.242 108.223H22.742V124.553H24.242H25.742V108.223H24.242ZM24.242 81.1046H22.742V96.2707H24.242H25.742V81.1046H24.242ZM16.1167 108.417L14.6167 108.417L14.6167 124.553L16.1167 124.553L17.6167 124.553L17.6167 108.417L16.1167 108.417ZM16.1167 83.4261H14.6167V95.9215H16.1167H17.6167V83.4261H16.1167ZM13.2922 99.4156H11.7922V105.745H13.2922H14.7922V99.4156H13.2922ZM27.0666 105.265H28.5666V99.4156H27.0666H25.5666V105.265H27.0666ZM24.1098 96.4589V94.9589H16.2489V96.4589V97.9589H24.1098V96.4589ZM15.7685 108.221V109.721H24.1098V108.221V106.721H15.7685V108.221ZM27.0666 99.4156H28.5666C28.5666 96.9543 26.5712 94.9589 24.1098 94.9589V96.4589V97.9589C24.9144 97.9589 25.5666 98.6111 25.5666 99.4156H27.0666ZM27.0666 105.265H25.5666C25.5666 106.069 24.9144 106.721 24.1098 106.721V108.221V109.721C26.5712 109.721 28.5666 107.726 28.5666 105.265H27.0666ZM13.2922 105.745H11.7922C11.7922 107.941 13.5724 109.721 15.7685 109.721V108.221V106.721C15.2293 106.721 14.7922 106.284 14.7922 105.745H13.2922ZM13.2922 99.4156H14.7922C14.7922 98.6111 15.4444 97.9589 16.2489 97.9589V96.4589V94.9589C13.7875 94.9589 11.7922 96.9543 11.7922 99.4156H13.2922ZM70.5932 108.662H69.0932V124.991H70.5932H72.0932V108.662H70.5932ZM70.5932 81.5432H69.0932V96.7094H70.5932H72.0932V81.5432H70.5932ZM78.7185 108.856H77.2185V124.991H78.7185H80.2185V108.856H78.7185ZM78.7185 83.8647H77.2185V96.3602H78.7185H80.2185V83.8647H78.7185ZM81.543 99.8543H80.043V106.184H81.543H83.043V99.8543H81.543ZM67.7686 105.703H69.2686V99.8543H67.7686H66.2686V105.703H67.7686ZM70.7253 96.8976V98.3976H78.5863V96.8976V95.3976H70.7253V96.8976ZM79.0667 108.66V107.16H70.7253V108.66V110.16H79.0667V108.66ZM67.7686 99.8543H69.2686C69.2686 99.0498 69.9208 98.3976 70.7253 98.3976V96.8976V95.3976C68.2639 95.3976 66.2686 97.3929 66.2686 99.8543H67.7686ZM67.7686 105.703H66.2686C66.2686 108.165 68.2639 110.16 70.7253 110.16V108.66V107.16C69.9208 107.16 69.2686 106.508 69.2686 105.703H67.7686ZM81.543 106.184H80.043C80.043 106.723 79.6059 107.16 79.0667 107.16V108.66V110.16C81.2627 110.16 83.043 108.38 83.043 106.184H81.543ZM81.543 99.8543H83.043C83.043 97.3929 81.0476 95.3976 78.5863 95.3976V96.8976V98.3976C79.3908 98.3976 80.043 99.0498 80.043 99.8543H81.543ZM90.6726 124.553V126.053H100.486V124.553V123.053H90.6726V124.553ZM103.443 121.596H104.943V120.495H103.443H101.943V121.596H103.443ZM105.217 117.785L105.817 119.16L109.891 117.383L109.291 116.008L108.691 114.633L104.617 116.411L105.217 117.785ZM112.492 116.557L111.468 117.653L112.76 118.861L113.784 117.765L114.808 116.669L113.516 115.462L112.492 116.557ZM117.903 117.686L118.968 118.742L123.068 114.605L122.003 113.549L120.938 112.493L116.837 116.63L117.903 117.686ZM122.081 109.468L123.186 108.453L122.261 107.446L121.156 108.46L120.051 109.475L120.976 110.482L122.081 109.468ZM120.615 105.3L121.994 105.889L123.899 101.427L122.52 100.838L121.14 100.249L119.235 104.711L120.615 105.3ZM125.239 99.0423V100.542H126.909V99.0423V97.5423H125.239V99.0423ZM129.866 96.0855H131.366V90.2003H129.866H128.366V96.0855H129.866ZM126.909 87.2436V85.7436H125.33V87.2436V88.7436H126.909V87.2436ZM122.564 85.3321L123.967 84.8019L122.415 80.6942L121.012 81.2245L119.609 81.7547L121.161 85.8624L122.564 85.3321ZM121.535 78.2527L122.673 79.2301L124.175 77.4809L123.037 76.5036L121.899 75.5263L120.397 77.2754L121.535 78.2527ZM122.937 72.5402L124.024 71.5068L120.307 67.5959L119.22 68.6293L118.133 69.6627L121.85 73.5735L122.937 72.5402ZM115.423 68.2152L114.584 66.9718L112.592 68.3162L113.431 69.5597L114.27 70.8031L116.262 69.4587L115.423 68.2152ZM110.702 69.8629L111.247 68.4656L106.678 66.6819L106.132 68.0793L105.587 69.4766L110.156 71.2603L110.702 69.8629ZM104.251 65.3249H105.751V63.7762H104.251H102.751V65.3249H104.251ZM101.294 60.8195V59.3195H95.3544V60.8195V62.3195H101.294V60.8195ZM92.3977 63.7762H90.8977V64.8519H92.3977H93.8977V63.7762H92.3977ZM90.5869 67.5776L90.0055 66.1948L85.9927 67.8819L86.574 69.2646L87.1553 70.6474L91.1682 68.9603L90.5869 67.5776ZM83.6437 68.8965L84.549 67.7005L83.1766 66.6618L82.2714 67.8578L81.3661 69.0539L82.7384 70.0926L83.6437 68.8965ZM78.5406 67.9897L77.5531 66.8606L73.5692 70.3445L74.5567 71.4737L75.5441 72.6028L79.528 69.1188L78.5406 67.9897ZM74.0031 75.278L72.7348 76.0789L73.9539 78.0095L75.2222 77.2086L76.4905 76.4077L75.2714 74.4771L74.0031 75.278ZM75.4033 80.0338L74.0431 79.4014L73.6555 80.235L75.0157 80.8674L76.3759 81.4998L76.7634 80.6662L75.4033 80.0338ZM75.2222 77.2086L73.9539 78.0095C74.2182 78.4282 74.2518 78.9524 74.0431 79.4014L75.4033 80.0338L76.7634 80.6662C77.4021 79.2926 77.2993 77.6886 76.4905 76.4077L75.2222 77.2086ZM74.5567 71.4737L73.5692 70.3445C71.9168 71.7896 71.5627 74.2228 72.7348 76.0789L74.0031 75.278L75.2714 74.4771C74.8883 73.8704 75.004 73.0751 75.5441 72.6028L74.5567 71.4737ZM82.2714 67.8578L83.1766 66.6618C81.492 65.3867 79.1435 65.4697 77.5531 66.8606L78.5406 67.9897L79.528 69.1188C80.0478 68.6642 80.8155 68.6371 81.3661 69.0539L82.2714 67.8578ZM86.574 69.2646L85.9927 67.8819C85.5135 68.0833 84.9634 68.0142 84.549 67.7005L83.6437 68.8965L82.7384 70.0926C84.0063 71.0522 85.6895 71.2637 87.1553 70.6474L86.574 69.2646ZM92.3977 64.8519H90.8977C90.8977 65.4383 90.5461 65.9675 90.0055 66.1948L90.5869 67.5776L91.1682 68.9603C92.822 68.2651 93.8977 66.6459 93.8977 64.8519H92.3977ZM95.3544 60.8195V59.3195C92.893 59.3195 90.8977 61.3148 90.8977 63.7762H92.3977H93.8977C93.8977 62.9717 94.5499 62.3195 95.3544 62.3195V60.8195ZM104.251 63.7762H105.751C105.751 61.3148 103.755 59.3195 101.294 59.3195V60.8195V62.3195C102.098 62.3195 102.751 62.9717 102.751 63.7762H104.251ZM106.132 68.0793L106.678 66.6819C106.119 66.4637 105.751 65.925 105.751 65.3249H104.251H102.751C102.751 67.1609 103.877 68.809 105.587 69.4766L106.132 68.0793ZM113.431 69.5597L112.592 68.3162C112.195 68.5836 111.693 68.6395 111.247 68.4656L110.702 69.8629L110.156 71.2603C111.519 71.7923 113.057 71.6214 114.27 70.8031L113.431 69.5597ZM119.22 68.6293L120.307 67.5959C118.808 66.0184 116.389 65.7546 114.584 66.9718L115.423 68.2152L116.262 69.4587C116.852 69.0608 117.643 69.1471 118.133 69.6627L119.22 68.6293ZM123.037 76.5036L124.175 77.4809C125.665 75.7459 125.6 73.1645 124.024 71.5068L122.937 72.5402L121.85 73.5735C122.365 74.1154 122.386 74.9592 121.899 75.5263L123.037 76.5036ZM121.012 81.2245L122.415 80.6942C122.227 80.1958 122.325 79.6343 122.673 79.2301L121.535 78.2527L120.397 77.2754C119.335 78.512 119.032 80.2299 119.609 81.7547L121.012 81.2245ZM125.33 87.2436V85.7436C124.724 85.7436 124.182 85.3686 123.967 84.8019L122.564 85.3321L121.161 85.8624C121.816 87.5963 123.476 88.7436 125.33 88.7436V87.2436ZM129.866 90.2003H131.366C131.366 87.739 129.371 85.7436 126.909 85.7436V87.2436V88.7436C127.714 88.7436 128.366 89.3958 128.366 90.2003H129.866ZM126.909 99.0423V100.542C129.371 100.542 131.366 98.5469 131.366 96.0855H129.866H128.366C128.366 96.8901 127.714 97.5423 126.909 97.5423V99.0423ZM122.52 100.838L123.899 101.427C124.129 100.89 124.656 100.542 125.239 100.542V99.0423V97.5423C123.454 97.5423 121.841 98.6073 121.14 100.249L122.52 100.838ZM121.156 108.46L122.261 107.446C121.874 107.024 121.77 106.415 121.994 105.889L120.615 105.3L119.235 104.711C118.548 106.321 118.867 108.185 120.051 109.475L121.156 108.46ZM122.003 113.549L123.068 114.605C124.744 112.914 124.795 110.206 123.186 108.453L122.081 109.468L120.976 110.482C121.502 111.055 121.485 111.94 120.938 112.493L122.003 113.549ZM113.784 117.765L112.76 118.861C114.521 120.506 117.271 120.454 118.968 118.742L117.903 117.686L116.837 116.63C116.283 117.189 115.384 117.207 114.808 116.669L113.784 117.765ZM109.291 116.008L109.891 117.383C110.423 117.15 111.043 117.257 111.468 117.653L112.492 116.557L113.516 115.462C112.217 114.247 110.32 113.922 108.691 114.633L109.291 116.008ZM103.443 120.495H104.943C104.943 119.916 105.286 119.392 105.817 119.16L105.217 117.785L104.617 116.411C102.993 117.119 101.943 118.723 101.943 120.495H103.443ZM100.486 124.553V126.053C102.948 126.053 104.943 124.057 104.943 121.596H103.443H101.943C101.943 122.4 101.291 123.053 100.486 123.053V124.553ZM113.896 92.9122H112.396C112.396 100.597 106.166 106.826 98.4815 106.826V108.326V109.826C107.823 109.826 115.396 102.254 115.396 92.9122H113.896ZM98.4815 77.4982V78.9982C106.166 78.9982 112.396 85.2277 112.396 92.9122H113.896H115.396C115.396 83.5709 107.823 75.9982 98.4815 75.9982V77.4982ZM98.4815 108.326V106.826C96.0666 106.826 93.7996 106.212 91.8235 105.133L91.1046 106.45L90.3857 107.766C92.7917 109.08 95.5517 109.826 98.4815 109.826V108.326ZM84.2249 87.0414L85.6117 87.6131C87.6971 82.5544 92.6758 78.9982 98.4815 78.9982V77.4982V75.9982C91.4188 75.9982 85.3706 80.3266 82.8381 86.4697L84.2249 87.0414Z" fill="#58C88A"/>
</g>
<defs>
<clipPath id="clip0_415_6">
<rect width="131" height="131" fill="white" transform="translate(0.948242)"/>
</clipPath>
</defs>
</svg>
