<svg width="132" height="131" viewBox="0 0 132 131" fill="none" xmlns="http://www.w3.org/2000/svg">
<path d="M50.9413 17.0186L50.9413 16.0186L50.9413 17.0186ZM49.2403 17.0186L49.2403 18.0186L49.2403 17.0186ZM46.8308 19.4281L45.8308 19.4281V19.4281H46.8308ZM53.3509 19.4281L52.3509 19.4281V19.4281H53.3509ZM35.1407 62.4378L36.1112 62.1967L35.9625 61.598L35.3607 61.4623L35.1407 62.4378ZM50.0908 75.4406L50.0968 74.4405L50.0848 74.4406L50.0908 75.4406ZM65.0408 62.4378L64.8209 61.4623L64.2191 61.598L64.0703 62.1967L65.0408 62.4378ZM14.7668 113.624H13.7668V114.624H14.7668V113.624ZM86.5919 113.624V114.624H87.5919V113.624H86.5919ZM42.9596 73.5281L43.0841 72.5358L41.0996 72.2869L40.9752 73.2791L42.9596 73.5281ZM60.8394 72.4059L60.5902 71.4374L58.6533 71.936L58.9026 72.9044L60.8394 72.4059ZM98.0423 108.11L98.4422 109.026L98.4422 109.026L98.0423 108.11ZM101.362 106.661L100.962 105.744L100.962 105.744L101.362 106.661ZM103.971 107.109L104.654 106.378L104.654 106.378L103.971 107.109ZM105.024 108.093L104.341 108.823L104.341 108.823L105.024 108.093ZM108.38 108.028L109.091 108.732L109.091 108.732L108.38 108.028ZM111.722 104.657L112.432 105.361L112.432 105.361L111.722 104.657ZM111.785 101.331L112.522 100.655L112.522 100.655L111.785 101.331ZM111.032 100.51L110.295 101.186L110.295 101.186L111.032 100.51ZM110.59 97.9344L111.51 98.3271L111.51 98.3271L110.59 97.9344ZM112.143 94.2983L111.223 93.9056L111.223 93.9056L112.143 94.2983ZM112.179 81.6621L111.244 82.0156L111.244 82.0156L112.179 81.6621ZM110.914 78.3146L111.849 77.9611L111.849 77.9611L110.914 78.3146ZM111.34 75.8928L112.099 76.5444L112.099 76.5444L111.34 75.8928ZM112.564 74.4674L111.806 73.8158L111.806 73.8158L112.564 74.4674ZM112.483 71.2374L111.758 71.9264L111.758 71.9264L112.483 71.2374ZM109.454 68.0503L110.179 67.3614L110.179 67.3614L109.454 68.0503ZM106.36 67.7129L105.8 66.8839L105.8 66.8839L106.36 67.7129ZM104.736 68.8085L105.295 69.6375L105.295 69.6375L104.736 68.8085ZM102.512 69.0557L102.876 68.1241L102.876 68.1241L102.512 69.0557ZM98.7881 67.6021L98.4244 68.5336L98.4244 68.5336L98.7881 67.6021ZM86.1196 67.1932L86.5071 68.1151L86.5071 68.1151L86.1196 67.1932ZM82.8493 68.5681L83.2369 69.4899L83.2369 69.4899L82.8493 68.5681ZM80.4613 68.2681L79.8578 69.0655L79.8578 69.0655L80.4613 68.2681ZM79.343 67.4216L79.9465 66.6243L79.9465 66.6243L79.343 67.4216ZM76.3026 67.5291L75.6443 66.7763L75.6443 66.7763L76.3026 67.5291ZM73.056 70.3683L73.7143 71.1211L73.7143 71.1211L73.056 70.3683ZM72.6048 73.4686L73.4503 72.9347L73.4503 72.9347L72.6048 73.4686ZM73.5983 75.0419L72.7528 75.5759L72.7528 75.5759L73.5983 75.0419ZM73.7459 77.3443L72.8391 76.9227L72.8391 76.9227L73.7459 77.3443ZM28.7244 44.8349H27.7244V45.7095H28.7244H29.7244V44.8349H28.7244ZM31.1339 48.119V49.119H69.0476V48.119V47.119H31.1339V48.119ZM71.4572 45.7095H72.4572V44.8349H71.4572H70.4572V45.7095H71.4572ZM69.0476 42.4254V41.4254H31.1339V42.4254V43.4254H69.0476V42.4254ZM71.4572 44.8349H72.4572C72.4572 42.9519 70.9307 41.4254 69.0476 41.4254V42.4254V43.4254C69.8261 43.4254 70.4572 44.0565 70.4572 44.8349H71.4572ZM69.0476 48.119V49.119C70.9307 49.119 72.4572 47.5925 72.4572 45.7095H71.4572H70.4572C70.4572 46.4879 69.8261 47.119 69.0476 47.119V48.119ZM28.7244 45.7095H27.7244C27.7244 47.5925 29.2509 49.119 31.1339 49.119V48.119V47.119C30.3554 47.119 29.7244 46.4879 29.7244 45.7095H28.7244ZM28.7244 44.8349H29.7244C29.7244 44.0565 30.3554 43.4254 31.1339 43.4254V42.4254V41.4254C29.2509 41.4254 27.7244 42.9519 27.7244 44.8349H28.7244ZM50.9413 17.0186L50.9413 16.0186L49.2403 16.0186L49.2403 17.0186L49.2403 18.0186L50.9413 18.0186L50.9413 17.0186ZM46.8308 19.4281H45.8308V42.4254H46.8308H47.8308V19.4281H46.8308ZM53.3509 42.4254H54.3509V19.4281H53.3509H52.3509V42.4254H53.3509ZM49.2403 17.0186L49.2403 16.0186C47.3573 16.0186 45.8308 17.5451 45.8308 19.4281L46.8308 19.4281L47.8308 19.4281C47.8308 18.6496 48.4618 18.0186 49.2403 18.0186L49.2403 17.0186ZM50.9413 17.0186L50.9413 18.0186C51.7198 18.0186 52.3509 18.6496 52.3509 19.4281L53.3509 19.4281L54.3509 19.4281C54.3509 17.5451 52.8244 16.0186 50.9413 16.0186L50.9413 17.0186ZM31.1732 42.4869L32.1731 42.4749C32.1337 39.1841 32.8342 34.1687 35.0328 29.8684C37.2147 25.6009 40.8206 22.1125 46.6336 21.5653L46.5399 20.5697L46.4462 19.5741C39.7699 20.2025 35.6516 24.2647 33.2521 28.958C30.8693 33.6184 30.131 38.9738 30.1732 42.4989L31.1732 42.4869ZM69.5576 42.4869L70.5576 42.4989C70.5998 38.9738 69.8615 33.6184 67.4787 28.958C65.0792 24.2647 60.9609 20.2025 54.2846 19.5741L54.1909 20.5697L54.0972 21.5653C59.9102 22.1125 63.5161 25.6009 65.698 29.8684C67.8967 34.1687 68.5971 39.1841 68.5577 42.4749L69.5576 42.4869ZM35.1407 62.4378C34.1703 62.679 34.1704 62.6794 34.1705 62.6799C34.1705 62.6802 34.1707 62.6807 34.1708 62.6812C34.171 62.6821 34.1713 62.6833 34.1717 62.6846C34.1723 62.6873 34.1732 62.6907 34.1743 62.695C34.1765 62.7034 34.1794 62.715 34.1833 62.7296C34.191 62.7589 34.2021 62.8002 34.2167 62.8528C34.246 62.958 34.2896 63.1085 34.3487 63.2977C34.4669 63.676 34.6478 64.2105 34.902 64.8492C35.4092 66.1235 36.2146 67.8284 37.4076 69.5378C39.7968 72.9611 43.8062 76.4782 50.0968 76.4405L50.0908 75.4406L50.0848 74.4406C44.6737 74.473 41.2081 71.4887 39.0477 68.3932C37.9659 66.8432 37.2278 65.2842 36.7602 64.1096C36.5271 63.5237 36.3628 63.0375 36.2576 62.7011C36.2051 62.5331 36.1675 62.4027 36.1435 62.3165C36.1314 62.2734 36.1229 62.2413 36.1175 62.2211C36.1149 62.2109 36.113 62.2038 36.112 62.1997C36.1115 62.1976 36.1111 62.1964 36.111 62.1959C36.111 62.1956 36.1109 62.1956 36.111 62.1957C36.111 62.1958 36.1111 62.196 36.1111 62.196C36.1111 62.1963 36.1112 62.1967 35.1407 62.4378ZM65.0408 62.4378C64.0703 62.1967 64.0704 62.1964 64.0705 62.1961C64.0705 62.196 64.0706 62.1958 64.0706 62.1957C64.0706 62.1956 64.0706 62.1956 64.0706 62.1959C64.0704 62.1964 64.0701 62.1976 64.0696 62.1997C64.0685 62.2038 64.0667 62.2109 64.064 62.2211C64.0587 62.2413 64.0501 62.2734 64.0381 62.3165C64.0141 62.4027 63.9765 62.5331 63.9239 62.7011C63.8188 63.0375 63.6545 63.5237 63.4213 64.1096C62.9538 65.2842 62.2157 66.8432 61.1339 68.3932C58.9735 71.4887 55.5079 74.473 50.0968 74.4406L50.0908 75.4406L50.0848 76.4405C56.3754 76.4782 60.3848 72.9611 62.774 69.5378C63.967 67.8284 64.7724 66.1235 65.2796 64.8492C65.5338 64.2105 65.7146 63.676 65.8329 63.2977C65.892 63.1085 65.9356 62.958 65.9649 62.8528C65.9795 62.8002 65.9906 62.7589 65.9983 62.7296C66.0021 62.715 66.0051 62.7034 66.0073 62.695C66.0084 62.6907 66.0092 62.6873 66.0099 62.6846C66.0103 62.6833 66.0105 62.6821 66.0108 62.6812C66.0109 62.6807 66.011 62.6802 66.0111 62.6799C66.0112 62.6794 66.0113 62.679 65.0408 62.4378ZM66.2305 48.2647L65.5783 49.0228C67.2541 50.4645 68.5083 53.3458 68.5461 56.0553C68.5647 57.39 68.2855 58.5986 67.6953 59.5308C67.1197 60.4399 66.211 61.149 64.8209 61.4623L65.0408 62.4378L65.2607 63.4134C67.1544 62.9865 68.5188 61.9689 69.3851 60.6006C70.2368 59.2554 70.5683 57.6359 70.5459 56.0275C70.5016 52.8508 69.0669 49.3857 66.8826 47.5066L66.2305 48.2647ZM33.9511 48.2647L33.2989 47.5066C31.1147 49.3857 29.68 52.8508 29.6357 56.0275C29.6133 57.6359 29.9448 59.2554 30.7965 60.6006C31.6628 61.9689 33.0272 62.9865 34.9208 63.4134L35.1407 62.4378L35.3607 61.4623C33.9706 61.149 33.0619 60.4399 32.4863 59.5308C31.8961 58.5986 31.6169 57.39 31.6355 56.0553C31.6733 53.3458 32.9274 50.4645 34.6033 49.0228L33.9511 48.2647ZM14.7668 113.624V114.624H86.5919V113.624V112.624H14.7668V113.624ZM86.5919 113.624H87.5919V96.5725H86.5919H85.5919V113.624H86.5919ZM68.1188 78.0994V77.0994H61.2723V78.0994V79.0994H68.1188V78.0994ZM41.3783 78.0994V77.0994H33.24V78.0994V79.0994H41.3783V78.0994ZM14.7668 96.5725H13.7668V113.624H14.7668H15.7668V96.5725H14.7668ZM61.2723 78.0994L60.3947 77.62C55.9125 85.8248 45.4541 85.1837 42.2996 77.7105L41.3783 78.0994L40.457 78.4883C44.3433 87.6951 56.9665 88.0672 62.1499 78.5788L61.2723 78.0994ZM41.3783 78.0994L42.3705 78.2239L42.9596 73.5281L41.9674 73.4036L40.9752 73.2791L40.3861 77.9749L41.3783 78.0994ZM61.2723 78.0994L62.2407 77.8501L60.8394 72.4059L59.871 72.6551L58.9026 72.9044L60.3039 78.3486L61.2723 78.0994ZM33.24 78.0994V77.0994C22.4853 77.0994 13.7668 85.8178 13.7668 96.5725H14.7668H15.7668C15.7668 86.9224 23.5898 79.0994 33.24 79.0994V78.0994ZM86.5919 96.5725H87.5919C87.5919 85.8178 78.8735 77.0994 68.1188 77.0994V78.0994V79.0994C77.7689 79.0994 85.5919 86.9224 85.5919 96.5725H86.5919ZM32.0527 100.317H31.0527V113.624H32.0527H33.0527V100.317H32.0527ZM32.0527 78.2169H31.0527V90.5764H32.0527H33.0527V78.2169H32.0527ZM25.431 100.475L24.431 100.475L24.431 113.624L25.431 113.624L26.431 113.624L26.431 100.475L25.431 100.475ZM25.431 80.1088H24.431V90.2918H25.431H26.431V80.1088H25.431ZM23.1293 93.1393H22.1293V98.2973H23.1293H24.1293V93.1393H23.1293ZM34.3545 97.9058H35.3545V93.1393H34.3545H33.3545V97.9058H34.3545ZM31.945 90.7297V89.7297H25.5388V90.7297V91.7297H31.945V90.7297ZM25.1473 100.315V101.315H31.945V100.315V99.3153H25.1473V100.315ZM34.3545 93.1393H35.3545C35.3545 91.2562 33.828 89.7297 31.945 89.7297V90.7297V91.7297C32.7234 91.7297 33.3545 92.3608 33.3545 93.1393H34.3545ZM34.3545 97.9058H33.3545C33.3545 98.6843 32.7234 99.3153 31.945 99.3153V100.315V101.315C33.828 101.315 35.3545 99.7888 35.3545 97.9058H34.3545ZM23.1293 98.2973H22.1293C22.1293 99.9641 23.4805 101.315 25.1473 101.315V100.315V99.3153C24.585 99.3153 24.1293 98.8595 24.1293 98.2973H23.1293ZM23.1293 93.1393H24.1293C24.1293 92.3608 24.7603 91.7297 25.5388 91.7297V90.7297V89.7297C23.6558 89.7297 22.1293 91.2562 22.1293 93.1393H23.1293ZM69.826 100.674H68.826V113.982H69.826H70.826V100.674H69.826ZM69.826 78.5744H68.826V90.9338H69.826H70.826V78.5744H69.826ZM76.4476 100.832H75.4476V113.982H76.4476H77.4476V100.832H76.4476ZM76.4476 80.4662H75.4476V90.6492H76.4476H77.4476V80.4662H76.4476ZM78.7494 93.4967H77.7494V98.6548H78.7494H79.7494V93.4967H78.7494ZM67.5241 98.2633H68.5241V93.4967H67.5241H66.5241V98.2633H67.5241ZM69.9336 91.0872V92.0872H76.3398V91.0872V90.0872H69.9336V91.0872ZM76.7313 100.673V99.6728H69.9336V100.673V101.673H76.7313V100.673ZM67.5241 93.4967H68.5241C68.5241 92.7183 69.1552 92.0872 69.9336 92.0872V91.0872V90.0872C68.0506 90.0872 66.5241 91.6137 66.5241 93.4967H67.5241ZM67.5241 98.2633H66.5241C66.5241 100.146 68.0506 101.673 69.9336 101.673V100.673V99.6728C69.1552 99.6728 68.5241 99.0417 68.5241 98.2633H67.5241ZM78.7494 98.6548H77.7494C77.7494 99.217 77.2936 99.6728 76.7313 99.6728V100.673V101.673C78.3981 101.673 79.7494 100.322 79.7494 98.6548H78.7494ZM78.7494 93.4967H79.7494C79.7494 91.6137 78.2229 90.0872 76.3398 90.0872V91.0872V92.0872C77.1183 92.0872 77.7494 92.7183 77.7494 93.4967H78.7494ZM86.1895 113.624V114.624H94.1869V113.624V112.624H86.1895V113.624ZM96.5965 111.215H97.5965V110.318H96.5965H95.5965V111.215H96.5965ZM98.0423 108.11L98.4422 109.026L101.762 107.577L101.362 106.661L100.962 105.744L97.6423 107.193L98.0423 108.11ZM103.971 107.109L103.288 107.839L104.341 108.823L105.024 108.093L105.706 107.362L104.654 106.378L103.971 107.109ZM108.38 108.028L109.091 108.732L112.432 105.361L111.722 104.657L111.011 103.953L107.67 107.324L108.38 108.028ZM111.785 101.331L112.522 100.655L111.768 99.8339L111.032 100.51L110.295 101.186L111.049 102.007L111.785 101.331ZM110.59 97.9344L111.51 98.3271L113.063 94.691L112.143 94.2983L111.223 93.9056L109.671 97.5417L110.59 97.9344ZM114.359 92.835V93.835H115.72V92.835V91.835H114.359V92.835ZM118.13 90.4254H119.13V85.6294H118.13H117.13V90.4254H118.13ZM115.72 83.2198V82.2198H114.433V83.2198V84.2198H115.72V83.2198ZM112.179 81.6621L113.115 81.3086L111.849 77.9611L110.914 78.3146L109.979 78.6681L111.244 82.0156L112.179 81.6621ZM111.34 75.8928L112.099 76.5444L113.323 75.119L112.564 74.4674L111.806 73.8158L110.582 75.2413L111.34 75.8928ZM112.483 71.2374L113.208 70.5485L110.179 67.3614L109.454 68.0503L108.729 68.7393L111.758 71.9264L112.483 71.2374ZM106.36 67.7129L105.8 66.8839L104.177 67.9795L104.736 68.8085L105.295 69.6375L106.919 68.5419L106.36 67.7129ZM102.512 69.0557L102.876 68.1241L99.1517 66.6705L98.7881 67.6021L98.4244 68.5336L102.148 69.9872L102.512 69.0557ZM97.2547 65.3575H98.2547V64.0954H97.2547H96.2547V65.3575H97.2547ZM94.8451 61.6858V60.6858H90.0048V61.6858V62.6858H94.8451V61.6858ZM87.5953 64.0954H86.5953V64.972H87.5953H88.5953V64.0954H87.5953ZM86.1196 67.1932L85.732 66.2714L82.4618 67.6462L82.8493 68.5681L83.2369 69.4899L86.5071 68.1151L86.1196 67.1932ZM80.4613 68.2681L81.0648 67.4708L79.9465 66.6243L79.343 67.4216L78.7394 68.219L79.8578 69.0655L80.4613 68.2681ZM76.3026 67.5291L75.6443 66.7763L72.3977 69.6156L73.056 70.3683L73.7143 71.1211L76.9609 68.2819L76.3026 67.5291ZM72.6048 73.4686L71.7593 74.0025L72.7528 75.5759L73.5983 75.0419L74.4438 74.508L73.4503 72.9347L72.6048 73.4686ZM73.7459 77.3443L72.8391 76.9227L72.5233 77.602L73.43 78.0236L74.3368 78.4452L74.6527 77.7659L73.7459 77.3443ZM73.5983 75.0419L72.7528 75.5759C73.0086 75.981 73.0411 76.4883 72.8391 76.9227L73.7459 77.3443L74.6527 77.7659C75.1413 76.715 75.0626 75.4879 74.4438 74.508L73.5983 75.0419ZM73.056 70.3683L72.3977 69.6156C71.1335 70.7211 70.8626 72.5825 71.7593 74.0025L72.6048 73.4686L73.4503 72.9347C73.0797 72.3476 73.1916 71.5781 73.7143 71.1211L73.056 70.3683ZM79.343 67.4216L79.9465 66.6243C78.6577 65.6488 76.861 65.7123 75.6443 66.7763L76.3026 67.5291L76.9609 68.2819C77.4639 67.842 78.2066 67.8157 78.7394 68.219L79.343 67.4216ZM82.8493 68.5681L82.4618 67.6462C81.9982 67.8411 81.4658 67.7743 81.0648 67.4708L80.4613 68.2681L79.8578 69.0655C80.8278 69.7996 82.1155 69.9614 83.2369 69.4899L82.8493 68.5681ZM87.5953 64.972H86.5953C86.5953 65.5394 86.2551 66.0515 85.732 66.2714L86.1196 67.1932L86.5071 68.1151C87.7723 67.5832 88.5953 66.3445 88.5953 64.972H87.5953ZM90.0048 61.6858V60.6858C88.1218 60.6858 86.5953 62.2123 86.5953 64.0954H87.5953H88.5953C88.5953 63.3169 89.2264 62.6858 90.0048 62.6858V61.6858ZM97.2547 64.0954H98.2547C98.2547 62.2123 96.7282 60.6858 94.8451 60.6858V61.6858V62.6858C95.6236 62.6858 96.2547 63.3169 96.2547 64.0954H97.2547ZM98.7881 67.6021L99.1517 66.6705C98.6108 66.4594 98.2547 65.9381 98.2547 65.3575H97.2547H96.2547C96.2547 66.7621 97.116 68.0229 98.4244 68.5336L98.7881 67.6021ZM104.736 68.8085L104.177 67.9795C103.793 68.2383 103.307 68.2924 102.876 68.1241L102.512 69.0557L102.148 69.9872C103.191 70.3942 104.367 70.2635 105.295 69.6375L104.736 68.8085ZM109.454 68.0503L110.179 67.3614C109.032 66.1546 107.181 65.9527 105.8 66.8839L106.36 67.7129L106.919 68.5419C107.49 68.1569 108.255 68.2404 108.729 68.7393L109.454 68.0503ZM112.564 74.4674L113.323 75.119C114.463 73.7916 114.413 71.8168 113.208 70.5485L112.483 71.2374L111.758 71.9264C112.257 72.4507 112.277 73.2671 111.806 73.8158L112.564 74.4674ZM110.914 78.3146L111.849 77.9611C111.667 77.4788 111.763 76.9355 112.099 76.5444L111.34 75.8928L110.582 75.2413C109.769 76.1873 109.538 77.5015 109.979 78.6681L110.914 78.3146ZM114.433 83.2198V82.2198C113.847 82.2198 113.322 81.857 113.115 81.3086L112.179 81.6621L111.244 82.0156C111.745 83.3421 113.015 84.2198 114.433 84.2198V83.2198ZM118.13 85.6294H119.13C119.13 83.7463 117.603 82.2198 115.72 82.2198V83.2198V84.2198C116.498 84.2198 117.13 84.8509 117.13 85.6294H118.13ZM115.72 92.835V93.835C117.603 93.835 119.13 92.3085 119.13 90.4254H118.13H117.13C117.13 91.2039 116.498 91.835 115.72 91.835V92.835ZM112.143 94.2983L113.063 94.691C113.284 94.1718 113.794 93.835 114.359 93.835V92.835V91.835C112.993 91.835 111.76 92.6498 111.223 93.9056L112.143 94.2983ZM111.032 100.51L111.768 99.8339C111.394 99.4259 111.293 98.8364 111.51 98.3271L110.59 97.9344L109.671 97.5417C109.145 98.7737 109.389 100.2 110.295 101.186L111.032 100.51ZM111.722 104.657L112.432 105.361C113.714 104.068 113.753 101.996 112.522 100.655L111.785 101.331L111.049 102.007C111.558 102.562 111.541 103.418 111.011 103.953L111.722 104.657ZM105.024 108.093L104.341 108.823C105.688 110.082 107.792 110.042 109.091 108.732L108.38 108.028L107.67 107.324C107.133 107.866 106.263 107.883 105.706 107.362L105.024 108.093ZM101.362 106.661L101.762 107.577C102.277 107.352 102.877 107.455 103.288 107.839L103.971 107.109L104.654 106.378C103.66 105.449 102.209 105.2 100.962 105.744L101.362 106.661ZM96.5965 110.318H97.5965C97.5965 109.757 97.9285 109.25 98.4422 109.026L98.0423 108.11L97.6423 107.193C96.3997 107.735 95.5965 108.962 95.5965 110.318H96.5965ZM94.1869 113.624V114.624C96.07 114.624 97.5965 113.098 97.5965 111.215H96.5965H95.5965C95.5965 111.993 94.9654 112.624 94.1869 112.624V113.624ZM105.115 87.8394H104.115C104.115 94.2246 98.9384 99.4008 92.5532 99.4008V100.401V101.401C100.043 101.401 106.115 95.3292 106.115 87.8394H105.115ZM92.5532 75.2779V76.2779C98.9384 76.2779 104.115 81.4542 104.115 87.8394H105.115H106.115C106.115 80.3496 100.043 74.2779 92.5532 74.2779V75.2779ZM92.5532 100.401V99.4008C90.5471 99.4008 88.6631 98.8907 87.0208 97.9939L86.5415 98.8716L86.0622 99.7492C87.9911 100.803 90.2038 101.401 92.5532 101.401V100.401ZM80.935 83.0551L81.8595 83.4362C83.5921 79.2333 87.7287 76.2779 92.5532 76.2779V75.2779V74.2779C86.8907 74.2779 82.0411 77.7481 80.0105 82.6739L80.935 83.0551Z" fill="#58C88A"/>
</svg>
