<svg width="133" height="132" viewBox="0 0 133 132" fill="none" xmlns="http://www.w3.org/2000/svg">
<path d="M42.9853 82.7852V104.834C42.9853 105.349 43.4029 105.767 43.918 105.767H47.6097C48.1248 105.767 48.5424 105.349 48.5424 104.834V83.2485M83.8988 82.1224V104.171C83.8988 104.686 84.3164 105.104 84.8315 105.104H88.5232C89.0383 105.104 89.4559 104.686 89.4559 104.171V82.5856M37.6414 116.863C37.7324 116.089 37.6873 106.37 37.6482 100.808C37.6446 100.29 38.0633 99.8709 38.5811 99.8709H43.1584M95.1853 118.249V100.804C95.1853 100.288 94.7677 99.8709 94.2526 99.8709H89.7304M48.6755 99.8709H83.9503M92.7055 43.8184C97.8376 45.8261 96.8997 52.8918 91.4215 53.4911M40.0675 44.4461C34.9354 46.4539 35.8733 53.5196 41.3515 54.1189M42.9714 31.6548C43.9526 25.0836 50.1893 11.8354 67.1247 12.3598C83.2783 12.3598 89.1606 25.0836 90.1418 31.6548M53.2318 82.7624H43.8966C31.5343 82.7624 21.5127 92.784 21.5127 105.146V118.655H111.384V105.146C111.384 92.784 101.362 82.7624 88.9997 82.7624H79.2007M53.2318 82.7624C59.5385 95.9326 73.5432 96.1181 79.2007 82.7624M53.2318 82.7624L54.4279 77.6841M79.2007 82.7624L78.5089 77.6841M43.8331 32.1275C52.561 32.2088 75.3383 32.1287 89.678 32.0573C91.311 32.0492 92.5975 33.4349 92.4764 35.0634L89.7572 71.6097C89.5036 75.0181 86.6643 77.654 83.2465 77.654H48.9983C45.5325 77.654 42.6707 74.9458 42.4796 71.4853L40.4972 35.5836C40.3975 33.7775 42.0243 32.1107 43.8331 32.1275ZM49.5004 55.3414H82.3011C83.3313 55.3414 84.1664 54.5062 84.1664 53.4761V45.0889C84.1664 44.0588 83.3313 43.2236 82.3011 43.2236H49.5004C48.4702 43.2236 47.6351 44.0588 47.6351 45.0889V53.4761C47.6351 54.5062 48.4702 55.3414 49.5004 55.3414Z" stroke="#58C88A" stroke-width="2"/>
</svg>
