<svg width="132" height="132" viewBox="0 0 132 132" fill="none" xmlns="http://www.w3.org/2000/svg">
<rect width="132" height="132" fill="white"/>
<path d="M39.5917 83.6717V108.018C39.5917 108.587 40.0527 109.048 40.6215 109.048H44.6981C45.2668 109.048 45.7279 108.587 45.7279 108.018V84.1832M84.7693 82.9398V107.286C84.7693 107.855 85.2304 108.316 85.7992 108.316H89.8757C90.4445 108.316 90.9056 107.855 90.9056 107.286V83.4513M33.6908 121.301C33.7913 120.447 33.7415 109.715 33.6983 103.573C33.6943 103.001 34.1566 102.538 34.7285 102.538H39.7828M97.2321 122.832V103.568C97.2321 102.999 96.7711 102.538 96.2023 102.538H91.2087M45.8749 102.538H84.8262M94.4939 40.6436C100.161 42.8606 99.1252 50.6627 93.0761 51.3244M36.3698 41.3368C30.7028 43.5538 31.7385 51.3559 37.7876 52.0176M39.5763 27.2123C40.6598 19.9562 47.5465 5.32724 66.2469 5.90635C84.0841 5.90635 90.5795 19.9562 91.663 27.2123M50.9061 83.6465H40.5979C26.9472 83.6465 15.8811 94.7126 15.8811 108.363V123.28H115.119V108.363C115.119 94.7126 104.053 83.6465 90.4019 83.6465H79.5816M50.9061 83.6465C57.8701 98.1893 73.3344 98.3941 79.5816 83.6465M50.9061 83.6465L52.2269 78.039M79.5816 83.6465L78.8177 78.039M40.5279 27.7343C50.1653 27.824 75.3167 27.7356 91.1508 27.6567C92.954 27.6477 94.3746 29.1779 94.2409 30.9762L91.2383 71.3315C90.9583 75.095 87.823 78.0057 84.0491 78.0057H46.2314C42.4043 78.0057 39.2443 75.0153 39.0333 71.1941L36.8442 31.5505C36.7341 29.5562 38.5305 27.7157 40.5279 27.7343ZM46.7858 53.3676H83.0051C84.1426 53.3676 85.0648 52.4454 85.0648 51.3078V42.0466C85.0648 40.909 84.1426 39.9869 83.0051 39.9869H46.7858C45.6482 39.9869 44.726 40.909 44.726 42.0466V51.3078C44.726 52.4454 45.6482 53.3676 46.7858 53.3676Z" stroke="#58C88A" stroke-width="3"/>
</svg>
