<svg width="133" height="131" viewBox="0 0 133 131" fill="none" xmlns="http://www.w3.org/2000/svg">
<rect width="132" height="131" transform="translate(0.0517578)" fill="white"/>
<path d="M84.1316 83.2388C84.6282 83.3007 96.7407 83.2692 103.597 83.2427C104.148 83.2406 104.589 82.7935 104.589 82.2429V66.5303M71.8933 49.8218H103.589C104.141 49.8218 104.589 50.2695 104.589 50.8218V66.5303M104.589 66.5303H90.5923C90.04 66.5303 89.5923 66.0826 89.5923 65.5303M89.5923 65.5303V56.8312M89.5923 65.5303V76.6367M79.8933 56.8312V66.7339M79.8933 66.7339V76.6367M79.8933 66.7339H65.8464M45.8788 88.7539L36.4477 76.8803C36.3069 76.7033 36.2303 76.4838 36.2303 76.2577V72.5215M45.8788 88.7539L41.985 92.0265M45.8788 88.7539L55.4872 76.8803C55.628 76.7033 55.7047 76.4838 55.7047 76.2577V72.5215M45.8788 88.7539L49.95 92.0265M36.2303 68.436V72.5215M36.2303 72.5215L29.8934 76.8201C29.619 77.0062 29.4548 77.3161 29.4548 77.6477V78.2764M41.985 92.0265L39.1314 94.5521C38.6413 94.9858 37.8737 94.8397 37.5771 94.2564L29.4548 78.2764M41.985 92.0265L39.553 107.344C39.5073 107.632 39.5893 107.925 39.7776 108.147L45.224 114.405C45.6231 114.864 46.3357 114.863 46.7339 114.404L52.1574 108.147C52.3457 107.925 52.4277 107.632 52.382 107.344L49.95 92.0265M29.4548 78.2764L15.014 86.451C11.5649 88.4034 9.43286 92.0603 9.43286 96.0236V118.834C9.43286 119.387 9.88058 119.834 10.4329 119.834H21.2938M21.2938 119.834V102.262M21.2938 119.834H70.6411M55.7047 68.436V72.5215M55.7047 72.5215L62.0416 76.8201C62.3159 77.0062 62.4802 77.3161 62.4802 77.6477V78.2764M49.95 92.0265L52.8036 94.5521C53.2936 94.9858 54.0613 94.8397 54.3578 94.2564L62.4802 78.2764M62.4802 78.2764L76.921 86.451C80.37 88.4034 82.5021 92.0603 82.5021 96.0236V118.834C82.5021 119.387 82.0544 119.834 81.5021 119.834H70.6411M70.6411 119.834V102.262M69.2615 38.3696H113.772M113.772 38.3696V33.5725C113.772 30.2588 116.886 27.2783 119.261 29.5886C121.121 31.3971 121.684 34.0096 121.671 35.637V85.6081M113.772 38.3696V78.2348C117.109 78.2348 121.671 79.8024 121.671 85.6081M121.671 85.6081C121.671 91.4139 117.835 92.6861 113.772 92.6861H82.5551M40.0969 28.1431V14.165C40.0969 12.5082 41.4401 11.165 43.0969 11.165L47.741 11.165C49.3978 11.165 50.741 12.5082 50.741 14.165V28.1431M24.8868 39.4038V52.7744C24.8868 61.611 32.0502 68.7744 40.8868 68.7744H49.9511C58.7876 68.7744 65.9511 61.611 65.9511 52.7744V39.4038M39.9758 14.9702L38.9775 14.9702C31.5871 14.9702 25.5961 20.9613 25.5961 28.3516M51.1256 14.9702L53.279 14.9702C60.6694 14.9702 66.6604 20.9612 66.6604 28.3516M20.9299 31.3516V35.9956C20.9299 37.6525 22.2731 38.9956 23.9299 38.9956H66.908C68.5648 38.9956 69.908 37.6525 69.908 35.9956V31.3516C69.908 29.6947 68.5648 28.3516 66.908 28.3516H23.9299C22.2731 28.3516 20.9299 29.6947 20.9299 31.3516Z" stroke="#58C88A" stroke-width="3" stroke-linecap="round" stroke-linejoin="round"/>
</svg>
