<svg width="133" height="131" viewBox="0 0 133 131" fill="none" xmlns="http://www.w3.org/2000/svg">
<path d="M85.0281 83.2388C85.5247 83.3007 97.6372 83.2692 104.494 83.2427C105.045 83.2406 105.486 82.7935 105.486 82.2429V66.5303M72.7898 49.8218H104.486C105.038 49.8218 105.486 50.2695 105.486 50.8218V66.5303M105.486 66.5303H91.4888C90.9365 66.5303 90.4888 66.0826 90.4888 65.5303M90.4888 65.5303V56.8312M90.4888 65.5303V76.6367M80.7898 56.8312V66.7339M80.7898 66.7339V76.6367M80.7898 66.7339H66.7429M46.7752 88.7539L37.3442 76.8803C37.2034 76.7033 37.1268 76.4838 37.1268 76.2577V72.5215M46.7752 88.7539L42.8815 92.0265M46.7752 88.7539L56.3837 76.8803C56.5245 76.7033 56.6012 76.4838 56.6012 76.2577V72.5215M46.7752 88.7539L50.8465 92.0265M37.1268 68.436V72.5215M37.1268 72.5215L30.7899 76.8201C30.5155 77.0062 30.3512 77.3161 30.3512 77.6477V78.2764M42.8815 92.0265L40.0278 94.5521C39.5378 94.9858 38.7701 94.8397 38.4736 94.2564L30.3512 78.2764M42.8815 92.0265L40.4495 107.344C40.4038 107.632 40.4858 107.925 40.674 108.147L46.1205 114.405C46.5196 114.864 47.2322 114.863 47.6304 114.404L53.0539 108.147C53.2421 107.925 53.3241 107.632 53.2785 107.344L50.8465 92.0265M30.3512 78.2764L15.9105 86.451C12.4614 88.4034 10.3293 92.0603 10.3293 96.0236V118.834C10.3293 119.387 10.7771 119.834 11.3293 119.834H22.1903M22.1903 119.834V102.262M22.1903 119.834H71.5376M56.6012 68.436V72.5215M56.6012 72.5215L62.9381 76.8201C63.2124 77.0062 63.3767 77.3161 63.3767 77.6477V78.2764M50.8465 92.0265L53.7001 94.5521C54.1901 94.9858 54.9578 94.8397 55.2543 94.2564L63.3767 78.2764M63.3767 78.2764L77.8175 86.451C81.2665 88.4034 83.3986 92.0603 83.3986 96.0236V118.834C83.3986 119.387 82.9509 119.834 82.3986 119.834H71.5376M71.5376 119.834V102.262M70.158 38.3696H114.668M114.668 38.3696V33.5725C114.668 30.2588 117.782 27.2783 120.158 29.5886C122.017 31.3971 122.58 34.0096 122.567 35.637V85.6081M114.668 38.3696V78.2348C118.005 78.2348 122.567 79.8024 122.567 85.6081M122.567 85.6081C122.567 91.4139 118.731 92.6861 114.668 92.6861H83.4516M40.9934 28.1431V14.165C40.9934 12.5082 42.3366 11.165 43.9934 11.165L48.6375 11.165C50.2943 11.165 51.6375 12.5082 51.6375 14.165V28.1431M25.7833 39.4038V52.7744C25.7833 61.611 32.9467 68.7744 41.7833 68.7744H50.8476C59.6841 68.7744 66.8476 61.611 66.8476 52.7744V39.4038M40.8723 14.9702L39.8739 14.9702C32.4836 14.9702 26.4926 20.9613 26.4926 28.3516M52.0221 14.9702L54.1755 14.9702C61.5658 14.9702 67.5569 20.9612 67.5569 28.3516M21.8264 31.3516V35.9956C21.8264 37.6525 23.1696 38.9956 24.8264 38.9956H67.8044C69.4613 38.9956 70.8044 37.6525 70.8044 35.9956V31.3516C70.8044 29.6947 69.4613 28.3516 67.8044 28.3516H24.8264C23.1696 28.3516 21.8264 29.6947 21.8264 31.3516Z" stroke="#58C88A" stroke-width="2" stroke-linecap="round" stroke-linejoin="round"/>
</svg>
