<svg width="131" height="131" viewBox="0 0 131 131" fill="none" xmlns="http://www.w3.org/2000/svg">
<rect width="131" height="131" fill="white"/>
<path d="M90.2205 77.2344L90.6994 75.8129L90.6994 75.8129L90.2205 77.2344ZM106.103 82.5853L105.624 84.0068L105.624 84.0068L106.103 82.5853ZM106.277 85.2805C106.277 86.1089 106.949 86.7805 107.777 86.7805C108.605 86.7805 109.277 86.1089 109.277 85.2805H106.277ZM74.6703 78.5122L76.0487 77.9204L76.0487 77.9204L74.6703 78.5122ZM79.2693 89.2227L80.6476 88.6309L80.6476 88.6309L79.2693 89.2227ZM83.873 88.9943L82.4429 88.5418L82.4429 88.5418L83.873 88.9943ZM87.0911 78.8229L85.661 78.3704L85.661 78.3704L87.0911 78.8229ZM58.7915 79.8492C58.0056 80.1111 57.5809 80.9606 57.8429 81.7465C58.1048 82.5324 58.9543 82.9572 59.7402 82.6952L58.7915 79.8492ZM71.6334 77.1496L71.159 75.7266L71.159 75.7266L71.6334 77.1496ZM52.1349 112.885C52.1349 113.713 52.8065 114.385 53.6349 114.385C54.4634 114.385 55.1349 113.713 55.1349 112.885H52.1349ZM55.1349 96.6018C55.1349 95.7733 54.4634 95.1018 53.6349 95.1018C52.8065 95.1018 52.1349 95.7733 52.1349 96.6018H55.1349ZM67.8755 54.8268C67.0531 54.7276 66.3059 55.3139 66.2066 56.1363C66.1074 56.9588 66.6937 57.706 67.5161 57.8052L67.8755 54.8268ZM83.9109 52.5809L84.8662 53.7373L84.8662 53.7373L83.9109 52.5809ZM89.2567 52.3328L90.3059 51.2608L90.3059 51.2608L89.2567 52.3328ZM95.7356 56.5242C96.4991 56.2027 96.8575 55.3232 96.536 54.5597C96.2145 53.7962 95.335 53.4378 94.5715 53.7593L95.7356 56.5242ZM28.4805 13.824C28.4805 12.9955 27.8089 12.324 26.9805 12.324C26.1521 12.324 25.4805 12.9955 25.4805 13.824H28.4805ZM27.7007 27.246L28.7613 26.1853L28.7613 26.1853L27.7007 27.246ZM90.2205 77.2344L89.7416 78.6559L105.624 84.0068L106.103 82.5853L106.582 81.1638L90.6994 75.8129L90.2205 77.2344ZM107.777 84.9155H106.277V85.2805H107.777H109.277V84.9155H107.777ZM74.6703 78.5122L73.292 79.104L77.891 89.8145L79.2693 89.2227L80.6476 88.6309L76.0487 77.9204L74.6703 78.5122ZM83.873 88.9943L85.3031 89.4467L88.5212 79.2753L87.0911 78.8229L85.661 78.3704L82.4429 88.5418L83.873 88.9943ZM59.2659 81.2722L59.7402 82.6952L72.1077 78.5727L71.6334 77.1496L71.159 75.7266L58.7915 79.8492L59.2659 81.2722ZM53.6349 112.885H55.1349V96.6018H53.6349H52.1349V112.885H53.6349ZM79.2693 89.2227L77.891 89.8145C79.3385 93.1857 84.1964 92.9447 85.3031 89.4467L83.873 88.9943L82.4429 88.5418C82.1748 89.389 80.9982 89.4474 80.6476 88.6309L79.2693 89.2227ZM106.103 82.5853L105.624 84.0068C106.014 84.1382 106.277 84.5039 106.277 84.9155H107.777H109.277C109.277 83.2161 108.192 81.7063 106.582 81.1638L106.103 82.5853ZM90.2205 77.2344L90.6994 75.8129C88.6002 75.1057 86.3292 76.2584 85.661 78.3704L87.0911 78.8229L88.5212 79.2753C88.6831 78.7638 89.2331 78.4846 89.7416 78.6559L90.2205 77.2344ZM74.6703 78.5122L76.0487 77.9204C75.2367 76.0294 73.1114 75.0758 71.159 75.7266L71.6334 77.1496L72.1077 78.5727C72.5806 78.415 73.0954 78.646 73.292 79.104L74.6703 78.5122ZM79.9902 39.8774V41.3774H82.8592V39.8774V38.3774H79.9902V39.8774ZM95.1536 52.1718H93.6536V59.3869H95.1536H96.6536V52.1718H95.1536ZM67.6959 59.3869H69.1959V52.1718H67.6959H66.1959V59.3869H67.6959ZM81.4247 73.1158V71.6158C74.6709 71.6158 69.1959 66.1407 69.1959 59.3869H67.6959H66.1959C66.1959 67.7976 73.014 74.6158 81.4247 74.6158V73.1158ZM95.1536 59.3869H93.6536C93.6536 66.1407 88.1785 71.6158 81.4247 71.6158V73.1158V74.6158C89.8354 74.6158 96.6536 67.7976 96.6536 59.3869H95.1536ZM82.8592 39.8774V41.3774C88.8208 41.3774 93.6536 46.2102 93.6536 52.1718H95.1536H96.6536C96.6536 44.5533 90.4776 38.3774 82.8592 38.3774V39.8774ZM79.9902 39.8774V38.3774C72.3718 38.3774 66.1959 44.5534 66.1959 52.1718H67.6959H69.1959C69.1959 46.2102 74.0287 41.3774 79.9902 41.3774V39.8774ZM67.6958 56.316L67.5161 57.8052C69.7505 58.0749 72.897 58.0083 76.0392 57.4247C79.1611 56.845 82.4648 55.7209 84.8662 53.7373L83.9109 52.5809L82.9556 51.4244C81.1146 52.9451 78.3813 53.9385 75.4915 54.4752C72.6219 55.0081 69.7821 55.0569 67.8755 54.8268L67.6958 56.316ZM89.2567 52.3328L88.2075 53.4048C89.1997 54.376 90.3616 55.3691 91.5612 56.0248C92.7215 56.659 94.2451 57.1518 95.7356 56.5242L95.1535 55.1418L94.5715 53.7593C94.3526 53.8515 93.8831 53.875 93.0001 53.3923C92.1564 52.9312 91.2245 52.16 90.3059 51.2608L89.2567 52.3328ZM83.9109 52.5809L84.8662 53.7373C85.3454 53.3415 86.0465 53.0577 86.7404 53.0035C87.437 52.9492 87.9299 53.1332 88.2075 53.4048L89.2567 52.3328L90.3059 51.2608C89.2303 50.2082 87.7802 49.9133 86.5071 50.0126C85.2313 50.1121 83.9362 50.6144 82.9556 51.4244L83.9109 52.5809ZM26.9805 13.824H25.4805V25.5073H26.9805H28.4805V13.824H26.9805ZM27.7007 27.246L26.64 28.3066L32.8997 34.5662L33.9603 33.5056L35.021 32.4449L28.7613 26.1853L27.7007 27.246ZM26.9805 25.5073H25.4805C25.4805 26.5572 25.8976 27.5642 26.64 28.3066L27.7007 27.246L28.7613 26.1853C28.5815 26.0055 28.4805 25.7616 28.4805 25.5073H26.9805ZM7.73331 115.827H6.23331V121.258H7.73331H9.23331V115.827H7.73331ZM10.1922 123.717V125.217H121.46V123.717V122.217H10.1922V123.717ZM123.919 121.258H125.419V115.827H123.919H122.419V121.258H123.919ZM121.46 113.368V111.868H10.1922V113.368V114.868H121.46V113.368ZM123.919 115.827H125.419C125.419 113.64 123.647 111.868 121.46 111.868V113.368V114.868C121.99 114.868 122.419 115.297 122.419 115.827H123.919ZM121.46 123.717V125.217C123.647 125.217 125.419 123.444 125.419 121.258H123.919H122.419C122.419 121.787 121.99 122.217 121.46 122.217V123.717ZM7.73331 121.258H6.23331C6.23331 123.444 8.00575 125.217 10.1922 125.217V123.717V122.217C9.66261 122.217 9.23331 121.787 9.23331 121.258H7.73331ZM7.73331 115.827H9.23331C9.23331 115.297 9.66261 114.868 10.1922 114.868V113.368V111.868C8.00576 111.868 6.23331 113.64 6.23331 115.827H7.73331ZM118.882 85.7725V84.2725H95.2764V85.7725V87.2725H118.882V85.7725ZM92.8175 88.2314H91.3175V94.4336H92.8175H94.3175V88.2314H92.8175ZM121.341 94.4336H122.841V88.2314H121.341H119.841V94.4336H121.341ZM92.8175 94.4336V95.9336H121.341V94.4336V92.9336H92.8175V94.4336ZM121.341 113.95H122.841V104.192H121.341H119.841V113.95H121.341ZM121.341 104.192H122.841V94.4336H121.341H119.841V104.192H121.341ZM92.8175 94.4336H91.3175V104.192H92.8175H94.3175V94.4336H92.8175ZM92.8175 104.192H91.3175V112.679H92.8175H94.3175V104.192H92.8175ZM121.341 104.192V102.692H92.8175V104.192V105.692H121.341V104.192ZM95.2764 85.7725V84.2725C93.0899 84.2725 91.3175 86.045 91.3175 88.2314H92.8175H94.3175C94.3175 87.7018 94.7468 87.2725 95.2764 87.2725V85.7725ZM118.882 85.7725V87.2725C119.411 87.2725 119.841 87.7018 119.841 88.2314H121.341H122.841C122.841 86.045 121.068 84.2725 118.882 84.2725V85.7725ZM20.3138 113.173H21.8138V107.679H20.3138H18.8138V113.173H20.3138ZM22.7727 105.22V106.72H42.8381V105.22V103.72H22.7727V105.22ZM45.297 107.679H43.797V113.173H45.297H46.797V107.679H45.297ZM42.8381 105.22V106.72C43.3677 106.72 43.797 107.15 43.797 107.679H45.297H46.797C46.797 105.493 45.0246 103.72 42.8381 103.72V105.22ZM20.3138 107.679H21.8138C21.8138 107.15 22.2431 106.72 22.7727 106.72V105.22V103.72C20.5863 103.72 18.8138 105.493 18.8138 107.679H20.3138ZM27.8913 104.995H29.3913V78.6444H27.8913H26.3913V104.995H27.8913ZM30.3502 76.1855V77.6855H35.2607V76.1855V74.6855H30.3502V76.1855ZM37.7196 78.6444H36.2196V104.995H37.7196H39.2196V78.6444H37.7196ZM35.2607 76.1855V77.6855C35.7903 77.6855 36.2196 78.1148 36.2196 78.6444H37.7196H39.2196C39.2196 76.458 37.4471 74.6855 35.2607 74.6855V76.1855ZM27.8913 78.6444H29.3913C29.3913 78.1148 29.8206 77.6855 30.3502 77.6855V76.1855V74.6855C28.1637 74.6855 26.3913 76.458 26.3913 78.6444H27.8913ZM27.9414 96.2844V94.7844H9.53944V96.2844V97.7844H27.9414V96.2844ZM7.08057 93.8255H8.58057V60.6972H7.08057H5.58057V93.8255H7.08057ZM9.53944 58.2383V59.7383H56.6743V58.2383V56.7383H9.53944V58.2383ZM59.1332 60.6972H57.6332V93.8255H59.1332H60.6332V60.6972H59.1332ZM56.6743 96.2844V94.7844H37.9654V96.2844V97.7844H56.6743V96.2844ZM59.1332 93.8255H57.6332C57.6332 94.3551 57.2039 94.7844 56.6743 94.7844V96.2844V97.7844C58.8607 97.7844 60.6332 96.012 60.6332 93.8255H59.1332ZM56.6743 58.2383V59.7383C57.2039 59.7383 57.6332 60.1676 57.6332 60.6972H59.1332H60.6332C60.6332 58.5108 58.8607 56.7383 56.6743 56.7383V58.2383ZM7.08057 60.6972H8.58057C8.58057 60.1676 9.00987 59.7383 9.53944 59.7383V58.2383V56.7383C7.35302 56.7383 5.58057 58.5108 5.58057 60.6972H7.08057ZM9.53944 96.2844V94.7844C9.00987 94.7844 8.58057 94.3551 8.58057 93.8255H7.08057H5.58057C5.58057 96.012 7.35302 97.7844 9.53944 97.7844V96.2844ZM46.4206 26.6155H44.9206C44.9206 36.4635 36.9372 44.4468 27.0893 44.4468V45.9468V47.4468C38.5941 47.4468 47.9206 38.1203 47.9206 26.6155H46.4206ZM27.0893 45.9468V44.4468C17.2413 44.4468 9.25792 36.4635 9.25792 26.6155H7.75792H6.25792C6.25792 38.1203 15.5844 47.4468 27.0893 47.4468V45.9468ZM7.75792 26.6155H9.25792C9.25792 16.7675 17.2413 8.78418 27.0893 8.78418V7.28418V5.78418C15.5844 5.78418 6.25792 15.1107 6.25792 26.6155H7.75792ZM27.0893 7.28418V8.78418C36.9372 8.78418 44.9206 16.7675 44.9206 26.6155H46.4206H47.9206C47.9206 15.1107 38.5941 5.78418 27.0893 5.78418V7.28418Z" fill="#58C88A"/>
</svg>
