<svg width="132" height="131" viewBox="0 0 132 131" fill="none" xmlns="http://www.w3.org/2000/svg">
<path d="M90.1068 76.7303L90.4261 75.7826L90.4261 75.7826L90.1068 76.7303ZM105.307 81.8513L104.988 82.799L104.988 82.799L105.307 81.8513ZM105.909 84.4307C105.909 84.983 106.357 85.4307 106.909 85.4307C107.461 85.4307 107.909 84.983 107.909 84.4307H105.909ZM75.2247 77.9532L76.1436 77.5586L76.1436 77.5586L75.2247 77.9532ZM79.626 88.2036L80.5449 87.809L80.5449 87.809L79.626 88.2036ZM84.032 87.985L83.0786 87.6833L83.0786 87.6833L84.032 87.985ZM87.1118 78.2505L86.1584 77.9489L86.1584 77.9489L87.1118 78.2505ZM60.1658 79.6459C59.6418 79.8206 59.3587 80.3869 59.5333 80.9109C59.708 81.4348 60.2743 81.718 60.7982 81.5433L60.1658 79.6459ZM72.3182 76.6492L72.002 75.7005L72.002 75.7005L72.3182 76.6492ZM54.093 110.849C54.093 111.401 54.5407 111.849 55.093 111.849C55.6452 111.849 56.093 111.401 56.093 110.849H54.093ZM56.093 95.2656C56.093 94.7134 55.6452 94.2656 55.093 94.2656C54.5407 94.2656 54.093 94.7134 54.093 95.2656H56.093ZM68.6696 55.7178C68.1213 55.6516 67.6232 56.0425 67.557 56.5908C67.4908 57.1391 67.8817 57.6372 68.43 57.7034L68.6696 55.7178ZM84.0683 53.1359L84.7051 53.9069L84.7051 53.9069L84.0683 53.1359ZM89.1844 52.8985L89.8838 52.1839L89.8838 52.1839L89.1844 52.8985ZM95.216 56.5084C95.725 56.2941 95.9639 55.7077 95.7495 55.1987C95.5352 54.6897 94.9489 54.4508 94.4399 54.6651L95.216 56.5084ZM30.5836 16.044C30.5836 15.4917 30.1359 15.044 29.5836 15.044C29.0313 15.044 28.5836 15.4917 28.5836 16.044H30.5836ZM30.2728 28.8894L30.98 28.1823L30.98 28.1823L30.2728 28.8894ZM90.1068 76.7303L89.7875 77.678L104.988 82.799L105.307 81.8513L105.626 80.9036L90.4261 75.7826L90.1068 76.7303ZM106.909 84.0814H105.909V84.4307H106.909H107.909V84.0814H106.909ZM75.2247 77.9532L74.3058 78.3477L78.7072 88.5981L79.626 88.2036L80.5449 87.809L76.1436 77.5586L75.2247 77.9532ZM84.032 87.985L84.9854 88.2866L88.0653 78.5522L87.1118 78.2505L86.1584 77.9489L83.0786 87.6833L84.032 87.985ZM60.482 80.5946L60.7982 81.5433L72.6344 77.5979L72.3182 76.6492L72.002 75.7005L60.1658 79.6459L60.482 80.5946ZM55.093 110.849H56.093V95.2656H55.093H54.093V110.849H55.093ZM79.626 88.2036L78.7072 88.5981C79.9332 91.4536 84.048 91.2494 84.9854 88.2866L84.032 87.985L83.0786 87.6833C82.7003 88.879 81.0397 88.9614 80.5449 87.809L79.626 88.2036ZM105.307 81.8513L104.988 82.799C105.538 82.9844 105.909 83.5005 105.909 84.0814H106.909H107.909C107.909 82.642 106.99 81.3632 105.626 80.9036L105.307 81.8513ZM90.1068 76.7303L90.4261 75.7826C88.648 75.1836 86.7244 76.16 86.1584 77.9489L87.1118 78.2505L88.0653 78.5522C88.2937 77.8303 89.07 77.4362 89.7875 77.678L90.1068 76.7303ZM75.2247 77.9532L76.1436 77.5586C75.4558 75.957 73.6556 75.1493 72.002 75.7005L72.3182 76.6492L72.6344 77.5979C73.3018 77.3754 74.0283 77.7014 74.3058 78.3477L75.2247 77.9532ZM80.316 40.9782V41.9782H83.0618V40.9782V39.9782H80.316V40.9782ZM94.8279 52.7444H93.8279V59.6495H94.8279H95.8279V52.7444H94.8279ZM68.5498 59.6495H69.5498V52.7444H68.5498H67.5498V59.6495H68.5498ZM81.6889 72.7886V71.7886C74.9847 71.7886 69.5498 66.3538 69.5498 59.6495H68.5498H67.5498C67.5498 67.4583 73.8801 73.7886 81.6889 73.7886V72.7886ZM94.8279 59.6495H93.8279C93.8279 66.3538 88.3931 71.7886 81.6889 71.7886V72.7886V73.7886C89.4977 73.7886 95.8279 67.4583 95.8279 59.6495H94.8279ZM83.0618 40.9782V41.9782C89.0078 41.9782 93.8279 46.7984 93.8279 52.7444H94.8279H95.8279C95.8279 45.6938 90.1123 39.9782 83.0618 39.9782V40.9782ZM80.316 40.9782V39.9782C73.2654 39.9782 67.5498 45.6938 67.5498 52.7444H68.5498H69.5498C69.5498 46.7984 74.37 41.9782 80.316 41.9782V40.9782ZM68.5498 56.7106L68.43 57.7034C70.5208 57.9557 73.4876 57.8945 76.4552 57.3434C79.4093 56.7948 82.4883 55.738 84.7051 53.9069L84.0683 53.1359L83.4314 52.3649C81.5881 53.8875 78.8895 54.8572 76.0901 55.3771C73.3042 55.8944 70.5419 55.9437 68.6696 55.7178L68.5498 56.7106ZM89.1844 52.8985L88.4849 53.6132C89.4238 54.5321 90.5024 55.4504 91.5988 56.0497C92.669 56.6346 93.9741 57.0313 95.216 56.5084L94.8279 55.5868L94.4399 54.6651C94.0458 54.8311 93.4434 54.7786 92.558 54.2947C91.6989 53.8251 90.7737 53.0548 89.8838 52.1839L89.1844 52.8985ZM84.0683 53.1359L84.7051 53.9069C85.2365 53.4679 85.9938 53.1646 86.7424 53.1062C87.4927 53.0476 88.1034 53.2398 88.4849 53.6132L89.1844 52.8985L89.8838 52.1839C88.9704 51.2898 87.7215 51.0237 86.5868 51.1122C85.4503 51.2009 84.297 51.6499 83.4314 52.3649L84.0683 53.1359ZM29.5836 16.044H28.5836V27.2254H29.5836H30.5836V16.044H29.5836ZM30.2728 28.8894L29.5657 29.5965L35.5565 35.5872L36.2636 34.8801L36.9707 34.173L30.98 28.1823L30.2728 28.8894ZM29.5836 27.2254H28.5836C28.5836 28.1147 28.9369 28.9676 29.5657 29.5965L30.2728 28.8894L30.98 28.1823C30.7262 27.9285 30.5836 27.5843 30.5836 27.2254H29.5836ZM11.1633 113.665H10.1633V118.862H11.1633H12.1633V113.665H11.1633ZM13.5165 121.216V122.216H120.005V121.216V120.216H13.5165V121.216ZM122.358 118.862H123.358V113.665H122.358H121.358V118.862H122.358ZM120.005 111.312V110.312H13.5165V111.312V112.312H120.005V111.312ZM122.358 113.665H123.358C123.358 111.813 121.857 110.312 120.005 110.312V111.312V112.312C120.752 112.312 121.358 112.917 121.358 113.665H122.358ZM120.005 121.216V122.216C121.857 122.216 123.358 120.714 123.358 118.862H122.358H121.358C121.358 119.61 120.752 120.216 120.005 120.216V121.216ZM11.1633 118.862H10.1633C10.1633 120.714 11.6646 122.216 13.5165 122.216V121.216V120.216C12.7691 120.216 12.1633 119.61 12.1633 118.862H11.1633ZM11.1633 113.665H12.1633C12.1633 112.917 12.7691 112.312 13.5165 112.312V111.312V110.312C11.6646 110.312 10.1633 111.813 10.1633 113.665H11.1633ZM117.537 84.9016V83.9016H94.9455V84.9016V85.9016H117.537V84.9016ZM92.5922 87.2549H91.5922V93.1906H92.5922H93.5922V87.2549H92.5922ZM119.89 93.1906H120.89V87.2549H119.89H118.89V93.1906H119.89ZM92.5922 93.1906V94.1906H119.89V93.1906V92.1906H92.5922V93.1906ZM119.89 111.868H120.89V102.529H119.89H118.89V111.868H119.89ZM119.89 102.529H120.89V93.1906H119.89H118.89V102.529H119.89ZM92.5922 93.1906H91.5922V102.529H92.5922H93.5922V93.1906H92.5922ZM92.5922 102.529H91.5922V110.652H92.5922H93.5922V102.529H92.5922ZM119.89 102.529V101.529H92.5922V102.529V103.529H119.89V102.529ZM94.9455 84.9016V83.9016C93.0935 83.9016 91.5922 85.4029 91.5922 87.2549H92.5922H93.5922C93.5922 86.5075 94.1981 85.9016 94.9455 85.9016V84.9016ZM117.537 84.9016V85.9016C118.284 85.9016 118.89 86.5075 118.89 87.2549H119.89H120.89C120.89 85.4029 119.389 83.9016 117.537 83.9016V84.9016ZM23.2033 111.125H24.2033V105.867H23.2033H22.2033V111.125H23.2033ZM25.5566 103.514V104.514H44.76V103.514V102.514H25.5566V103.514ZM47.1132 105.867H46.1132V111.125H47.1132H48.1132V105.867H47.1132ZM44.76 103.514V104.514C45.5074 104.514 46.1132 105.12 46.1132 105.867H47.1132H48.1132C48.1132 104.015 46.6119 102.514 44.76 102.514V103.514ZM23.2033 105.867H24.2033C24.2033 105.12 24.8092 104.514 25.5566 104.514V103.514V102.514C23.7046 102.514 22.2033 104.015 22.2033 105.867H23.2033ZM30.4553 103.298H31.4553V78.0797H30.4553H29.4553V103.298H30.4553ZM32.8085 75.7265V76.7265H37.5081V75.7265V74.7265H32.8085V75.7265ZM39.8613 78.0797H38.8613V103.298H39.8613H40.8613V78.0797H39.8613ZM37.5081 75.7265V76.7265C38.2555 76.7265 38.8613 77.3324 38.8613 78.0797H39.8613H40.8613C40.8613 76.2278 39.36 74.7265 37.5081 74.7265V75.7265ZM30.4553 78.0797H31.4553C31.4553 77.3324 32.0611 76.7265 32.8085 76.7265V75.7265V74.7265C30.9566 74.7265 29.4553 76.2278 29.4553 78.0797H30.4553ZM30.5032 94.9619V93.9619H12.8918V94.9619V95.9619H30.5032V94.9619ZM10.5386 92.6087H11.5386V60.9035H10.5386H9.53857V92.6087H10.5386ZM12.8918 58.5503V59.5503H58.0017V58.5503V57.5503H12.8918V58.5503ZM60.355 60.9035H59.355V92.6087H60.355H61.355V60.9035H60.355ZM58.0017 94.9619V93.9619H40.0966V94.9619V95.9619H58.0017V94.9619ZM60.355 92.6087H59.355C59.355 93.356 58.7491 93.9619 58.0017 93.9619V94.9619V95.9619C59.8537 95.9619 61.355 94.4606 61.355 92.6087H60.355ZM58.0017 58.5503V59.5503C58.7491 59.5503 59.355 60.1562 59.355 60.9035H60.355H61.355C61.355 59.0516 59.8537 57.5503 58.0017 57.5503V58.5503ZM10.5386 60.9035H11.5386C11.5386 60.1562 12.1444 59.5503 12.8918 59.5503V58.5503V57.5503C11.0399 57.5503 9.53857 59.0516 9.53857 60.9035H10.5386ZM12.8918 94.9619V93.9619C12.1444 93.9619 11.5386 93.356 11.5386 92.6087H10.5386H9.53857C9.53857 94.4606 11.0399 95.9619 12.8918 95.9619V94.9619ZM48.1885 28.286H47.1885C47.1885 37.9515 39.3531 45.7869 29.6877 45.7869V46.7869V47.7869C40.4577 47.7869 49.1885 39.056 49.1885 28.286H48.1885ZM29.6877 46.7869V45.7869C20.0222 45.7869 12.1868 37.9515 12.1868 28.286H11.1868H10.1868C10.1868 39.056 18.9177 47.7869 29.6877 47.7869V46.7869ZM11.1868 28.286H12.1868C12.1868 18.6206 20.0222 10.7852 29.6877 10.7852V9.78516V8.78516C18.9177 8.78516 10.1868 17.516 10.1868 28.286H11.1868ZM29.6877 9.78516V10.7852C39.3531 10.7852 47.1885 18.6206 47.1885 28.286H48.1885H49.1885C49.1885 17.516 40.4577 8.78516 29.6877 8.78516V9.78516Z" fill="#58C88A"/>
</svg>
