<svg width="59" height="49" viewBox="0 0 59 49" fill="none" xmlns="http://www.w3.org/2000/svg">
<path d="M0.791016 0.292969H53.6114C56.3728 0.292969 58.6114 2.53155 58.6114 5.29297V43.75C58.6114 46.5114 56.3728 48.75 53.6114 48.75H0.791016V0.292969Z" fill="#58C88A"/>
<path d="M20.8937 14.6066H38.5055M20.8937 21.2168H38.5055M20.8937 27.827H38.5055M20.8937 34.4364H31.2793M14.0059 39.3936V9.65039C14.0059 7.99354 15.349 6.65039 17.0059 6.65039H42.395C44.0519 6.65039 45.395 7.99354 45.395 9.65039V39.3936C45.395 41.0504 44.0519 42.3936 42.395 42.3936H17.0059C15.349 42.3936 14.0059 41.0504 14.0059 39.3936Z" stroke="white" stroke-width="2" stroke-linecap="round"/>
</svg>
