<svg width="54" height="52" viewBox="0 0 54 52" fill="none" xmlns="http://www.w3.org/2000/svg">
<path d="M41.2852 19.4033V44.9078C41.2852 48.2215 38.5989 50.9078 35.2852 50.9078H7.72266C4.40895 50.9078 1.72266 48.2215 1.72266 44.9078V17.3453C1.72266 14.0316 4.40895 11.3453 7.72266 11.3453H38.2913M22.916 39.9596L52.4833 6.36617C53.2131 5.53701 53.1325 4.27323 52.3033 3.54345L50.0511 1.5612C49.222 0.831429 47.9582 0.911995 47.2284 1.74115L18.7178 34.1344L11.5413 26.9579C10.7602 26.1768 9.49376 26.1769 8.71274 26.958L6.59167 29.0795C5.81075 29.8606 5.81081 31.1268 6.59181 31.9078L14.8984 40.2144L15.1133 40.4185C17.3719 42.4505 20.8837 42.2683 22.916 39.9596Z" stroke="#58C88A" stroke-width="2"/>
</svg>
