<svg width="48" height="45" viewBox="0 0 48 45" fill="none" xmlns="http://www.w3.org/2000/svg">
<path d="M41.418 14.4039V37.9084C41.418 41.2221 38.7317 43.9084 35.418 43.9084H7.85547C4.54176 43.9084 1.85547 41.2221 1.85547 37.9084V10.3459C1.85547 7.03221 4.54176 4.34592 7.85547 4.34592H36.4241M14.3304 34.7713L22.1271 33.1411C22.3174 33.1013 22.492 33.0069 22.6295 32.8694L46.3265 9.17245C46.717 8.78193 46.717 8.14876 46.3265 7.75824L40.16 1.59172C39.7695 1.2012 39.1363 1.2012 38.7458 1.59172L15.0488 25.2887C14.9113 25.4262 14.8169 25.6008 14.7771 25.7911L13.1469 33.5878C12.9994 34.2936 13.6246 34.9189 14.3304 34.7713Z" stroke="#58C88A" stroke-width="2"/>
</svg>
