<svg width="43" height="42" viewBox="0 0 43 42" fill="none" xmlns="http://www.w3.org/2000/svg">
<path d="M19.2749 23.4425C19.2749 22.8902 18.8271 22.4425 18.2749 22.4425C17.7226 22.4425 17.2749 22.8902 17.2749 23.4425H19.2749ZM17.2749 28.8607C17.2749 29.413 17.7226 29.8607 18.2749 29.8607C18.8271 29.8607 19.2749 29.413 19.2749 28.8607H17.2749ZM26.3592 23.4425C26.3592 22.8902 25.9115 22.4425 25.3592 22.4425C24.8069 22.4425 24.3592 22.8902 24.3592 23.4425H26.3592ZM24.3592 28.8607C24.3592 29.413 24.8069 29.8607 25.3592 29.8607C25.9115 29.8607 26.3592 29.413 26.3592 28.8607H24.3592ZM7.87109 1.3457V2.3457H35.4336V1.3457V0.345703H7.87109V1.3457ZM41.4336 7.3457H40.4336V34.9082H41.4336H42.4336V7.3457H41.4336ZM35.4336 40.9082V39.9082H7.87109V40.9082V41.9082H35.4336V40.9082ZM1.87109 34.9082H2.87109V7.3457H1.87109H0.871094V34.9082H1.87109ZM7.87109 40.9082V39.9082C5.10967 39.9082 2.87109 37.6696 2.87109 34.9082H1.87109H0.871094C0.871094 38.7742 4.0051 41.9082 7.87109 41.9082V40.9082ZM41.4336 34.9082H40.4336C40.4336 37.6696 38.195 39.9082 35.4336 39.9082V40.9082V41.9082C39.2996 41.9082 42.4336 38.7742 42.4336 34.9082H41.4336ZM35.4336 1.3457V2.3457C38.195 2.3457 40.4336 4.58428 40.4336 7.3457H41.4336H42.4336C42.4336 3.47971 39.2996 0.345703 35.4336 0.345703V1.3457ZM7.87109 1.3457V0.345703C4.0051 0.345703 0.871094 3.47971 0.871094 7.3457H1.87109H2.87109C2.87109 4.58428 5.10967 2.3457 7.87109 2.3457V1.3457ZM30.8368 18.0468H29.8368V31.8329H30.8368H31.8368V18.0468H30.8368ZM28.3782 34.2914V33.2914H14.9264V34.2914V35.2914H28.3782V34.2914ZM12.4678 31.8329H13.4678V18.0468H12.4678H11.4678V31.8329H12.4678ZM14.9264 34.2914V33.2914C14.1208 33.2914 13.4678 32.6384 13.4678 31.8329H12.4678H11.4678C11.4678 33.743 13.0162 35.2914 14.9264 35.2914V34.2914ZM30.8368 31.8329H29.8368C29.8368 32.6384 29.1838 33.2914 28.3782 33.2914V34.2914V35.2914C30.2883 35.2914 31.8368 33.743 31.8368 31.8329H30.8368ZM12.0942 12.3574V13.3574H31.2105V12.3574V11.3574H12.0942V12.3574ZM33.669 14.8159H32.669V17.2273H33.669H34.669V14.8159H33.669ZM32.8495 18.0468V17.0468H10.4552V18.0468V19.0468H32.8495V18.0468ZM9.63567 17.2273H10.6357V14.8159H9.63567H8.63567V17.2273H9.63567ZM10.4552 18.0468V17.0468C10.5549 17.0468 10.6357 17.1276 10.6357 17.2273H9.63567H8.63567C8.63567 18.2321 9.45029 19.0468 10.4552 19.0468V18.0468ZM33.669 17.2273H32.669C32.669 17.1276 32.7498 17.0468 32.8495 17.0468V18.0468V19.0468C33.8544 19.0468 34.669 18.2321 34.669 17.2273H33.669ZM31.2105 12.3574V13.3574C32.016 13.3574 32.669 14.0104 32.669 14.8159H33.669H34.669C34.669 12.9058 33.1206 11.3574 31.2105 11.3574V12.3574ZM12.0942 12.3574V11.3574C10.1841 11.3574 8.63567 12.9058 8.63567 14.8159H9.63567H10.6357C10.6357 14.0104 11.2887 13.3574 12.0942 13.3574V12.3574ZM20.4266 7.96247V8.96247H22.8781V7.96247V6.96247H20.4266V7.96247ZM22.8781 7.96247V8.96247C24.8915 8.96247 26.5236 10.5946 26.5236 12.608H27.5236H28.5236C28.5236 9.49004 25.996 6.96247 22.8781 6.96247V7.96247ZM20.4266 7.96247V6.96247C17.3087 6.96247 14.7811 9.49004 14.7811 12.608H15.7811H16.7811C16.7811 10.5946 18.4132 8.96247 20.4266 8.96247V7.96247ZM18.2749 23.4425H17.2749V28.8607H18.2749H19.2749V23.4425H18.2749ZM25.3592 23.4425H24.3592V28.8607H25.3592H26.3592V23.4425H25.3592Z" fill="#58C88A"/>
</svg>
