<svg width="42" height="46" viewBox="0 0 42 46" fill="none" xmlns="http://www.w3.org/2000/svg">
<path d="M32.0361 9.63905C32.0361 10.1913 32.4838 10.6391 33.0361 10.6391C33.5884 10.6391 34.0361 10.1913 34.0361 9.63905H32.0361ZM34.0353 33.752C34.0353 33.1997 33.5876 32.752 33.0353 32.752C32.483 32.752 32.0353 33.1997 32.0353 33.752H34.0353ZM26.2119 20.2832C25.6596 20.2832 25.2119 20.7309 25.2119 21.2832C25.2119 21.8355 25.6596 22.2832 26.2119 22.2832V20.2832ZM41.3136 21.9903C41.7041 21.5998 41.7041 20.9666 41.3136 20.5761L34.9496 14.2121C34.5591 13.8216 33.9259 13.8216 33.5354 14.2121C33.1449 14.6027 33.1449 15.2358 33.5354 15.6263L39.1922 21.2832L33.5354 26.9401C33.1449 27.3306 33.1449 27.9637 33.5354 28.3543C33.9259 28.7448 34.5591 28.7448 34.9496 28.3543L41.3136 21.9903ZM3.11941 41.0527L2.91154 42.0309L2.91154 42.0309L3.11941 41.0527ZM20.0308 44.6466L20.2386 43.6684L20.2386 43.6684L20.0308 44.6466ZM20.9494 6.89018L20.6979 7.85806L20.9494 6.89018ZM4.03801 2.49709L4.28944 1.52922L4.03801 2.49709ZM3.53613 1.84766V2.84766H31.0361V1.84766V0.847656H3.53613V1.84766ZM1.53613 21.2822H2.53613V3.84766H1.53613H0.536133V21.2822H1.53613ZM33.0361 3.84766H32.0361V9.63905H33.0361H34.0361V3.84766H33.0361ZM31.0361 1.84766V2.84766C31.5884 2.84766 32.0361 3.29537 32.0361 3.84766H33.0361H34.0361C34.0361 2.1908 32.693 0.847656 31.0361 0.847656V1.84766ZM3.53613 1.84766V0.847656C1.87928 0.847656 0.536133 2.1908 0.536133 3.84766H1.53613H2.53613C2.53613 3.29537 2.98385 2.84766 3.53613 2.84766V1.84766ZM31.0353 40.7174V39.7174H22.665V40.7174V41.7174H31.0353V40.7174ZM33.0353 33.752H32.0353V38.7174H33.0353H34.0353V33.752H33.0353ZM31.0353 40.7174V41.7174C32.6921 41.7174 34.0353 40.3742 34.0353 38.7174H33.0353H32.0353C32.0353 39.2697 31.5876 39.7174 31.0353 39.7174V40.7174ZM26.2119 21.2832V22.2832H40.6064V21.2832V20.2832H26.2119V21.2832ZM4.03801 2.49709L3.78658 3.46497L20.6979 7.85806L20.9494 6.89018L21.2008 5.92231L4.28944 1.52922L4.03801 2.49709ZM22.4465 8.82593H21.4465V42.6903H22.4465H23.4465V8.82593H22.4465ZM20.0308 44.6466L20.2386 43.6684L3.32728 40.0746L3.11941 41.0527L2.91154 42.0309L19.8229 45.6248L20.0308 44.6466ZM1.53516 39.0964H2.53516V4.43285H1.53516H0.535156V39.0964H1.53516ZM3.11941 41.0527L3.32728 40.0746C2.86543 39.9764 2.53516 39.5686 2.53516 39.0964H1.53516H0.535156C0.535156 40.5129 1.52596 41.7364 2.91154 42.0309L3.11941 41.0527ZM22.4465 42.6903H21.4465C21.4465 43.3262 20.8607 43.8006 20.2386 43.6684L20.0308 44.6466L19.8229 45.6248C21.6891 46.0213 23.4465 44.5981 23.4465 42.6903H22.4465ZM20.9494 6.89018L20.6979 7.85806C21.1388 7.97257 21.4465 8.37049 21.4465 8.82593H22.4465H23.4465C23.4465 7.45959 22.5232 6.26584 21.2008 5.92231L20.9494 6.89018ZM4.03801 2.49709L4.28944 1.52922C2.38941 1.03565 0.535156 2.46976 0.535156 4.43285H1.53516H2.53516C2.53516 3.77848 3.15324 3.30045 3.78658 3.46497L4.03801 2.49709Z" fill="#58C88A"/>
</svg>
