<svg width="26" height="20" viewBox="0 0 26 20" fill="none" xmlns="http://www.w3.org/2000/svg">
<path d="M1.00425 9.63501L11.4868 11.6953C11.5503 11.7077 11.6149 11.714 11.6796 11.714H13.5226L24.1016 9.63501M16.7348 4.84625V2.82008C16.7348 2.34775 16.3519 1.96484 15.8796 1.96484L9.21644 1.96484C8.74411 1.96484 8.36121 2.34774 8.36121 2.82008V4.84625M21.9834 4.84635C23.0862 4.84635 24.0013 5.6888 24.1016 6.76539V16.5457C24.1016 17.7155 23.1532 18.6638 21.9834 18.6638H3.11428C1.94444 18.6638 0.996094 17.7155 0.996094 16.5457L1.00582 6.76023C1.1086 5.68624 2.01336 4.84635 3.11428 4.84635H21.9834Z" stroke="#58C88A" stroke-width="2"/>
</svg>
