<svg width="22" height="21" viewBox="0 0 22 21" fill="none" xmlns="http://www.w3.org/2000/svg">
<path d="M8.85874 14.0645H12.0132C12.9312 14.0645 13.6753 13.3203 13.6753 12.4024V12.2338C13.6753 11.3159 12.9312 10.5717 12.0132 10.5717H10.5208C9.60287 10.5717 8.85874 9.8276 8.85874 8.90967V8.71292C8.85874 7.79499 9.60287 7.05086 10.5208 7.05086H13.4499M11.1684 14.1537V15.7263M11.1684 5.47824V7.05086M20.2929 10.6298C20.2929 15.7751 16.1218 19.9462 10.9765 19.9462C5.83124 19.9462 1.66016 15.7751 1.66016 10.6298C1.66016 5.48456 5.83124 1.31348 10.9765 1.31348C16.1218 1.31348 20.2929 5.48456 20.2929 10.6298Z" stroke="#58C88A" stroke-width="2" stroke-linecap="round"/>
</svg>
