<svg width="61" height="62" viewBox="0 0 61 62" fill="none" xmlns="http://www.w3.org/2000/svg">
<mask id="mask0_479_22" style="mask-type:alpha" maskUnits="userSpaceOnUse" x="0" y="0" width="61" height="62">
<rect x="0.246094" y="0.673828" width="60.4992" height="60.4992" rx="1" fill="#6BCD85"/>
</mask>
<g mask="url(#mask0_479_22)">
<path fill-rule="evenodd" clip-rule="evenodd" d="M49.6875 6.84001L18.3258 -24.4156C17.5434 -25.1954 17.5412 -26.4617 18.321 -27.2441L21.9069 -30.8422C22.6866 -31.6246 23.953 -31.6267 24.7353 -30.847L54.6937 -0.989891C55.4752 -0.211102 56.7397 -0.212173 57.5198 -0.992287L61.1068 -4.57933C61.8879 -5.36038 63.1542 -5.36038 63.9352 -4.57933L67.5273 -0.987297C68.3083 -0.206249 68.3083 1.06008 67.5273 1.84113L-14.4432 83.8116C-15.2243 84.5927 -16.4906 84.5927 -17.2716 83.8116L-20.8637 80.2196C-21.6447 79.4386 -21.6447 78.1722 -20.8637 77.3912L-0.899395 57.4269C-0.120258 56.6478 -0.118071 55.3852 -0.894503 54.6034L-30.243 25.0508C-31.0214 24.2671 -31.017 23.0008 -30.2332 22.2224L-26.6288 18.6428C-25.845 17.8645 -24.5787 17.8689 -23.8004 18.6526L6.93044 49.5971L12.5874 43.9401L-18.3131 12.8249C-19.0914 12.0411 -19.087 10.7748 -18.3033 9.99644L-14.6988 6.41687C-13.9151 5.63853 -12.6487 5.64291 -11.8704 6.42666L17.5937 36.0956C18.374 36.8812 19.6441 36.8834 20.427 36.1005L25.2125 31.315L-5.21255 0.46595C-5.98817 -0.320482 -5.97941 -1.58678 -5.19298 -2.36241L-1.57618 -5.92951C-0.789742 -6.70514 0.476559 -6.69637 1.25219 -5.90994L31.6331 24.8943L37.5301 18.9974L6.38438 -12.194C5.6039 -12.9756 5.60483 -14.242 6.38645 -15.0224L9.98112 -18.6119C10.7627 -19.3923 12.0291 -19.3914 12.8095 -18.6098L43.9506 12.5769L49.6875 6.84001ZM81.6648 10.9427C82.4459 11.7237 82.4459 12.9901 81.6648 13.7711L-0.305687 95.7416C-1.08674 96.5227 -2.35307 96.5227 -3.13412 95.7416L-6.72615 92.1496C-7.5072 91.3686 -7.5072 90.1022 -6.72615 89.3212L75.2444 7.35065C76.0254 6.56961 77.2917 6.56961 78.0728 7.35066L81.6648 10.9427ZM97.236 21.9169C98.0171 22.6979 98.0171 23.9643 97.236 24.7453L15.2655 106.716C14.4845 107.497 13.2181 107.497 12.4371 106.716L8.84504 103.124C8.064 102.343 8.064 101.076 8.84505 100.295L90.8155 18.3249C91.5966 17.5438 92.8629 17.5438 93.644 18.3249L97.236 21.9169Z" fill="#58C88A" fill-opacity="0.7"/>
<path d="M21.349 12.5276C21.6091 12.2691 21.9903 12.1726 22.3399 12.2837C26.1596 13.4974 29.6912 15.3156 32.833 17.6176C33.1289 17.8344 33.2758 18.1991 33.2204 18.5616L32.6852 22.0661C32.6346 22.3984 32.7311 22.7363 32.9496 22.9916L38.4574 29.4228C38.6761 29.678 38.9952 29.8252 39.3313 29.8263L42.8785 29.8381C43.2451 29.8393 43.5827 30.0405 43.7513 30.3661C45.5424 33.8245 46.795 37.5938 47.4067 41.5547C47.4627 41.9171 47.3088 42.2789 47.0133 42.4962L44.1539 44.5986C43.8829 44.7977 43.7112 45.1046 43.6853 45.4399L43.0324 53.8815C43.0065 54.2167 43.1281 54.5474 43.3651 54.7858L45.8681 57.3039C46.1267 57.564 46.2232 57.9452 46.1121 58.2947C44.8983 62.1145 43.0802 65.6461 40.7782 68.7879C40.5614 69.0838 40.1967 69.2307 39.8341 69.1753L36.3296 68.6401C35.9973 68.5894 35.6595 68.6859 35.4041 68.9045L28.973 74.4123C28.7177 74.631 28.5706 74.95 28.5695 75.2861L28.5577 78.8334C28.5565 79.2 28.3552 79.5375 28.0297 79.7061C24.5712 81.4973 20.8013 82.7498 16.8403 83.3615C16.4778 83.4175 16.1159 83.2634 15.8986 82.9678L13.7973 80.1078C13.5981 79.837 13.2909 79.6661 12.9558 79.6401L4.51325 78.9872C4.17821 78.9614 3.84827 79.0831 3.60991 79.3199L1.09191 81.8222C0.831805 82.0806 0.450665 82.1771 0.101186 82.066C-3.71856 80.8523 -7.25034 79.0349 -10.3922 76.733C-10.688 76.5163 -10.8349 76.1516 -10.7795 75.789L-10.2443 72.2845C-10.1936 71.952 -10.2899 71.6135 -10.5087 71.358L-16.0166 64.9279C-16.2352 64.6726 -16.5543 64.5245 -16.8903 64.5234L-20.4374 64.5124C-20.8042 64.5113 -21.1418 64.3101 -21.3105 63.9844C-23.1017 60.5259 -24.3541 56.7562 -24.9658 52.7951C-25.0217 52.4326 -24.8677 52.0707 -24.5722 51.8535L-21.713 49.7521C-21.4421 49.5529 -21.2704 49.2459 -21.2444 48.9107L-20.5915 40.4681C-20.5657 40.1331 -20.6873 39.8032 -20.9242 39.5648L-23.4272 37.0467C-23.6858 36.7866 -23.7823 36.4054 -23.6712 36.0559C-22.4574 32.236 -20.6393 28.7038 -18.3373 25.5619C-18.1205 25.2659 -17.7557 25.119 -17.393 25.1745L-13.8887 25.7105C-13.5563 25.7613 -13.2186 25.6639 -12.9632 25.4452L-6.53211 19.9383C-6.27688 19.7197 -6.12975 19.4005 -6.12857 19.0645L-6.11679 15.5173C-6.11558 15.1506 -5.91437 14.8131 -5.58881 14.6445C-2.13023 12.8532 1.63955 11.6008 5.60066 10.9891C5.96316 10.9331 6.32502 11.0871 6.54225 11.3827L8.6437 14.2419C8.84282 14.5128 9.1499 14.6835 9.48514 14.7095L17.9277 15.3624C18.2627 15.3882 18.5926 15.2675 18.831 15.0307L21.349 12.5276ZM12.9307 25.0607C0.717332 24.1162 -9.94966 33.2517 -10.8942 45.4651C-11.8387 57.6784 -2.70313 68.3453 9.51021 69.2899C21.7236 70.2345 32.3906 61.099 33.3351 48.8855C34.2796 36.6721 25.1441 26.0052 12.9307 25.0607Z" fill="#333333"/>
</g>
</svg>
