<svg width="236" height="53" viewBox="0 0 236 53" fill="none" xmlns="http://www.w3.org/2000/svg">
<mask id="mask0_457_10" style="mask-type:alpha" maskUnits="userSpaceOnUse" x="0" y="0" width="52" height="53">
<rect x="0.388672" y="0.625" width="51.5148" height="51.5148" rx="2" fill="#6BCD85"/>
</mask>
<g mask="url(#mask0_457_10)">
<path fill-rule="evenodd" clip-rule="evenodd" d="M41.0705 7.29211C41.8525 6.51012 41.8514 5.24195 41.0681 4.46129L15.9931 -20.5289C15.2107 -21.3086 15.2086 -22.575 15.9883 -23.3573L18.6224 -26.0004C19.4021 -26.7828 20.6685 -26.7849 21.4508 -26.0052L46.54 -1.00094C47.3214 -0.22215 48.5859 -0.223222 49.366 -1.00334L52.0007 -3.63802C52.7817 -4.41906 54.048 -4.41906 54.8291 -3.63802L57.4677 -0.999441C58.2487 -0.218393 58.2487 1.04793 57.4677 1.82898L-11.9099 71.2066C-12.691 71.9876 -13.9573 71.9876 -14.7383 71.2066L-17.3769 68.568C-18.158 67.7869 -18.158 66.5206 -17.3769 65.7395L-0.796693 49.1593C-0.0175564 48.3802 -0.015367 47.1176 -0.7918 46.3358L-25.3641 21.5927C-26.1425 20.8089 -26.1381 19.5426 -25.3543 18.7643L-22.7066 16.1349C-21.9229 15.3565 -20.6566 15.3609 -19.8782 16.1447L4.66547 40.8589C5.44572 41.6446 6.71583 41.6468 7.49879 40.8639L9.48723 38.8754C10.2664 38.0963 10.2686 36.8337 9.49212 36.0519L-15.2058 11.1823C-15.9841 10.3986 -15.9797 9.13224 -15.196 8.3539L-12.5483 5.72448C-11.7645 4.94614 -10.4982 4.95053 -9.71989 5.73428L14.9494 30.575C15.7296 31.3607 16.9998 31.3629 17.7827 30.5799L20.2423 28.1203C21.0196 27.3431 21.0239 26.0843 20.2521 25.3017L-4.05148 0.659473C-4.82711 -0.12696 -4.81834 -1.39326 -4.03191 -2.16889L-1.37514 -4.78914C-0.58871 -5.56477 0.677589 -5.55601 1.45322 -4.76958L25.6998 19.8149C26.4792 20.6051 27.7531 20.6095 28.538 19.8247L30.722 17.6406C31.5027 16.86 31.5031 15.5944 30.7231 14.8132L5.82457 -10.1217C5.04409 -10.9034 5.04502 -12.1697 5.82664 -12.9502L8.46715 -15.5868C9.24877 -16.3673 10.5151 -16.3664 11.2956 -15.5847L36.188 9.34416C36.9689 10.1262 38.236 10.1266 39.0175 9.34519L41.0705 7.29211ZM69.5057 9.1589C70.2868 9.93995 70.2868 11.2063 69.5057 11.9873L0.128151 81.3649C-0.652897 82.146 -1.91923 82.146 -2.70028 81.3649L-5.33885 78.7263C-6.1199 77.9453 -6.1199 76.679 -5.33885 75.8979L64.0387 6.52033C64.8198 5.73928 66.0861 5.73928 66.8672 6.52033L69.5057 9.1589ZM82.7646 18.5034C83.5456 19.2844 83.5456 20.5508 82.7646 21.3318L13.387 90.7094C12.6059 91.4904 11.3396 91.4904 10.5585 90.7094L7.91997 88.0708C7.13892 87.2898 7.13892 86.0234 7.91997 85.2424L77.2975 15.8648C78.0786 15.0838 79.3449 15.0838 80.126 15.8648L82.7646 18.5034Z" fill="white" fill-opacity="0.5"/>
<path d="M6.92804 12.6091C7.09763 12.8396 7.35926 12.9852 7.64459 13.0073L14.8331 13.5632C15.1184 13.5853 15.3993 13.4816 15.6023 13.2799L17.2622 11.6306C17.7824 11.1137 18.5456 10.9179 19.2395 11.1554C22.0225 12.1078 24.6181 13.4391 26.9698 15.084C27.571 15.5046 27.8631 16.2367 27.7522 16.962L27.3992 19.2708C27.3561 19.5538 27.439 19.8417 27.6252 20.0592L32.3146 25.5347C32.5008 25.7521 32.7726 25.8783 33.0588 25.8792L35.3947 25.886C36.1283 25.8881 36.8066 26.2893 37.1296 26.9479C38.3933 29.5248 39.31 32.2946 39.8231 35.1911C39.951 35.9135 39.64 36.6378 39.0488 37.0722L37.1647 38.4569C36.934 38.6265 36.7886 38.8879 36.7665 39.1734L36.2106 46.3619C36.1885 46.6472 36.2913 46.9281 36.4929 47.1311L38.1422 48.7909C38.6592 49.3111 38.8549 50.0744 38.6175 50.7683C37.6651 53.5512 36.3337 56.1468 34.6888 58.4986C34.2683 59.0998 33.5361 59.3919 32.8109 59.281L30.503 58.928C30.2199 58.8847 29.9312 58.9677 29.7137 59.154L24.2382 63.8434C24.0208 64.0296 23.8955 64.3014 23.8946 64.5877L23.8872 66.9239C23.8849 67.6572 23.4837 68.3352 22.8252 68.6582C20.2483 69.922 17.4785 70.8387 14.582 71.3518C13.8595 71.4798 13.1351 71.1686 12.7007 70.5772L11.3169 68.6936C11.1473 68.4628 10.885 68.3173 10.5994 68.2953L3.41091 67.7393C3.12568 67.7174 2.84468 67.8201 2.64173 68.0217L0.982908 69.6707C0.462698 70.1879 -0.300694 70.3837 -0.994705 70.1462C-3.77783 69.1939 -6.37384 67.8625 -8.72571 66.2176C-9.32696 65.7971 -9.61906 65.0649 -9.50813 64.3396L-9.15517 62.0318C-9.11191 61.7487 -9.19384 61.4601 -9.38014 61.2425L-14.0705 55.7669C-14.2567 55.5496 -14.5286 55.4243 -14.8148 55.4234L-17.151 55.416C-17.8844 55.4136 -18.5624 55.0124 -18.8853 54.354C-20.1491 51.7772 -21.0658 49.0075 -21.5789 46.111C-21.7069 45.3884 -21.3956 44.6638 -20.804 44.2295L-18.9197 42.8458C-18.689 42.6762 -18.5435 42.4138 -18.5214 42.1283L-17.9655 34.9398C-17.9436 34.6545 -18.0472 34.3735 -18.2488 34.1705L-19.8979 32.5117C-20.415 31.9915 -20.6109 31.2281 -20.3734 30.5341C-19.421 27.7509 -18.0897 25.1549 -16.4447 22.803C-16.0242 22.2018 -15.2921 21.9097 -14.5668 22.0206L-12.2579 22.3737C-11.975 22.4168 -11.6871 22.3348 -11.4697 22.1486L-5.99408 17.4582C-5.77669 17.272 -5.65044 17.0003 -5.64954 16.714L-5.64278 14.3781C-5.64066 13.6446 -5.23943 12.9663 -4.58082 12.6433C-2.00401 11.3796 0.765686 10.4629 3.66211 9.94981C4.38461 9.82183 5.10899 10.133 5.54341 10.7244L6.92804 12.6091ZM10.5792 21.8214C0.179516 21.0171 -8.9033 28.7959 -9.70756 39.1956C-10.5117 49.5952 -2.73292 58.6781 7.66668 59.4823C18.0662 60.2865 27.1491 52.5076 27.9534 42.1081C28.7577 31.7085 20.9788 22.6257 10.5792 21.8214Z" fill="white"/>
</g>
<path d="M140.2 52.2974H135.643V29.5098H156.086V52.2974H151.561V34.0673H140.2V52.2974Z" fill="white" fill-opacity="0.7"/>
<path d="M112.873 52.2974V47.7399H121.988L126.546 43.2149H117.431L110.627 36.3786V29.5098H115.184V34.0998L119.709 38.6574H126.546V29.5098H131.071V45.4936L124.267 52.2974H112.873Z" fill="white" fill-opacity="0.7"/>
<path d="M91.1689 40.9361H102.53V34.0673H91.1689V40.9361ZM91.1689 52.2974H86.6113V29.5098H104.809L107.055 31.8211V43.2149L104.809 45.4936H91.1689V52.2974Z" fill="white" fill-opacity="0.7"/>
<path d="M67.9228 52.2974H63.3652V29.5098H82.7022V34.0673H67.9228V52.2974Z" fill="white" fill-opacity="0.7"/>
<path d="M219.89 18.8492H231.251V5.17666H219.89V18.8492ZM233.53 23.4068H217.578L215.332 21.1605V2.93046L217.578 0.619141H233.53L235.776 2.93046V21.1605L233.53 23.4068Z" fill="white"/>
<path d="M194.895 12.0455H206.257V5.17666H194.895V12.0455ZM194.895 23.4068H190.338V0.619141H208.535L210.782 2.93046V14.3243L208.535 16.603H194.895V23.4068Z" fill="white"/>
<path d="M171.649 23.4068H167.092V0.619141H186.429V5.17666H171.649V23.4068Z" fill="white"/>
<path d="M146.333 12.0455H157.694V5.17666H150.858L146.333 9.76674V12.0455ZM146.333 23.4068H141.775V7.48798L148.579 0.619141H162.219V23.4068H157.694V16.603H146.333V23.4068Z" fill="white"/>
<path d="M121.661 23.4068H117.104V0.619141H121.661V9.76674H128.465L133.022 5.20922V0.619141H137.547V7.48798L133.022 12.0455L137.547 16.603V23.4068H133.022V18.8492L128.465 14.3243H121.661V23.4068Z" fill="white"/>
<path d="M112.56 23.4068H93.2227V0.619141H112.56V5.17666H97.7802V9.76674H111.42V14.3243H97.7802V18.8492H112.56V23.4068Z" fill="white"/>
<path d="M67.9228 23.4068H63.3652V0.619141H67.9228L75.8659 11.6549L83.9392 0.619141H88.3339V23.4068H83.7764V8.04139L77.8191 16.7983H74.0103L67.9228 8.04139V23.4068Z" fill="white"/>
</svg>
