<svg width="77" height="108" viewBox="0 0 77 108" fill="none" xmlns="http://www.w3.org/2000/svg">
<mask id="mask0_276_754" style="mask-type:alpha" maskUnits="userSpaceOnUse" x="0" y="0" width="77" height="77">
<rect x="0.703125" y="0.548828" width="75.543" height="75.543" rx="1" fill="#6BCD85"/>
</mask>
<g mask="url(#mask0_276_754)">
<path fill-rule="evenodd" clip-rule="evenodd" d="M62.435 8.25086L21.506 -32.5398L29.5094 -40.5703L70.452 0.233855L78.4598 -7.77391L86.4768 0.243074L-19.4084 106.128L-27.4253 98.1113L1.02894 69.657L-39.1309 29.218L-31.0862 21.2288L9.04597 61.6399L16.1096 54.5763L-24.2344 13.9519L-16.1896 5.96274L24.1266 46.5593L31.8741 38.8118L-7.87011 -1.48623L0.202144 -9.44757L39.8913 30.7946L47.2546 23.4313L6.59955 -17.2834L14.6224 -25.2945L55.2716 15.4143L62.435 8.25086ZM104.13 15.1396L-1.75537 121.025L-9.77235 113.008L96.1128 7.1226L104.13 15.1396ZM123.573 28.8427L17.6878 134.728L9.6708 126.711L115.556 20.8257L123.573 28.8427Z" fill="white" fill-opacity="0.7"/>
<path d="M11.1304 17.7733C11.3791 18.1117 11.7636 18.3247 12.1823 18.3571L22.7231 19.1723C23.1415 19.2046 23.5534 19.0537 23.8512 18.758L27.1002 15.5288C27.3603 15.2703 27.7414 15.1741 28.0913 15.284C32.9635 16.8146 37.4632 19.1309 41.4547 22.0752C41.7498 22.2929 41.8968 22.6574 41.8415 23.0199L41.1511 27.5429C41.0878 27.9578 41.2079 28.3798 41.4809 28.6987L48.3588 36.7285C48.6319 37.0473 49.0303 37.2318 49.4501 37.2331L54.0264 37.2472C54.3931 37.2484 54.7306 37.4497 54.9003 37.7748C57.1957 42.1717 58.7922 46.9744 59.5552 52.0242C59.61 52.3869 59.4562 52.7487 59.1606 52.9659L55.4707 55.678C55.1323 55.9267 54.9193 56.3103 54.8869 56.7289L54.0717 67.2697C54.0394 67.688 54.1904 68.1 54.486 68.3978L57.7152 71.6478C57.9737 71.9079 58.0699 72.2889 57.96 72.6388C56.4294 77.511 54.1131 82.0107 51.1688 86.0021C50.9511 86.2973 50.5865 86.4444 50.2239 86.3889L45.7011 85.6977C45.2861 85.6344 44.8641 85.7554 44.5452 86.0285L36.5155 92.9054C36.1967 93.1785 36.0122 93.577 36.0109 93.9967L35.9968 98.573C35.9956 98.9397 35.7943 99.2772 35.4692 99.4469C31.0723 101.742 26.2696 103.34 21.2198 104.103C20.8571 104.158 20.4952 104.004 20.278 103.708L17.566 100.017C17.3173 99.6791 16.9336 99.4659 16.5151 99.4335L5.97432 98.6183C5.55587 98.586 5.14392 98.7378 4.84617 99.0336L1.59611 102.263C1.33601 102.521 0.954989 102.617 0.605174 102.508C-4.2671 100.977 -8.76664 98.6598 -12.7581 95.7154C-13.0533 95.4977 -13.2004 95.1331 -13.1449 94.7705L-12.4538 90.2487C-12.3903 89.8335 -12.5113 89.4108 -12.7845 89.0918L-19.6614 81.0621C-19.9344 80.7433 -20.333 80.5589 -20.7527 80.5575L-25.329 80.5434C-25.6957 80.5422 -26.0332 80.3409 -26.2029 80.0158C-28.4982 75.6191 -30.0957 70.817 -30.8588 65.7674C-30.9136 65.4046 -30.7598 65.0428 -30.4642 64.8256L-26.7733 62.1136C-26.435 61.8649 -26.2219 61.4804 -26.1895 61.0617L-25.3743 50.5209C-25.342 50.1024 -25.4937 49.6905 -25.7896 49.3928L-29.0188 46.1437C-29.2773 45.8836 -29.3735 45.5025 -29.2636 45.1527C-27.7329 40.2803 -25.4158 35.7809 -22.4714 31.7893C-22.2537 31.4942 -21.8892 31.3472 -21.5267 31.4025L-17.0047 32.0928C-16.5895 32.1563 -16.1669 32.0363 -15.8479 31.7631L-7.81809 24.8852C-7.49939 24.6121 -7.31481 24.2136 -7.3135 23.7939L-7.29936 19.2176C-7.29823 18.8509 -7.0969 18.5134 -6.77182 18.3437C-2.37511 16.0485 2.42712 14.4518 7.47666 13.6888C7.83934 13.634 8.20115 13.7877 8.41838 14.0833L11.1304 17.7733ZM16.4867 31.2812C1.23635 30.1019 -12.0823 41.5092 -13.2617 56.7596C-14.441 72.0099 -3.03457 85.3284 12.2157 86.5079C27.4661 87.6873 40.7856 76.2809 41.965 61.0305C43.1444 45.7801 31.7371 32.4606 16.4867 31.2812Z" fill="#333333"/>
</g>
<path d="M2.70005 95.2659H0.703125V85.2812H2.70005L6.18039 90.1166L9.71779 85.2812H11.6434V95.2659H9.64647V88.5334L7.03621 92.3703H5.36736L2.70005 88.5334V95.2659Z" fill="white"/>
<path d="M22.2583 95.2659H13.7856V85.2812H22.2583V87.2782H15.7825V89.2894H21.759V91.2863H15.7825V93.2689H22.2583V95.2659Z" fill="white"/>
<path d="M26.2463 95.2659H24.2494V85.2812H26.2463V89.2894H29.2274L31.2244 87.2924V85.2812H33.207V88.2909L31.2244 90.2878L33.207 92.2847V95.2659H31.2244V93.2689L29.2274 91.2863H26.2463V95.2659Z" fill="white"/>
<path d="M37.055 90.2878H42.033V87.2782H39.0376L37.055 89.2894V90.2878ZM37.055 95.2659H35.0581V88.2909L38.0392 85.2812H44.0157V95.2659H42.033V92.2847H37.055V95.2659Z" fill="white"/>
<path d="M48.1489 95.2659H46.152V85.2812H54.6246V87.2782H48.1489V95.2659Z" fill="white"/>
<path d="M58.3341 90.2878H63.3121V87.2782H58.3341V90.2878ZM58.3341 95.2659H56.3372V85.2812H64.3106L65.2948 86.294V91.2863L64.3106 92.2847H58.3341V95.2659Z" fill="white"/>
<path d="M69.2854 93.2689H74.2634V87.2782H69.2854V93.2689ZM75.2619 95.2659H68.2727L67.2885 94.2817V86.294L68.2727 85.2812H75.2619L76.2461 86.294V94.2817L75.2619 95.2659Z" fill="white"/>
<path d="M2.70005 107.925H0.703125V97.9403H9.17577V99.9372H2.70005V107.925Z" fill="#333333"/>
<path d="M12.8852 102.947H17.8633V99.9372H12.8852V102.947ZM12.8852 107.925H10.8883V97.9403H18.8617L19.8459 98.953V103.945L18.8617 104.944H12.8852V107.925Z" fill="#333333"/>
<path d="M22.3959 107.925V105.928H26.3897L28.3867 103.945H24.3928L21.4117 100.95V97.9403H23.4086V99.9515L25.3913 101.948H28.3867V97.9403H30.3693V104.944L27.3882 107.925H22.3959Z" fill="#333333"/>
<path d="M34.3699 107.925H32.373V97.9403H41.3306V107.925H39.348V99.9372H34.3699V107.925Z" fill="#333333"/>
</svg>
