<svg width="44" height="38" viewBox="0 0 44 38" fill="none" xmlns="http://www.w3.org/2000/svg">
<path d="M7.22502 1.57523L7.22501 2.57523L7.22502 1.57523ZM40.8609 1.5752L40.8609 2.5752L40.8609 1.5752ZM41.8959 2.59277L42.896 2.58491L42.8957 2.57285L41.8959 2.59277ZM1.45508 36.8977H0.455078C0.455078 37.45 0.902793 37.8977 1.45508 37.8977L1.45508 36.8977ZM6.73838 32.905H7.73838V32.8941L7.73814 32.8832L6.73838 32.905ZM6.71893 33.1016L5.73944 32.9L5.73944 32.9L6.71893 33.1016ZM12.3035 33.1018L13.283 33.3034L13.283 33.3034L12.3035 33.1018ZM7.30971 35.8989C6.77828 36.0493 6.46934 36.6019 6.61967 37.1334C6.77001 37.6648 7.32268 37.9737 7.85412 37.8234L7.30971 35.8989ZM37.5692 33.1018L38.5486 33.3034L38.5487 33.3033L37.5692 33.1018ZM32.5753 35.8989C32.0439 36.0493 31.735 36.6019 31.8853 37.1334C32.0356 37.6648 32.5883 37.9737 33.1197 37.8234L32.5753 35.8989ZM31.0679 12.3875C31.6201 12.3876 32.068 11.94 32.0681 11.3877C32.0683 10.8355 31.6207 10.3876 31.0684 10.3875L31.0679 12.3875ZM13.1073 11.3875L13.1073 12.3875L13.1073 12.3875L13.1073 11.3875ZM36.0763 11.3875C36.0763 11.9398 36.524 12.3875 37.0763 12.3875C37.6286 12.3875 38.0763 11.9398 38.0763 11.3875H36.0763ZM11.9498 15.8491C11.3976 15.8491 10.9498 16.2968 10.9498 16.8491C10.9498 17.4014 11.3976 17.8491 11.9498 17.8491V15.8491ZM21.8426 17.8491C22.3948 17.8491 22.8426 17.4014 22.8426 16.8491C22.8426 16.2968 22.3948 15.8491 21.8426 15.8491V17.8491ZM11.6467 19.491C11.0944 19.491 10.6467 19.9388 10.6467 20.491C10.6467 21.0433 11.0944 21.491 11.6467 21.491V19.491ZM21.5394 21.491C22.0917 21.491 22.5394 21.0433 22.5394 20.491C22.5394 19.9388 22.0917 19.491 21.5394 19.491V21.491ZM11.6467 22.9505C11.0944 22.9505 10.6467 23.3982 10.6467 23.9505C10.6467 24.5028 11.0944 24.9505 11.6467 24.9505V22.9505ZM21.5394 24.9505C22.0917 24.9505 22.5394 24.5028 22.5394 23.9505C22.5394 23.3982 22.0917 22.9505 21.5394 22.9505V24.9505ZM42.118 30.8506L41.118 30.8584L42.118 30.8506ZM7.22502 1.57523L7.22501 2.57523C11.7741 2.57531 30.2762 2.57524 40.8609 2.5752L40.8609 1.5752L40.8609 0.575195C30.2761 0.575245 11.7741 0.575306 7.22504 0.57523L7.22502 1.57523ZM41.8959 2.59277L40.8959 2.60062L41.118 30.8584L42.118 30.8506L43.1179 30.8427L42.8959 2.58491L41.8959 2.59277ZM36.1182 36.8977V35.8977H1.45508V36.8977V37.8977H36.1182V36.8977ZM1.45508 36.8977H2.45508V9.04234H1.45508H0.455078V36.8977H1.45508ZM2.49332 8.0041V9.0041H6.19616V8.0041V7.0041H2.49332V8.0041ZM6.19616 8.0041H7.19616V2.61387H6.19616H5.19616V8.0041H6.19616ZM6.19616 8.0041L5.1964 8.02587L5.73862 32.9268L6.73838 32.905L7.73814 32.8832L7.19592 7.98233L6.19616 8.0041ZM6.71893 33.1016L5.73944 32.9C5.54616 33.8395 5.10227 34.367 4.41216 34.7786C3.64115 35.2385 2.60025 35.5345 1.18288 35.9355L1.45508 36.8977L1.72728 37.86C3.05263 37.4851 4.38889 37.1213 5.43674 36.4962C6.56548 35.8229 7.38215 34.8402 7.69841 33.3031L6.71893 33.1016ZM1.45508 9.04234H2.45508C2.45508 9.02122 2.4722 9.0041 2.49332 9.0041V8.0041V7.0041C1.36763 7.0041 0.455078 7.91665 0.455078 9.04234H1.45508ZM6.73838 32.905H5.73838C5.73838 32.9063 5.73831 32.9069 5.73834 32.9067C5.73836 32.9064 5.73858 32.9043 5.73944 32.9L6.71893 33.1016L7.69841 33.3031C7.72638 33.1672 7.73838 33.0326 7.73838 32.905H6.73838ZM40.8609 1.5752L40.8609 2.5752C40.8779 2.5752 40.8956 2.58805 40.8961 2.61268L41.8959 2.59277L42.8957 2.57285C42.8737 1.467 41.9746 0.57519 40.8609 0.575195L40.8609 1.5752ZM7.22502 1.57523L7.22504 0.57523C6.08684 0.575211 5.19616 1.50042 5.19616 2.61387H6.19616H7.19616C7.19616 2.60372 7.198 2.59743 7.19968 2.5934C7.20159 2.5888 7.20427 2.58491 7.20722 2.58192C7.21014 2.57896 7.2127 2.5775 7.21432 2.57681C7.21525 2.57641 7.21802 2.57523 7.22501 2.57523L7.22502 1.57523ZM12.323 29.8089H11.323V32.9053H12.323H13.323V29.8089H12.323ZM12.3035 33.1018L11.3241 32.9003C11.1119 33.9317 10.7386 34.4335 10.2128 34.7959C9.60042 35.2178 8.71908 35.5002 7.30971 35.8989L7.58191 36.8612L7.85412 37.8234C9.18748 37.4462 10.4122 37.0873 11.3476 36.4427C12.3695 35.7385 12.9857 34.7486 13.283 33.3034L12.3035 33.1018ZM37.5886 29.8089H36.5886V32.9053H37.5886H38.5886V29.8089H37.5886ZM37.5692 33.1018L36.5897 32.9003C36.3775 33.9317 36.0042 34.4335 35.4784 34.7959C34.866 35.2178 33.9847 35.5002 32.5753 35.8989L32.8475 36.8612L33.1197 37.8234C34.4531 37.4462 35.6778 37.0873 36.6132 36.4427C37.6351 35.7385 38.2513 34.7486 38.5486 33.3034L37.5692 33.1018ZM36.5504 28.7706V27.7706H13.3612V28.7706V29.7706H36.5504V28.7706ZM37.5886 32.9053H36.5886C36.5886 32.9066 36.5886 32.9072 36.5886 32.9069C36.5886 32.9067 36.5888 32.9045 36.5897 32.9003L37.5692 33.1018L38.5487 33.3033C38.5766 33.1675 38.5886 33.0329 38.5886 32.9053H37.5886ZM37.5886 29.8089H38.5886C38.5886 28.6832 37.6761 27.7706 36.5504 27.7706V28.7706V29.7706C36.5715 29.7706 36.5886 29.7878 36.5886 29.8089H37.5886ZM12.323 32.9053H11.323C11.323 32.9066 11.3229 32.9072 11.323 32.907C11.323 32.9067 11.3232 32.9045 11.3241 32.9003L12.3035 33.1018L13.283 33.3034C13.311 33.1675 13.323 33.0329 13.323 32.9053H12.323ZM12.323 29.8089H13.323C13.323 29.7878 13.3401 29.7706 13.3612 29.7706V28.7706V27.7706C12.2356 27.7706 11.323 28.6832 11.323 29.8089H12.323ZM31.0681 11.3875L31.0684 10.3875C29.8767 10.3872 19.1867 10.3873 13.1073 10.3875L13.1073 11.3875L13.1073 12.3875C19.187 12.3873 29.8765 12.3872 31.0679 12.3875L31.0681 11.3875ZM12.0715 10.3492H13.0715V5.87047H12.0715H11.0715V10.3492H12.0715ZM13.1098 4.83223V5.83223H36.0381V4.83223V3.83223H13.1098V4.83223ZM37.0763 5.87047H36.0763V11.3875H37.0763H38.0763V5.87047H37.0763ZM36.0381 4.83223V5.83223C36.0592 5.83223 36.0763 5.84935 36.0763 5.87047H37.0763H38.0763C38.0763 4.74478 37.1638 3.83223 36.0381 3.83223V4.83223ZM12.0715 5.87047H13.0715C13.0715 5.84935 13.0886 5.83223 13.1098 5.83223V4.83223V3.83223C11.9841 3.83223 11.0715 4.74478 11.0715 5.87047H12.0715ZM13.1073 11.3875L13.1073 10.3875C13.0893 10.3875 13.0715 10.3734 13.0715 10.3492H12.0715H11.0715C11.0715 11.4718 11.9785 12.3875 13.1073 12.3875L13.1073 11.3875ZM37.4404 17.4017H36.4404V23.5794H37.4404H38.4404V17.4017H37.4404ZM36.4022 24.6177V23.6177H26.7651V24.6177V25.6177H36.4022V24.6177ZM25.7268 23.5794H26.7268V17.4017H25.7268H24.7268V23.5794H25.7268ZM26.7651 16.3634V17.3634H36.4022V16.3634V15.3634H26.7651V16.3634ZM25.7268 17.4017H26.7268C26.7268 17.3805 26.744 17.3634 26.7651 17.3634V16.3634V15.3634C25.6394 15.3634 24.7268 16.276 24.7268 17.4017H25.7268ZM26.7651 24.6177V23.6177C26.744 23.6177 26.7268 23.6005 26.7268 23.5794H25.7268H24.7268C24.7268 24.7051 25.6394 25.6177 26.7651 25.6177V24.6177ZM37.4404 23.5794H36.4404C36.4404 23.6005 36.4233 23.6177 36.4022 23.6177V24.6177V25.6177C37.5278 25.6177 38.4404 24.7051 38.4404 23.5794H37.4404ZM37.4404 17.4017H38.4404C38.4404 16.276 37.5278 15.3634 36.4022 15.3634V16.3634V17.3634C36.4233 17.3634 36.4404 17.3805 36.4404 17.4017H37.4404ZM11.9498 16.8491V17.8491H21.8426V16.8491V15.8491H11.9498V16.8491ZM11.6467 20.491V21.491H21.5394V20.491V19.491H11.6467V20.491ZM11.6467 23.9505V24.9505H21.5394V23.9505V22.9505H11.6467V23.9505ZM42.118 30.8506L41.118 30.8584C41.1398 33.6351 38.8949 35.8977 36.1182 35.8977V36.8977V37.8977C40.0056 37.8977 43.1485 34.7301 43.1179 30.8427L42.118 30.8506Z" fill="#58C88A"/>
</svg>
