<svg width="44" height="39" viewBox="0 0 44 39" fill="none" xmlns="http://www.w3.org/2000/svg">
<path d="M7.12932 1.28617C11.6784 1.28624 30.1805 1.28618 40.7652 1.28613C41.3306 1.28613 41.7889 1.73847 41.8002 2.3037L42.4822 36.5498C42.4938 37.1311 42.0257 37.6087 41.4442 37.6087H1.35938V8.75328C1.35938 8.17987 1.82421 7.71504 2.39762 7.71504H6.10046V2.32481C6.10046 1.75123 6.55574 1.28616 7.12932 1.28617Z" fill="#58C88A"/>
<path d="M36.8025 24.3272V18.1495C36.8025 17.5761 36.3376 17.1112 35.7642 17.1112H26.1272C25.5538 17.1112 25.0889 17.5761 25.0889 18.1495V24.3272C25.0889 24.9006 25.5538 25.3655 26.1272 25.3655H35.7642C36.3376 25.3655 36.8025 24.9006 36.8025 24.3272Z" fill="#58C88A"/>
<path d="M7.12932 1.28617L7.1293 2.28617L7.12932 1.28617ZM40.7652 1.28613L40.7652 2.28613L40.7652 1.28613ZM41.8002 2.3037L42.8 2.28379L42.8 2.28379L41.8002 2.3037ZM42.4822 36.5498L43.482 36.5298L43.482 36.5298L42.4822 36.5498ZM1.35938 37.6087H0.359375C0.359375 38.161 0.80709 38.6087 1.35938 38.6087L1.35938 37.6087ZM6.081 33.8494L5.10152 33.6478L5.10152 33.6478L6.081 33.8494ZM11.6656 33.8497L12.6451 34.0512L12.6451 34.0512L11.6656 33.8497ZM6.67179 36.6467C6.14036 36.7971 5.83142 37.3497 5.98175 37.8812C6.13208 38.4126 6.68476 38.7215 7.21619 38.5712L6.67179 36.6467ZM36.9312 33.8497L37.9107 34.0512L37.9107 34.0512L36.9312 33.8497ZM31.9374 36.6467C31.406 36.7971 31.097 37.3497 31.2474 37.8812C31.3977 38.4126 31.9504 38.7215 32.4818 38.5712L31.9374 36.6467ZM30.4299 13.1353C30.9822 13.1354 31.4301 12.6878 31.4302 12.1356C31.4303 11.5833 30.9827 11.1354 30.4305 11.1353L30.4299 13.1353ZM12.4694 12.1353L12.4694 13.1353L12.4694 13.1353L12.4694 12.1353ZM35.4384 12.1353C35.4384 12.6876 35.8861 13.1353 36.4384 13.1353C36.9907 13.1353 37.4384 12.6876 37.4384 12.1353H35.4384ZM11.3119 16.5969C10.7596 16.5969 10.3119 17.0446 10.3119 17.5969C10.3119 18.1492 10.7596 18.5969 11.3119 18.5969V16.5969ZM21.2046 18.5969C21.7569 18.5969 22.2046 18.1492 22.2046 17.5969C22.2046 17.0446 21.7569 16.5969 21.2046 16.5969V18.5969ZM11.0088 20.2389C10.4565 20.2389 10.0088 20.6866 10.0088 21.2389C10.0088 21.7911 10.4565 22.2389 11.0088 22.2389V20.2389ZM20.9015 22.2389C21.4538 22.2389 21.9015 21.7911 21.9015 21.2389C21.9015 20.6866 21.4538 20.2389 20.9015 20.2389V22.2389ZM11.0088 23.6983C10.4565 23.6983 10.0088 24.146 10.0088 24.6983C10.0088 25.2506 10.4565 25.6983 11.0088 25.6983V23.6983ZM20.9015 25.6983C21.4538 25.6983 21.9015 25.2506 21.9015 24.6983C21.9015 24.146 21.4538 23.6983 20.9015 23.6983V25.6983ZM7.12932 1.28617L7.1293 2.28617C11.6784 2.28624 30.1805 2.28618 40.7652 2.28613L40.7652 1.28613L40.7652 0.286133C30.1804 0.286182 11.6784 0.286243 7.12934 0.286168L7.12932 1.28617ZM41.8002 2.3037L40.8004 2.32362L41.4824 36.5697L42.4822 36.5498L43.482 36.5298L42.8 2.28379L41.8002 2.3037ZM41.4442 37.6087V36.6087H1.35938V37.6087V38.6087H41.4442V37.6087ZM1.35938 37.6087H2.35938V8.75328H1.35938H0.359375V37.6087H1.35938ZM2.39762 7.71504V8.71504H6.10046V7.71504V6.71504H2.39762V7.71504ZM6.10046 7.71504H7.10046V2.32481H6.10046H5.10046V7.71504H6.10046ZM6.10046 7.71504H5.10046V33.6528H6.10046H7.10046V7.71504H6.10046ZM6.081 33.8494L5.10152 33.6478C4.88932 34.6793 4.51605 35.181 3.99022 35.5434C3.37788 35.9653 2.49654 36.2477 1.08717 36.6464L1.35938 37.6087L1.63158 38.5709C2.96494 38.1937 4.18964 37.8348 5.12505 37.1902C6.14697 36.4861 6.76315 35.4961 7.06049 34.0509L6.081 33.8494ZM1.35938 8.75328H2.35938C2.35938 8.73216 2.3765 8.71504 2.39762 8.71504V7.71504V6.71504C1.27193 6.71504 0.359375 7.62759 0.359375 8.75328H1.35938ZM42.4822 36.5498L41.4824 36.5697C41.4828 36.5911 41.4656 36.6087 41.4442 36.6087V37.6087V38.6087C42.5857 38.6087 43.5047 37.6712 43.482 36.5298L42.4822 36.5498ZM6.10046 33.6528H5.10046C5.10046 33.6541 5.10039 33.6547 5.10042 33.6545C5.10044 33.6543 5.10065 33.6521 5.10152 33.6478L6.081 33.8494L7.06049 34.0509C7.08845 33.915 7.10046 33.7804 7.10046 33.6528H6.10046ZM40.7652 1.28613L40.7652 2.28613C40.7822 2.28613 40.7999 2.29899 40.8004 2.32362L41.8002 2.3037L42.8 2.28379C42.778 1.17794 41.8789 0.286128 40.7652 0.286133L40.7652 1.28613ZM7.12932 1.28617L7.12934 0.286168C5.99114 0.286149 5.10046 1.21135 5.10046 2.32481H6.10046H7.10046C7.10046 2.31466 7.1023 2.30837 7.10398 2.30434C7.10589 2.29974 7.10857 2.29585 7.11152 2.29285C7.11444 2.2899 7.117 2.28843 7.11861 2.28774C7.11955 2.28735 7.12232 2.28617 7.1293 2.28617L7.12932 1.28617ZM11.6851 30.5567H10.6851V33.6531H11.6851H12.6851V30.5567H11.6851ZM11.6656 33.8497L10.6861 33.6481C10.4739 34.6796 10.1007 35.1813 9.57483 35.5437C8.9625 35.9656 8.08116 36.248 6.67179 36.6467L6.94399 37.609L7.21619 38.5712C8.54955 38.194 9.77425 37.8351 10.7097 37.1905C11.7316 36.4863 12.3478 35.4964 12.6451 34.0512L11.6656 33.8497ZM36.9507 30.5567H35.9507V33.6531H36.9507H37.9507V30.5567H36.9507ZM36.9312 33.8497L35.9518 33.6481C35.7395 34.6796 35.3663 35.1813 34.8405 35.5437C34.2281 35.9656 33.3468 36.248 31.9374 36.6467L32.2096 37.609L32.4818 38.5712C33.8152 38.194 35.0399 37.8351 35.9753 37.1905C36.9972 36.4863 37.6134 35.4964 37.9107 34.0512L36.9312 33.8497ZM35.9124 29.5185V28.5185H12.7233V29.5185V30.5185H35.9124V29.5185ZM36.9507 33.6531H35.9507C35.9507 33.6544 35.9506 33.655 35.9506 33.6548C35.9507 33.6545 35.9509 33.6524 35.9517 33.6482L36.9312 33.8497L37.9107 34.0512C37.9387 33.9153 37.9507 33.7807 37.9507 33.6531H36.9507ZM36.9507 30.5567H37.9507C37.9507 29.431 37.0381 28.5185 35.9124 28.5185V29.5185V30.5185C35.9336 30.5185 35.9507 30.5356 35.9507 30.5567H36.9507ZM11.6851 33.6531H10.6851C10.6851 33.6544 10.685 33.655 10.685 33.6548C10.6851 33.6545 10.6853 33.6524 10.6861 33.6481L11.6656 33.8497L12.6451 34.0512C12.6731 33.9153 12.6851 33.7807 12.6851 33.6531H11.6851ZM11.6851 30.5567H12.6851C12.6851 30.5356 12.7022 30.5185 12.7233 30.5185V29.5185V28.5185C11.5976 28.5185 10.6851 29.431 10.6851 30.5567H11.6851ZM30.4302 12.1353L30.4305 11.1353C29.2387 11.135 18.5488 11.1352 12.4694 11.1353L12.4694 12.1353L12.4694 13.1353C18.5491 13.1352 29.2386 13.135 30.4299 13.1353L30.4302 12.1353ZM11.4336 11.097H12.4336V6.61828H11.4336H10.4336V11.097H11.4336ZM12.4718 5.58004V6.58004H35.4001V5.58004V4.58004H12.4718V5.58004ZM36.4384 6.61828H35.4384V12.1353H36.4384H37.4384V6.61828H36.4384ZM35.4001 5.58004V6.58004C35.4213 6.58004 35.4384 6.59716 35.4384 6.61828H36.4384H37.4384C37.4384 5.49259 36.5258 4.58004 35.4001 4.58004V5.58004ZM11.4336 6.61828H12.4336C12.4336 6.59716 12.4507 6.58004 12.4718 6.58004V5.58004V4.58004C11.3461 4.58004 10.4336 5.49259 10.4336 6.61828H11.4336ZM12.4694 12.1353L12.4694 11.1353C12.4513 11.1353 12.4336 11.1213 12.4336 11.097H11.4336H10.4336C10.4336 12.2197 11.3406 13.1353 12.4694 13.1353L12.4694 12.1353ZM36.8025 18.1495H35.8025V24.3272H36.8025H37.8025V18.1495H36.8025ZM35.7642 25.3655V24.3655H26.1272V25.3655V26.3655H35.7642V25.3655ZM25.0889 24.3272H26.0889V18.1495H25.0889H24.0889V24.3272H25.0889ZM26.1272 17.1112V18.1112H35.7642V17.1112V16.1112H26.1272V17.1112ZM25.0889 18.1495H26.0889C26.0889 18.1284 26.106 18.1112 26.1272 18.1112V17.1112V16.1112C25.0015 16.1112 24.0889 17.0238 24.0889 18.1495H25.0889ZM26.1272 25.3655V24.3655C26.106 24.3655 26.0889 24.3484 26.0889 24.3272H25.0889H24.0889C24.0889 25.4529 25.0015 26.3655 26.1272 26.3655V25.3655ZM36.8025 24.3272H35.8025C35.8025 24.3484 35.7854 24.3655 35.7642 24.3655V25.3655V26.3655C36.8899 26.3655 37.8025 25.4529 37.8025 24.3272H36.8025ZM36.8025 18.1495H37.8025C37.8025 17.0238 36.8899 16.1112 35.7642 16.1112V17.1112V18.1112C35.7854 18.1112 35.8025 18.1284 35.8025 18.1495H36.8025ZM11.3119 17.5969V18.5969H21.2046V17.5969V16.5969H11.3119V17.5969ZM11.0088 21.2389V22.2389H20.9015V21.2389V20.2389H11.0088V21.2389ZM11.0088 24.6983V25.6983H20.9015V24.6983V23.6983H11.0088V24.6983Z" fill="white"/>
</svg>
