<svg width="27" height="28" viewBox="0 0 27 28" fill="none" xmlns="http://www.w3.org/2000/svg">
<path d="M0.835938 10.5742C0.835938 10.2981 1.0598 10.0742 1.33594 10.0742H8.08008C8.35622 10.0742 8.58008 10.2981 8.58008 10.5742V17.3184C8.58008 17.5945 8.35622 17.8184 8.08008 17.8184H1.33594C1.0598 17.8184 0.835938 17.5945 0.835938 17.3184V10.5742Z" fill="#58C88A"/>
<path d="M0.835938 19.8682C0.835938 19.592 1.0598 19.3682 1.33594 19.3682H8.08008C8.35622 19.3682 8.58008 19.592 8.58008 19.8682V26.6123C8.58008 26.8884 8.35622 27.1123 8.08008 27.1123H1.33594C1.0598 27.1123 0.835938 26.8884 0.835938 26.6123V19.8682Z" fill="#58C88A"/>
<path d="M0.835938 1.28027C0.835938 1.00413 1.0598 0.780273 1.33594 0.780273H8.08008C8.35622 0.780273 8.58008 1.00413 8.58008 1.28027V8.02441C8.58008 8.30056 8.35622 8.52441 8.08008 8.52441H1.33594C1.0598 8.52441 0.835938 8.30056 0.835938 8.02441V1.28027Z" fill="#58C88A"/>
<path d="M9.92383 10.5742C9.92383 10.2981 10.1477 10.0742 10.4238 10.0742H17.168C17.4441 10.0742 17.668 10.2981 17.668 10.5742V17.3184C17.668 17.5945 17.4441 17.8184 17.168 17.8184H10.4238C10.1477 17.8184 9.92383 17.5945 9.92383 17.3184V10.5742Z" fill="#58C88A"/>
<path d="M9.92383 19.8682C9.92383 19.592 10.1477 19.3682 10.4238 19.3682H17.168C17.4441 19.3682 17.668 19.592 17.668 19.8682V26.6123C17.668 26.8884 17.4441 27.1123 17.168 27.1123H10.4238C10.1477 27.1123 9.92383 26.8884 9.92383 26.6123V19.8682Z" fill="#58C88A"/>
<path d="M9.92383 1.28027C9.92383 1.00413 10.1477 0.780273 10.4238 0.780273H17.168C17.4441 0.780273 17.668 1.00413 17.668 1.28027V8.02441C17.668 8.30056 17.4441 8.52441 17.168 8.52441H10.4238C10.1477 8.52441 9.92383 8.30056 9.92383 8.02441V1.28027Z" fill="#58C88A"/>
<path d="M19.0117 10.5742C19.0117 10.2981 19.2356 10.0742 19.5117 10.0742H26.2559C26.532 10.0742 26.7559 10.2981 26.7559 10.5742V17.3184C26.7559 17.5945 26.532 17.8184 26.2559 17.8184H19.5117C19.2356 17.8184 19.0117 17.5945 19.0117 17.3184V10.5742Z" fill="#58C88A"/>
<path d="M19.0117 19.8682C19.0117 19.592 19.2356 19.3682 19.5117 19.3682H26.2559C26.532 19.3682 26.7559 19.592 26.7559 19.8682V26.6123C26.7559 26.8884 26.532 27.1123 26.2559 27.1123H19.5117C19.2356 27.1123 19.0117 26.8884 19.0117 26.6123V19.8682Z" fill="#58C88A"/>
<path d="M19.0117 1.28027C19.0117 1.00413 19.2356 0.780273 19.5117 0.780273H26.2559C26.532 0.780273 26.7559 1.00413 26.7559 1.28027V8.02441C26.7559 8.30056 26.532 8.52441 26.2559 8.52441H19.5117C19.2356 8.52441 19.0117 8.30056 19.0117 8.02441V1.28027Z" fill="#58C88A"/>
</svg>
