<svg width="27" height="28" viewBox="0 0 27 28" fill="none" xmlns="http://www.w3.org/2000/svg">
<path d="M0.660156 1.28027C0.660156 1.00413 0.884014 0.780273 1.16016 0.780273H16.9922C17.2683 0.780273 17.4922 1.00413 17.4922 1.28027V17.3184C17.4922 17.5945 17.2683 17.8184 16.9922 17.8184H1.16016C0.884014 17.8184 0.660156 17.5945 0.660156 17.3184V1.28027Z" fill="#58C88A"/>
<path d="M0.660156 19.8682C0.660156 19.592 0.884014 19.3682 1.16016 19.3682H26.0801C26.3562 19.3682 26.5801 19.592 26.5801 19.8682V26.6123C26.5801 26.8884 26.3562 27.1123 26.0801 27.1123H1.16016C0.884015 27.1123 0.660156 26.8884 0.660156 26.6123V19.8682Z" fill="#58C88A"/>
<path d="M18.8359 10.5742C18.8359 10.2981 19.0598 10.0742 19.3359 10.0742H26.0801C26.3562 10.0742 26.5801 10.2981 26.5801 10.5742V17.3184C26.5801 17.5945 26.3562 17.8184 26.0801 17.8184H19.3359C19.0598 17.8184 18.8359 17.5945 18.8359 17.3184V10.5742Z" fill="#58C88A"/>
<path d="M18.8359 1.28027C18.8359 1.00413 19.0598 0.780273 19.3359 0.780273H26.0801C26.3562 0.780273 26.5801 1.00413 26.5801 1.28027V8.02441C26.5801 8.30056 26.3562 8.52441 26.0801 8.52441H19.3359C19.0598 8.52441 18.8359 8.30056 18.8359 8.02441V1.28027Z" fill="#58C88A"/>
</svg>
