<svg width="32" height="27" viewBox="0 0 32 27" fill="none" xmlns="http://www.w3.org/2000/svg">
<path d="M24.5997 11.2381C27.3507 11.7551 29.9784 9.98898 30.4688 7.29343C30.5078 7.07896 30.5321 6.86506 30.5425 6.65275C30.5614 6.26325 30.117 6.05944 29.7921 6.27986L27.9659 7.51885C27.8119 7.62335 27.6117 7.63846 27.4408 7.5585L25.5501 6.67384C25.3792 6.59388 25.2635 6.431 25.2466 6.24655L25.0599 4.20577C25.043 4.02132 25.1275 3.84333 25.2815 3.73884L27.1502 2.47103C27.4721 2.25263 27.4367 1.77914 27.0625 1.65448C26.8409 1.58066 26.6116 1.52095 26.3756 1.47659C23.6246 0.959599 20.9969 2.72567 20.5065 5.42122M24.5997 11.2381C24.1427 11.1522 23.711 11.0087 23.3112 10.8167C23.1267 10.7282 22.9079 10.7351 22.7417 10.8496L21.3912 11.7802M24.5997 11.2381L24.9301 12.6407C24.9748 12.8301 25.1231 12.9806 25.3145 13.0306L26.7603 13.4081C26.9909 13.4683 27.1551 13.6722 27.1515 13.9057C27.1417 14.5443 27.0796 15.1897 26.9617 15.8374C26.8436 16.487 26.6738 17.1141 26.4575 17.7155C26.3785 17.9349 26.1534 18.0655 25.9169 18.0379L24.4912 17.8709C24.266 17.8446 24.0519 17.9629 23.9498 18.1601C23.6409 18.7567 23.2727 19.3141 22.854 19.8263C22.7131 19.9987 22.6908 20.24 22.8069 20.4325L23.5412 21.6511C23.663 21.8533 23.6338 22.1096 23.4633 22.2701C22.513 23.1643 21.4175 23.9002 20.2229 24.4469C20.0084 24.5451 19.7531 24.4799 19.6036 24.2963L18.7026 23.1897C18.5602 23.0149 18.3217 22.9487 18.1065 23.0155C17.4703 23.2131 16.8092 23.349 16.132 23.4175C15.9074 23.4402 15.718 23.5929 15.6625 23.8075L15.3099 25.17C15.2515 25.3954 15.0463 25.5539 14.8088 25.5475C14.1553 25.53 13.494 25.4604 12.8297 25.3356C12.1674 25.2111 11.5272 25.0364 10.9125 24.8163C10.6884 24.736 10.5524 24.5135 10.5771 24.2817L10.7265 22.8812C10.7501 22.6606 10.6269 22.4492 10.425 22.3464C10.0662 22.1637 9.7209 21.9612 9.3903 21.7406C9.16036 21.5871 8.93754 21.4249 8.72226 21.2545C8.54502 21.1142 8.29938 21.0893 8.10507 21.2005L7.67187 21.4484M20.5065 5.42122L19.468 4.82594C19.2861 4.7217 19.1829 4.52242 19.205 4.31822L19.3599 2.88644C19.385 2.65448 19.249 2.43158 19.0247 2.35119C18.4095 2.13076 17.7687 1.95585 17.1058 1.83127C16.4448 1.70705 15.7867 1.63756 15.1365 1.61959C14.8986 1.61301 14.6932 1.77164 14.6349 1.99736L14.2835 3.35803C14.228 3.57293 14.0383 3.72585 13.8134 3.74838C13.1329 3.81653 12.4686 3.95274 11.8294 4.15117C11.6146 4.21787 11.3763 4.152 11.2339 3.97759L10.33 2.87065C10.1804 2.68747 9.92531 2.62254 9.71109 2.72062C8.51418 3.26863 7.41678 4.00657 6.46532 4.90324C6.29504 5.06371 6.26593 5.31973 6.38751 5.52173L7.12228 6.74252C7.23804 6.93485 7.21585 7.17582 7.07534 7.34808C6.6593 7.85817 6.29328 8.41287 5.98588 9.00642C5.8839 9.20334 5.67026 9.3216 5.44533 9.29559L4.01735 9.13046C3.78105 9.10313 3.55626 9.23382 3.47746 9.45295C3.26135 10.0539 3.09184 10.6805 2.97378 11.3294C2.85536 11.9803 2.7932 12.629 2.78388 13.2707C2.78049 13.5039 2.94452 13.7076 3.17483 13.7678L4.56675 14.1321C4.78595 14.1894 4.94394 14.3774 4.97001 14.5984C5.0074 14.9152 5.06028 15.2287 5.128 15.5379C5.2026 15.8785 5.2952 16.2139 5.40496 16.5428C5.47568 16.7547 5.41173 16.9878 5.23601 17.1255L4.96327 17.3391M20.5065 5.42122C20.4404 5.78461 20.4165 6.14633 20.4314 6.50151C20.4392 6.6878 20.3578 6.86798 20.2033 6.97404L18.5839 8.08498M7.67187 21.4484C7.20163 22.9515 5.64704 23.8925 4.02515 23.5877C2.27274 23.2583 1.10537 21.5994 1.41775 19.8823C1.71864 18.2284 3.2826 17.1238 4.96327 17.3391M7.67187 21.4484L6.87167 21.9063C6.6676 22.0231 6.40654 21.9911 6.24091 21.8217C5.31547 20.8754 4.54975 19.7878 3.9761 18.6049C3.87343 18.3931 3.93621 18.1434 4.12076 17.9989L4.96327 17.3391M8.61261 14.9564L18.5839 8.08498M18.5839 8.08498C17.8626 7.62159 17.0401 7.28605 16.1441 7.11766C12.4996 6.43276 9.0186 8.77237 8.36894 12.3433C7.71929 15.9143 10.147 19.3643 13.7915 20.0492C17.4359 20.7341 20.9169 18.3945 21.5666 14.8235C21.757 13.7765 21.683 12.7398 21.3912 11.7802M21.3912 11.7802L11.2042 18.8004" stroke="#58C88A" stroke-width="1.8" stroke-linecap="round"/>
</svg>
