<svg width="32" height="27" viewBox="0 0 32 27" fill="none" xmlns="http://www.w3.org/2000/svg">
<path d="M24.67 11.3015C27.421 11.8185 30.0487 10.0525 30.5391 7.3569C30.5781 7.14243 30.6025 6.92854 30.6128 6.71623C30.6317 6.32672 30.1873 6.12292 29.8624 6.34333L28.0362 7.58233C27.8822 7.68682 27.682 7.70194 27.5111 7.62198L25.6204 6.73731C25.4495 6.65735 25.3338 6.49447 25.3169 6.31002L25.1302 4.26925C25.1133 4.0848 25.1978 3.90681 25.3518 3.80231L27.2205 2.5345C27.5424 2.31611 27.507 1.84262 27.1328 1.71795C26.9112 1.64414 26.6819 1.58442 26.4459 1.54007C23.6949 1.02308 21.0672 2.78915 20.5768 5.4847M24.67 11.3015C24.213 11.2156 23.7813 11.0722 23.3815 10.8802C23.197 10.7917 22.9782 10.7985 22.812 10.9131L21.4615 11.8437M24.67 11.3015L25.0004 12.7042C25.0451 12.8936 25.1934 13.0441 25.3848 13.094L26.8306 13.4716C27.0612 13.5318 27.2254 13.7357 27.2218 13.9692C27.212 14.6077 27.1499 15.2532 27.032 15.9009C26.9139 16.5505 26.7442 17.1776 26.5278 17.779C26.4489 17.9984 26.2237 18.129 25.9872 18.1013L24.5615 17.9344C24.3363 17.908 24.1223 18.0263 24.0201 18.2235C23.7112 18.8202 23.343 19.3775 22.9243 19.8898C22.7834 20.0622 22.7612 20.3035 22.8772 20.496L23.6115 21.7146C23.7333 21.9168 23.7042 22.1731 23.5336 22.3336C22.5833 23.2277 21.4878 23.9637 20.2932 24.5104C20.0787 24.6086 19.8234 24.5434 19.6739 24.3598L18.7729 23.2532C18.6305 23.0784 18.392 23.0122 18.1769 23.079C17.5406 23.2766 16.8795 23.4125 16.2023 23.481C15.9777 23.5037 15.7884 23.6564 15.7328 23.871L15.3802 25.2335C15.3219 25.4589 15.1166 25.6174 14.8791 25.611C14.2256 25.5935 13.5643 25.5239 12.9 25.3991C12.2377 25.2746 11.5975 25.0999 10.9828 24.8797C10.7587 24.7995 10.6227 24.5769 10.6474 24.3452L10.7968 22.9446C10.8204 22.724 10.6972 22.5126 10.4953 22.4099C10.1365 22.2272 9.79121 22.0247 9.46061 21.804C9.23067 21.6506 9.00786 21.4884 8.79258 21.318C8.61533 21.1777 8.36969 21.1528 8.17538 21.264L7.74218 21.5118M20.5768 5.4847L19.5383 4.88942C19.3564 4.78518 19.2532 4.5859 19.2753 4.38169L19.4302 2.94992C19.4553 2.71795 19.3194 2.49506 19.095 2.41467C18.4798 2.19424 17.839 2.01932 17.1761 1.89475C16.5151 1.77052 15.857 1.70104 15.2068 1.68306C14.969 1.67649 14.7635 1.83512 14.7052 2.06084L14.3538 3.4215C14.2983 3.63641 14.1087 3.78933 13.8837 3.81185C13.2032 3.88 12.539 4.01622 11.8997 4.21465C11.6849 4.28134 11.4466 4.21547 11.3042 4.04106L10.4003 2.93413C10.2507 2.75095 9.99562 2.68602 9.7814 2.7841C8.58449 3.33211 7.4871 4.07004 6.53563 4.96671C6.36535 5.12719 6.33624 5.38321 6.45782 5.5852L7.1926 6.806C7.30835 6.99833 7.28616 7.23929 7.14565 7.41156C6.72961 7.92164 6.36359 8.47634 6.0562 9.06989C5.95421 9.26682 5.74057 9.38507 5.51565 9.35906L4.08766 9.19393C3.85136 9.16661 3.62657 9.29729 3.54777 9.51642C3.33166 10.1174 3.16216 10.7439 3.04409 11.3929C2.92568 12.0438 2.86351 12.6925 2.85419 13.3341C2.8508 13.5674 3.01483 13.7711 3.24514 13.8313L4.63706 14.1955C4.85627 14.2529 5.01425 14.4409 5.04032 14.6618C5.07771 14.9787 5.13059 15.2922 5.19831 15.6014C5.27291 15.942 5.36552 16.2773 5.47527 16.6062C5.54599 16.8182 5.48204 17.0513 5.30632 17.1889L5.03358 17.4025M20.5768 5.4847C20.5107 5.84808 20.4868 6.20981 20.5017 6.56499C20.5095 6.75128 20.4282 6.93146 20.2736 7.03751L18.6542 8.14845M7.74218 21.5118C7.27195 23.015 5.71735 23.9559 4.09546 23.6511C2.34305 23.3218 1.17568 21.6629 1.48807 19.9458C1.78895 18.2919 3.35292 17.1873 5.03358 17.4025M7.74218 21.5118L6.94199 21.9697C6.73791 22.0865 6.47685 22.0546 6.31123 21.8852C5.38579 20.9389 4.62006 19.8512 4.04642 18.6683C3.94374 18.4566 4.00652 18.2069 4.19107 18.0624L5.03358 17.4025M8.68293 15.0199L18.6542 8.14845M18.6542 8.14845C17.9329 7.68506 17.1104 7.34952 16.2144 7.18113C12.5699 6.49624 9.08891 8.83585 8.43926 12.4068C7.7896 15.9777 10.2173 19.4278 13.8618 20.1127C17.5062 20.7976 20.9872 18.4579 21.6369 14.887C21.8274 13.84 21.7533 12.8033 21.4615 11.8437M21.4615 11.8437L11.2745 18.8638" stroke="white" stroke-linecap="round"/>
</svg>
