<svg width="120" height="120" viewBox="0 0 120 120" fill="none" xmlns="http://www.w3.org/2000/svg">
<path d="M41.627 39.9232C41.8343 40.0135 42.0249 40.1383 42.1905 40.2923L47.7556 45.4663C48.2629 45.938 48.1486 46.7712 47.5508 47.1211C39.6403 51.7512 34.3272 60.3379 34.3272 70.1656C34.3272 84.902 45.2646 96.4427 60.001 96.4427C74.7374 96.4427 85.6748 84.902 85.6748 70.1656C85.6748 60.3379 80.3616 51.7512 72.4511 47.1211C71.8533 46.7712 71.739 45.938 72.2463 45.4663L77.8114 40.2923C77.9614 40.1528 78.1318 40.0373 78.3166 39.9497M78.3749 39.9232L85.2013 36.9514C85.9346 36.6322 86.7876 36.7805 87.3701 37.3286L92.8883 42.5205C93.5047 43.1005 93.6893 44.0058 93.3491 44.7808L90.5384 51.1852C90.2779 51.7789 90.3246 52.4601 90.6416 53.0257C91.8969 55.2649 92.9139 57.6559 93.6581 60.1641C93.8295 60.7418 94.236 61.2238 94.786 61.4699L101.395 64.4271C102.115 64.7491 102.578 65.4641 102.578 66.2526V73.9882C102.578 74.7983 102.089 75.5284 101.34 75.8372L94.9478 78.4725C94.3638 78.7132 93.9314 79.2169 93.7579 79.8243C93.0554 82.2843 92.0912 84.634 90.8973 86.8412C90.6128 87.3674 90.5588 87.9905 90.7694 88.5504L93.2373 95.1089C93.5097 95.833 93.3401 96.6492 92.8019 97.2048L87.5424 102.634C86.9862 103.208 86.1416 103.396 85.3946 103.112L78.9177 100.647C78.3451 100.429 77.706 100.489 77.172 100.789C74.9026 102.064 72.4772 103.094 69.9314 103.844C69.3302 104.021 68.8331 104.452 68.5949 105.032L65.9905 111.372C65.6823 112.123 64.9516 112.612 64.1405 112.612H55.8614C55.0503 112.612 54.3196 112.123 54.0114 111.372L51.407 105.032C51.1689 104.452 50.6717 104.021 50.0705 103.844C47.5247 103.094 45.0993 102.064 42.8299 100.789C42.2959 100.489 41.6568 100.429 41.0842 100.647L34.6073 103.112C33.8603 103.396 33.0157 103.208 32.4595 102.634L27.2 97.2048C26.6618 96.6492 26.4922 95.833 26.7646 95.1089L29.2325 88.5504C29.4431 87.9905 29.3891 87.3674 29.1046 86.8412C27.9107 84.634 26.9465 82.2843 26.244 79.8243C26.0705 79.2169 25.6381 78.7132 25.0541 78.4725L18.6616 75.8372C17.9126 75.5284 17.4238 74.7983 17.4238 73.9882V66.2526C17.4238 65.4641 17.8872 64.7491 18.607 64.4271L25.2159 61.4699C25.7659 61.2238 26.1724 60.7418 26.3438 60.1641C27.088 57.6559 28.105 55.2649 29.3603 53.0257C29.6773 52.4601 29.7241 51.7789 29.4635 51.1852L26.6528 44.7808C26.3126 44.0058 26.4972 43.1005 27.1137 42.5205L32.6318 37.3286C33.2143 36.7805 34.0673 36.6322 34.8006 36.9514L41.576 39.901M59.9962 29.4791C60.0127 29.4784 60.0294 29.4817 60.0446 29.4892L64.1535 31.5096L59.9962 29.4791ZM59.9962 29.4791C59.9825 29.4797 59.969 29.483 59.9564 29.4892L51.5877 33.6041C51.5155 33.6396 51.4332 33.5798 51.4446 33.5002L52.7721 24.2695C52.7765 24.2388 52.7664 24.2078 52.7448 24.1856L46.2452 17.4981C46.1892 17.4404 46.2206 17.3436 46.2999 17.3299L55.4889 15.7399C55.5195 15.7346 55.5459 15.7155 55.5603 15.6881L59.912 7.44005C59.9496 7.36894 60.0514 7.36894 60.0889 7.44005L64.4406 15.6881C64.4551 15.7155 64.4815 15.7346 64.512 15.7399L73.7011 17.3299C73.7803 17.3436 73.8118 17.4404 73.7558 17.4981L67.2562 24.1856C67.2346 24.2078 67.2245 24.2388 67.2289 24.2695L68.5564 33.5002C68.5678 33.5798 68.4854 33.6396 68.4133 33.6041L64.2098 31.5373M37.5172 30.8206L34.9518 29.5592C34.924 29.5456 34.8914 29.5456 34.8636 29.5592L29.7329 32.082C29.6608 32.1175 29.5784 32.0576 29.5898 31.978L30.4036 26.3189C30.4081 26.2882 30.398 26.2572 30.3764 26.235L26.3916 22.135C26.3356 22.0773 26.367 21.9805 26.4463 21.9668L32.0799 20.992C32.1105 20.9867 32.1369 20.9675 32.1513 20.9401L34.8193 15.8834C34.8568 15.8123 34.9586 15.8123 34.9962 15.8834L37.6641 20.9401C37.6786 20.9675 37.705 20.9867 37.7355 20.992L43.3692 21.9668C43.4484 21.9805 43.4799 22.0773 43.4238 22.135L39.4391 26.235C39.4174 26.2572 39.4074 26.2882 39.4118 26.3189L40.2256 31.978C40.2371 32.0576 40.1547 32.1175 40.0825 32.082L37.6098 30.8661M88.0068 30.9692L85.1393 29.5592C85.1115 29.5456 85.0789 29.5456 85.0511 29.5592L79.9204 32.082C79.8483 32.1175 79.7659 32.0576 79.7773 31.978L80.5911 26.3189C80.5956 26.2882 80.5855 26.2572 80.5639 26.235L76.5791 22.135C76.5231 22.0773 76.5545 21.9805 76.6338 21.9668L82.2674 20.992C82.298 20.9867 82.3244 20.9675 82.3388 20.9401L85.0068 15.8834C85.0443 15.8123 85.1461 15.8123 85.1837 15.8834L87.8516 20.9401C87.8661 20.9675 87.8925 20.9867 87.923 20.992L93.5567 21.9668C93.6359 21.9805 93.6674 22.0773 93.6113 22.135L89.6265 26.235C89.6049 26.2572 89.5949 26.2882 89.5993 26.3189L90.4131 31.978C90.4246 32.0576 90.3422 32.1175 90.27 32.082L88.0922 31.0112L88.067 30.9988M60.0041 37.6699C54.6073 44.3253 52.6731 53.1721 60.0621 56.2289C67.28 53.0472 65.401 44.3253 60.0041 37.6699ZM44.1785 56.4846C46.3113 64.8174 52.2827 71.6716 59.169 67.5469C60.9255 59.8259 52.7722 56.1193 44.1785 56.4846ZM75.8212 56.4846C73.6884 64.8175 67.717 71.6717 60.8307 67.547C59.0742 59.826 67.2275 56.1194 75.8212 56.4846ZM40.0099 73.9336C43.7234 83.4164 51.7335 90.6055 59.2279 84.7609C60.1733 75.4335 50.0554 72.2593 40.0099 73.9336ZM79.9942 73.9341C76.2806 83.4169 68.2706 90.606 60.7762 84.7614C59.8308 75.434 69.9487 72.2597 79.9942 73.9341Z" stroke="#58C88A" stroke-width="1.8"/>
</svg>
