<svg width="121" height="121" viewBox="0 0 121 121" fill="none" xmlns="http://www.w3.org/2000/svg">
<path d="M85.8687 53.8522C92.8688 55.1677 99.5552 50.6738 100.803 43.8148C100.902 43.2691 100.964 42.7248 100.99 42.1846C101.039 41.1935 99.9077 40.6749 99.081 41.2357L94.4341 44.3884C94.0422 44.6543 93.5329 44.6928 93.0981 44.4893L88.2869 42.2382C87.852 42.0348 87.5577 41.6203 87.5148 41.151L87.0396 35.9581C86.9967 35.4887 87.2116 35.0358 87.6035 34.7699L92.3585 31.5439C93.1776 30.9882 93.0876 29.7834 92.1353 29.4662C91.5714 29.2783 90.9881 29.1264 90.3875 29.0135C83.3874 27.698 76.7011 32.1919 75.4532 39.0509M85.8687 53.8522C84.7058 53.6336 83.6074 53.2685 82.5899 52.7801C82.1205 52.5548 81.5638 52.5723 81.1409 52.8637L77.7045 55.2318M85.8687 53.8522L86.7095 57.4213C86.823 57.9033 87.2004 58.2862 87.6874 58.4133L91.3664 59.3739C91.9531 59.5271 92.371 60.046 92.3618 60.6402C92.3369 62.265 92.1788 63.9075 91.879 65.5556C91.5783 67.2084 91.1465 68.8041 90.5958 70.3345C90.395 70.8927 89.8221 71.2252 89.2202 71.1547L85.5925 70.73C85.0195 70.6629 84.4748 70.9639 84.215 71.4656C83.4288 72.9838 82.492 74.4021 81.4266 75.7055C81.0681 76.1441 81.0114 76.7582 81.3067 77.2481L83.1752 80.349C83.4852 80.8633 83.411 81.5156 82.9769 81.924C80.5589 84.1991 77.7713 86.0718 74.7315 87.463C74.1858 87.7128 73.5361 87.5468 73.1557 87.0797L70.8631 84.2639C70.5009 83.819 69.8938 83.6508 69.3464 83.8207C67.7274 84.3234 66.0453 84.6692 64.3221 84.8435C63.7505 84.9013 63.2687 85.2899 63.1274 85.8359L62.2301 89.3029C62.0817 89.8766 61.5595 90.2798 60.955 90.2635C59.2923 90.2189 57.6095 90.0419 55.9192 89.7242C54.2339 89.4075 52.6049 88.9629 51.0407 88.4028C50.4704 88.1985 50.1243 87.6323 50.1872 87.0426L50.5675 83.4788C50.6274 82.9175 50.3139 82.3795 49.8003 82.118C48.8873 81.6532 48.0086 81.1379 47.1674 80.5765M75.4532 39.0509L72.8107 37.5362C72.3479 37.2709 72.0853 36.7638 72.1415 36.2442L72.5357 32.601C72.5996 32.0107 72.2536 31.4435 71.6826 31.239C70.1172 30.6781 68.4867 30.233 66.7999 29.916C65.118 29.5999 63.4435 29.4231 61.7888 29.3774C61.1837 29.3606 60.6608 29.7643 60.5125 30.3386L59.6185 33.8009C59.4773 34.3478 58.9946 34.7369 58.4222 34.7942C56.6906 34.9676 55.0004 35.3142 53.3738 35.8192C52.8271 35.9889 52.221 35.8212 51.8585 35.3774L49.5584 32.5608C49.1778 32.0947 48.5288 31.9294 47.9836 32.179C44.938 33.5735 42.1456 35.4512 39.7246 37.7328C39.2913 38.1412 39.2172 38.7926 39.5266 39.3066L41.3963 42.413C41.6908 42.9024 41.6344 43.5156 41.2768 43.9539C40.2182 45.2518 39.2868 46.6633 38.5046 48.1736C38.2451 48.6747 37.7015 48.9756 37.1292 48.9094L33.4956 48.4893C32.8943 48.4197 32.3223 48.7523 32.1218 49.3099C31.5719 50.839 31.1406 52.4333 30.8402 54.0846C30.5388 55.7409 30.3806 57.3916 30.3569 59.0243C30.3483 59.6178 30.7657 60.136 31.3517 60.2894L34.8935 61.2162C35.4513 61.3621 35.8533 61.8404 35.9197 62.4027C36.0148 63.209 36.1494 64.0067 36.3217 64.7935M75.4532 39.0509C75.285 39.9755 75.2242 40.896 75.2621 41.7997C75.282 42.2738 75.075 42.7323 74.6816 43.0021L70.561 45.829M42.7947 79.833C41.5982 83.6578 37.6424 86.0521 33.5154 85.2765C29.0563 84.4385 26.0859 80.2172 26.8807 75.848C27.6464 71.6396 31.626 68.829 35.9025 69.3766M42.7947 79.833L43.897 79.2022C44.3915 78.9193 45.0165 78.9828 45.4675 79.3397C46.0153 79.7733 46.5823 80.186 47.1674 80.5765M42.7947 79.833L40.7586 80.9981C40.2393 81.2953 39.575 81.214 39.1536 80.783C36.7987 78.375 34.8503 75.6074 33.3906 72.5975C33.1294 72.0588 33.2891 71.4233 33.7587 71.0556L35.9025 69.3766M35.9025 69.3766L36.5965 68.833C37.0437 68.4828 37.2064 67.8896 37.0264 67.3503C36.7472 66.5134 36.5115 65.6601 36.3217 64.7935M36.3217 64.7935C29.5521 63.8491 23.2213 68.2776 22.0105 74.9328C20.7627 81.7918 25.4258 88.4186 32.426 89.7341C39.1222 90.9925 45.5312 86.935 47.1674 80.5765M45.1885 63.3137L70.561 45.829M70.561 45.829C68.7256 44.6498 66.6327 43.796 64.3527 43.3676C55.0793 41.6248 46.2216 47.5781 44.5685 56.6646C42.9154 65.7511 49.0929 74.5299 58.3664 76.2727C67.6398 78.0154 76.4976 72.0621 78.1506 62.9756C78.6353 60.3114 78.4468 57.6736 77.7045 55.2318M77.7045 55.2318L51.7829 73.0949M50.927 64.5056L74.3272 48.6381C75.0441 48.1519 76.0341 48.3339 76.5384 49.0444C77.0428 49.755 76.8705 50.7251 76.1536 51.2112L52.7533 67.0788M101.887 60.8797C102.346 83.0247 84.7667 101.349 62.6217 101.809C56.7679 101.93 51.1811 100.791 46.1206 98.6408M101.887 60.8797L96.4171 66.6634M101.887 60.8797L107.304 65.9655M18.242 57.8736C17.7824 35.7286 35.3619 17.404 57.5069 16.9444C63.3607 16.8229 68.9475 17.9619 74.008 20.1125M18.242 57.8736L12.8262 52.4578M18.242 57.8736L23.5169 52.8856" stroke="#58C88A" stroke-width="1.8"/>
</svg>
