<svg width="321" height="104" viewBox="0 0 321 104" fill="none" xmlns="http://www.w3.org/2000/svg">
<path d="M101.06 54.295V55.835C100.985 56.1615 100.901 56.4879 100.817 56.8478C99.8796 57.0152 98.9588 57.1742 97.9711 57.35C97.787 58.3794 97.6112 59.3754 97.4354 60.3714C98.3394 60.882 99.143 61.3339 100.014 61.8277C99.7875 62.648 99.5866 63.4096 99.3857 64.1545H96.4142C96.071 65.1086 95.7278 66.0628 95.3763 67.0253C96.1715 67.6781 96.883 68.2808 97.6614 68.9169C97.3099 69.6701 96.975 70.3815 96.6235 71.1264C95.619 70.9339 94.7066 70.7666 93.7273 70.5824C93.2 71.478 92.6894 72.3568 92.1536 73.2691C92.8149 74.0307 93.4427 74.7505 94.1207 75.5289C93.6268 76.2068 93.1665 76.8429 92.681 77.5041C91.7016 77.1359 90.806 76.8095 89.902 76.4747C89.2072 77.32 88.5711 78.0817 87.9433 78.8433C88.4623 79.7221 88.9394 80.5256 89.4249 81.3458C88.8557 81.9652 88.32 82.5427 87.7759 83.1369C86.8216 82.5678 86.0013 82.0824 85.1643 81.5885C84.3523 82.2916 83.6074 82.9361 82.8373 83.5973C83.1805 84.5598 83.5069 85.4553 83.8417 86.3927C83.1386 86.8782 82.5192 87.3134 81.8663 87.757C81.0795 87.0874 80.3512 86.4597 79.6063 85.832C78.6771 86.3844 77.8066 86.9033 76.9361 87.4222C77.1202 88.4182 77.296 89.3305 77.4718 90.3014C76.6766 90.6613 75.9651 90.9793 75.2452 91.3057C74.5756 90.5022 73.9729 89.7908 73.3703 89.0627C72.3574 89.4309 71.4283 89.7657 70.4741 90.1172V93.0717C69.704 93.281 68.9506 93.4735 68.1638 93.6827C67.6532 92.7788 67.1928 91.9669 66.7157 91.1216C65.6443 91.3225 64.6482 91.515 63.6605 91.6991C63.4931 92.7035 63.334 93.6241 63.175 94.5867C62.3128 94.6536 61.5344 94.7122 60.7475 94.7708C60.396 93.7748 60.0863 92.896 59.7933 92.0674H56.6627C56.3447 92.9713 56.035 93.8501 55.6918 94.7959C54.8463 94.7122 54.0595 94.6285 53.2643 94.5532C53.1053 93.5656 52.963 92.67 52.8039 91.6907C51.7744 91.5066 50.7532 91.3308 49.7236 91.1467C49.2297 92.0172 48.7861 92.8123 48.2839 93.6911C47.4971 93.4735 46.7437 93.2726 45.9569 93.055V90.134C44.9524 89.7741 43.9982 89.4309 43.0272 89.0794C42.3911 89.8578 41.8051 90.5776 41.1857 91.3392C40.4072 90.9626 39.7041 90.6194 38.9843 90.2679C39.1768 89.2719 39.3442 88.3847 39.5283 87.4557C38.6076 86.92 37.7287 86.4178 36.8163 85.8906C36.063 86.5267 35.3515 87.1293 34.5897 87.7821C33.9117 87.2967 33.2756 86.8447 32.6143 86.3676C32.9742 85.4051 33.3091 84.5347 33.6439 83.6391C32.8068 82.9444 32.0284 82.2916 31.2332 81.6304C30.371 82.1409 29.5675 82.6096 28.8811 83.0114C28.1947 82.4171 27.6004 81.8982 27.0145 81.396C27.5502 80.4754 28.0189 79.6719 28.4877 78.8768C27.7845 78.0482 27.1484 77.2865 26.4787 76.4998C25.5747 76.8346 24.6958 77.161 23.7667 77.5041C23.2812 76.8178 22.8208 76.1817 22.3605 75.5289C23.0217 74.7505 23.6244 74.0391 24.2438 73.3026C23.6997 72.3652 23.1808 71.4863 22.6785 70.6159C21.7076 70.7917 20.8203 70.9507 19.8409 71.1264C19.4894 70.3732 19.1629 69.6618 18.803 68.9085C19.5815 68.2724 20.3013 67.6865 21.0379 67.0839C20.6445 66.0377 20.2846 65.0668 19.9498 64.1629H17.087C16.8862 63.3929 16.6853 62.6061 16.4844 61.8277C17.3884 61.3088 18.2003 60.8485 19.0039 60.3882C18.7863 59.2917 18.5937 58.2957 18.4096 57.3165C17.4302 57.1491 16.5346 56.9984 15.6055 56.8394C15.5218 55.9773 15.4548 55.199 15.3795 54.4038C16.3672 54.0523 17.2461 53.7426 18.0831 53.4497V50.3194C17.1791 50.0014 16.3002 49.6833 15.3711 49.3569C15.4632 48.5116 15.5385 47.7583 15.6222 46.9716C16.5848 46.7958 17.4721 46.6368 18.4263 46.461C18.6188 45.4483 18.8114 44.4523 19.0123 43.4061C18.1668 42.9123 17.3633 42.4436 16.4844 41.933C16.702 41.1295 16.9113 40.3763 17.1122 39.6146H20C20.3599 38.6437 20.7031 37.6896 21.063 36.7103C20.3013 36.0742 19.5898 35.4716 18.8365 34.8439C19.188 34.099 19.5061 33.4127 19.866 32.651C20.837 32.8352 21.7494 33.0026 22.7036 33.1783C23.2226 32.2744 23.7332 31.3956 24.2606 30.4749C23.6244 29.7384 23.0217 29.027 22.3772 28.2737C22.8711 27.5874 23.3314 26.9513 23.8086 26.2733C24.7544 26.6249 25.6333 26.9429 26.5206 27.261C27.207 26.4491 27.8431 25.6875 28.5211 24.8924C28.0357 24.0638 27.5669 23.2603 27.0312 22.3396C27.6171 21.7872 28.1947 21.2515 28.8057 20.6824C29.6512 21.1678 30.4798 21.6449 31.3001 22.122C32.1372 21.4189 32.8989 20.7828 33.669 20.13C33.3258 19.201 32.9994 18.3305 32.6562 17.4015C33.3509 16.916 33.9871 16.4641 34.6316 16.0038C35.4268 16.6817 36.1383 17.2843 36.8665 17.9037C37.7957 17.3596 38.6746 16.8491 39.5618 16.3385C39.3777 15.3509 39.2019 14.4386 39.0261 13.4677C39.8046 13.1078 40.5161 12.7814 41.2443 12.4466C41.8972 13.2418 42.4915 13.9699 43.0942 14.7065C44.107 14.3214 45.0612 13.9699 46.049 13.5933V10.7057C46.8274 10.4965 47.5556 10.304 48.3341 10.0948C48.8363 10.9903 49.3051 11.8273 49.7822 12.6643C50.8704 12.4634 51.8665 12.2792 52.8458 12.1035C53.0048 11.0991 53.1555 10.2036 53.2894 9.33312C53.5322 9.23269 53.7498 9.15736 53.9591 9.08203C54.5869 9.08203 55.2146 9.08203 55.8424 9.08203C56.1103 9.96922 56.3698 10.8648 56.6293 11.7185H59.8603C60.1281 10.8146 60.3792 9.95248 60.6387 9.08203C61.2665 9.08203 61.8943 9.08203 62.5221 9.08203C62.7565 9.1741 62.9825 9.25779 63.2252 9.35823C63.3759 10.2789 63.5182 11.1745 63.6688 12.1202C64.6984 12.296 65.7029 12.4718 66.7325 12.6559C67.2347 11.7687 67.7034 10.9401 68.1805 10.0864C69.0092 10.3124 69.7458 10.5132 70.4908 10.7225V13.6686C71.4702 14.0285 72.4244 14.38 73.3954 14.7316C74.0483 13.9448 74.6509 13.1999 75.2704 12.4466C76.0572 12.8233 76.7436 13.1497 77.4718 13.4929C77.2876 14.5056 77.1119 15.443 76.9361 16.4055C77.8736 16.9495 78.7525 17.4517 79.6314 17.9623C80.4098 17.2843 81.1381 16.6482 81.8747 16.0038C82.5778 16.5143 83.1972 16.9663 83.8501 17.435C83.4902 18.4059 83.1637 19.3014 82.8289 20.2137C83.6576 20.9 84.4109 21.5277 85.1894 22.1722C86.0516 21.6617 86.8468 21.1846 87.6168 20.7243C88.253 21.3352 88.8389 21.896 89.4249 22.4568C88.9059 23.3189 88.4204 24.114 87.9349 24.9342C88.6213 25.7544 89.2575 26.5077 89.9187 27.3028C90.8646 26.9513 91.7602 26.6165 92.7061 26.2733C93.2 26.9848 93.652 27.6292 94.104 28.2821C93.4176 29.0772 92.7898 29.8054 92.1536 30.5419C92.7145 31.4793 93.2334 32.3497 93.7273 33.1783C94.7652 32.9942 95.6776 32.8268 96.6486 32.651C97.0085 33.4462 97.3266 34.1576 97.6531 34.8774C96.8328 35.5386 96.1129 36.1245 95.3595 36.7354C95.7278 37.7398 96.071 38.6688 96.4226 39.6146H99.3857C99.595 40.4014 99.7959 41.1797 99.9968 41.9581C99.0928 42.4687 98.306 42.9206 97.4354 43.4144C97.6279 44.4523 97.8121 45.465 97.9963 46.4526C99.0342 46.6368 99.9549 46.8042 100.842 46.9632C100.934 47.3649 101.001 47.6662 101.077 47.9676V49.3402C100.181 49.6833 99.2853 50.0349 98.3813 50.378V53.4999C99.2853 53.7677 100.181 54.0356 101.077 54.3034L101.06 54.295ZM92.5052 51.8595C92.5052 32.9272 77.1956 17.594 58.2782 17.5689C39.3358 17.5438 23.9843 32.8854 23.9676 51.8595C23.9509 70.8419 39.2437 86.1584 58.2364 86.1668C77.2207 86.1668 92.5052 70.867 92.5052 51.8678V51.8595Z" fill="#27348B"/>
<path d="M89.6847 62.8069C91.0825 58.8983 91.6852 54.7637 91.4676 50.3863H91.476C90.7728 50.3863 90.1534 50.3528 89.534 50.3863L89.3981 50.3928C84.5134 50.625 79.6367 50.8569 74.7601 50.1603C69.043 49.3401 64.841 46.5781 62.5392 41.1211C60.2456 35.6975 59.2495 29.9978 58.6218 24.206C58.5046 23.1765 58.4125 22.147 58.3121 21.1176C58.1112 21.2264 58.0777 21.3352 58.0609 21.4356C57.6508 24.7165 57.3578 28.0058 56.8054 31.2616C56.1106 35.3795 54.9722 39.3718 52.9298 43.0628C51.2808 46.0425 48.8618 48.0763 45.6391 49.1811C41.8557 50.4868 37.9215 50.629 33.9874 50.629C31.4762 50.629 28.9735 50.4449 26.4623 50.3528C25.9852 50.3361 25.5081 50.3528 24.897 50.3528C24.7547 54.7386 25.2988 58.915 26.7469 62.8404C28.421 62.8404 29.9277 62.8822 31.4344 62.8404C35.854 62.7065 40.2653 62.4972 44.6765 63.0747C48.4767 63.5686 51.5068 65.2174 53.5911 68.5569C55.5916 71.7541 56.8305 75.2024 57.5252 78.8767C57.7763 80.1824 57.9438 81.5048 58.153 82.8272C58.446 81.6722 58.5966 80.5255 58.7975 79.3789C59.509 75.3531 60.8148 71.5616 63.1083 68.13C64.9666 65.3429 67.5531 63.8113 70.8008 63.2338C75.3879 62.4219 80.0084 62.7316 84.6289 62.8069C86.2779 62.832 87.9185 62.8069 89.6847 62.8069Z" fill="#27348B"/>
<path d="M61.4993 63.1075H59.2727C59.1974 62.5049 59.1304 61.8938 59.0467 61.1908L59.0383 61.1992H54.7443C55.506 60.3288 56.0836 59.6592 56.6946 58.9645H59.0719V55.7924C58.126 56.8135 57.3391 57.6672 56.5272 58.546H53.5473C56.2426 55.625 58.7956 52.8462 61.4993 49.9169V63.1075Z" fill="#FFDD00"/>
<path d="M53.6645 61.5925C53.338 62.011 53.0952 62.3207 52.8692 62.6053H49.7889C50.2158 62.1366 50.4753 61.852 50.718 61.5925H53.6645Z" fill="#FFDD00"/>
<path d="M66.4378 52.5533C68.0952 52.4362 69.7693 52.5198 71.6359 52.5198C70.4557 53.5242 69.6605 54.7712 67.9446 54.495C67.3001 54.3946 66.5802 54.5286 65.9356 54.7211C64.6633 55.0977 64.0773 56.1439 64.3284 57.3575C64.521 58.2781 65.5757 58.931 66.9233 58.8724V55.7924H69.3257V61.1155C67.6516 61.1406 66.0361 61.3666 64.4875 60.6635C63.1399 60.0441 62.2945 59.0649 62.1605 57.55C62.0015 55.7673 62.4367 54.2272 64.1192 53.34C64.8307 52.9634 65.6426 52.6119 66.4378 52.5533Z" fill="#FFDD00"/>
<path d="M57.3726 52.478C56.2175 53.5995 55.3553 54.788 53.6227 54.495C53.0869 54.403 52.4758 54.5034 51.9401 54.6708C50.785 55.0224 50.2493 56.0602 50.4418 57.3994C50.5758 58.3284 51.3961 58.9561 52.5763 58.9729C53.6645 58.9896 54.7443 58.9729 56.0501 58.9729C55.347 59.7763 54.761 60.4459 54.1499 61.149C53.1287 61.149 52.1829 61.1908 51.2454 61.149C49.429 61.0653 47.7298 58.8305 47.8721 56.7549C48.0395 54.2858 49.4123 52.8964 52.0825 52.5114C52.3587 52.478 52.6516 52.478 52.9362 52.478H57.3726Z" fill="#FFDD00"/>
<path d="M35.9776 52.478C36.0613 53.4823 36.1367 54.2858 36.2288 55.2902C37.409 54.3277 38.4469 53.4907 39.602 52.5533V61.0903H37.3336V57.9518C35.9416 59.1019 34.7571 60.0777 33.466 61.1438C33.3741 60.0664 33.2906 59.1803 33.1986 58.0856C31.8677 59.1486 30.6707 60.1027 29.3398 61.1657V58.1861C31.4827 56.3448 33.6758 54.4616 35.9776 52.478Z" fill="#FFDD00"/>
<path d="M33.4665 61.149L33.4497 61.1573C33.4551 61.1528 33.4605 61.1483 33.466 61.1438L33.4665 61.149Z" fill="#FFDD00"/>
<path fill-rule="evenodd" clip-rule="evenodd" d="M82.8691 52.4696C85.3887 52.478 87.0711 54.2608 87.046 56.8721C87.0125 59.5253 85.3803 61.1657 82.7771 61.1573C80.1906 61.149 78.5918 59.4918 78.5918 56.8218C78.5918 54.1101 80.2157 52.4613 82.8691 52.4696ZM83.3869 54.7456C82.4411 54.3021 81.4283 54.6954 81.0432 55.6328C80.4824 56.9803 80.9511 58.6543 81.9974 59.0728C83.3935 59.6328 84.5975 58.6818 84.6089 56.8952L84.6091 56.8967V56.8883C84.6091 56.8906 84.6089 56.8929 84.6089 56.8952C84.5502 56.0754 84.3489 55.1973 83.3869 54.7456Z" fill="#FFDD00"/>
<path d="M73.0422 52.4864C73.7788 52.4864 74.5238 52.4278 75.2604 52.4947C76.3318 52.5868 77.2441 53.0137 77.7213 54.0598C78.1314 54.9386 77.8887 56.0937 77.1019 57.0478C77.3949 57.324 77.6878 57.6086 77.9975 57.9016V61.149C76.4489 59.7094 75.0427 58.4037 73.7118 57.1566C74.2726 56.8051 74.8335 56.5289 75.2938 56.1271C75.4696 55.9765 75.4779 55.5329 75.4277 55.2484C75.2854 54.5035 74.6912 54.3193 73.2514 54.562V61.0736H70.7905V54.5788C71.4852 53.9343 72.2554 53.2229 73.0422 52.4864Z" fill="#FFDD00"/>
<path d="M40.9748 61.0903L40.9665 61.082H40.9748V61.0903Z" fill="#FFDD00"/>
<path d="M43.5529 52.5031C45.4195 52.4863 47.2945 52.4864 49.2616 52.6705C48.5584 53.315 47.8637 53.9594 47.1104 54.6541H43.4776C43.4609 55.0056 43.4357 55.2986 43.4106 55.7589H46.9597V57.8764H43.4776V58.9812H46.9681V61.082H40.9748V54.5704C41.6193 53.9761 42.3141 53.34 43.0172 52.7207C43.1595 52.6035 43.3688 52.5031 43.5529 52.5031Z" fill="#FFDD00"/>
<path d="M70.7905 61.082L70.7821 61.0736H70.7905V61.082Z" fill="#FFDD00"/>
<path d="M218.444 74.4473H210.846C210.589 72.3907 210.36 70.3054 210.074 67.906L210.046 67.9349H195.391C197.991 64.9642 199.962 62.679 202.047 60.3082H210.16V49.4825C206.932 52.9673 204.247 55.8809 201.476 58.8801H191.306C200.505 48.9113 209.217 39.428 218.444 29.4307V74.4473Z" fill="#27348B"/>
<path d="M191.706 69.2771C190.592 70.7053 189.763 71.7622 188.992 72.7334H178.48C179.937 71.1338 180.822 70.1626 181.651 69.2771H191.706Z" fill="#27348B"/>
<path d="M235.299 38.4284C240.955 38.0285 246.668 38.3139 253.038 38.3139C249.011 41.7416 246.297 45.9975 240.441 45.055C238.241 44.7122 235.784 45.1695 233.585 45.8264C229.243 47.1118 227.243 50.6821 228.1 54.8238C228.757 57.9658 232.356 60.1939 236.955 59.994V49.4825H245.154V67.6492C239.441 67.7349 233.928 68.5059 228.643 66.1065C224.043 63.9928 221.158 60.6509 220.701 55.4809C220.158 49.3968 221.644 44.141 227.386 41.1132C229.814 39.8278 232.585 38.6284 235.299 38.4284Z" fill="#27348B"/>
<path d="M204.361 38.1712C200.419 41.9988 197.477 46.0546 191.563 45.055C189.735 44.7408 187.649 45.0836 185.821 45.6549C181.879 46.8546 180.051 50.3967 180.708 54.9668C181.165 58.1374 183.965 60.2796 187.992 60.3368C191.706 60.3939 195.391 60.3368 199.848 60.3368C197.448 63.0789 195.448 65.364 193.363 67.7633C189.878 67.7633 186.65 67.9061 183.45 67.7633C177.251 67.4777 171.452 59.851 171.938 52.7672C172.509 44.3409 177.194 39.5993 186.307 38.2854C187.25 38.1711 188.249 38.1712 189.221 38.1712H204.361Z" fill="#27348B"/>
<path d="M131.345 38.1712C131.63 41.5989 131.888 44.341 132.202 47.7686C136.23 44.4838 139.772 41.6275 143.714 38.4284V67.5633H135.972V56.852C131.222 60.7772 127.179 64.1074 122.773 67.7456C122.459 64.0689 122.174 61.0447 121.861 57.3089C117.319 60.9365 113.233 64.1928 108.691 67.8204V57.6517C116.004 51.3676 123.489 44.9409 131.345 38.1712Z" fill="#27348B"/>
<path d="M122.775 67.7633L122.717 67.7919C122.736 67.7765 122.755 67.7609 122.773 67.7456L122.775 67.7633Z" fill="#27348B"/>
<path fill-rule="evenodd" clip-rule="evenodd" d="M291.375 38.1427C299.974 38.1713 305.715 44.2554 305.63 53.1674C305.515 62.222 299.945 67.8204 291.061 67.7919C282.234 67.7633 276.778 62.1077 276.778 52.9958C276.778 43.7411 282.319 38.1141 291.375 38.1427ZM293.142 45.9102C289.914 44.3964 286.458 45.7388 285.144 48.9378C283.23 53.5365 284.829 59.2495 288.4 60.6777C293.165 62.5891 297.273 59.3435 297.312 53.2461L297.313 53.2512V53.2226C297.313 53.2305 297.313 53.2383 297.312 53.2461C297.112 50.4482 296.425 47.4518 293.142 45.9102Z" fill="#27348B"/>
<path d="M257.838 38.1998C260.352 38.1998 262.894 37.9998 265.408 38.2283C269.065 38.5425 272.178 39.9993 273.806 43.5697C275.206 46.5689 274.378 50.5107 271.693 53.767C272.693 54.7096 273.692 55.681 274.749 56.6807V67.7633C269.464 62.8504 264.665 58.3943 260.123 54.1383C262.037 52.9386 263.951 51.996 265.522 50.6249C266.122 50.1108 266.151 48.5971 265.979 47.6259C265.494 45.0837 263.465 44.4552 258.552 45.2836V67.5062H250.153V45.3407C252.524 43.1412 255.153 40.7134 257.838 38.1998Z" fill="#27348B"/>
<path d="M148.399 67.5633L148.371 67.5347H148.399V67.5633Z" fill="#27348B"/>
<path d="M157.198 38.2569C163.568 38.1997 169.967 38.1999 176.68 38.8282C174.28 41.0276 171.909 43.227 169.338 45.5978H156.94C156.883 46.7975 156.798 47.7973 156.712 49.3683H168.824V56.5948H156.94V60.3653H168.853V67.5347H148.399V45.3121C150.599 43.2841 152.97 41.1132 155.369 38.9995C155.855 38.5996 156.569 38.2569 157.198 38.2569Z" fill="#27348B"/>
<path d="M250.153 67.5347L250.125 67.5062H250.153V67.5347Z" fill="#27348B"/>
</svg>
