<svg width="321" height="104" viewBox="0 0 321 104" fill="none" xmlns="http://www.w3.org/2000/svg">
<path d="M134.12 33.4232C141.656 27.2429 148.681 27.6431 154.683 34.5792C154.861 34.4013 155.084 34.2679 155.217 34.0679C159.663 27.5319 171.268 28.0655 175.825 32.6228C178.271 35.0683 179.382 38.025 179.449 41.3374C179.56 48.0068 179.516 54.6761 179.516 61.3454C179.516 63.1462 179.004 63.6575 177.226 63.6575C175.047 63.6575 172.869 63.6575 170.69 63.6797C169.512 63.6797 168.867 63.0795 168.711 61.9679C168.622 61.3899 168.622 60.8119 168.622 60.2339C168.622 54.8984 168.622 49.563 168.6 44.2275C168.6 42.0044 167.778 40.1814 165.755 39.2033C163.487 38.1139 161.175 38.2251 159.085 39.6923C157.373 40.8928 156.84 42.7158 156.84 44.7166C156.84 50.0965 156.84 55.4764 156.84 60.8564C156.84 63.2573 156.44 63.6575 154.083 63.6575C152.127 63.6575 150.171 63.6575 148.214 63.6575C146.414 63.6575 145.813 63.0795 145.813 61.2565C145.813 55.6987 145.858 50.141 145.813 44.5832C145.813 42.2711 145.213 40.1814 142.879 39.0476C139.122 37.2469 134.742 39.9146 134.698 44.0719C134.653 49.7186 134.698 55.3653 134.698 61.012C134.698 63.0795 134.164 63.6353 132.119 63.6575C129.94 63.6575 127.762 63.6575 125.583 63.6575C124.116 63.6575 123.471 63.0128 123.471 61.5233C123.471 51.5193 123.449 41.5153 123.471 31.5113C123.471 30.0663 124.205 29.3549 125.739 29.3104C127.828 29.2437 129.918 29.2437 132.008 29.2659C133.497 29.2659 134.164 30.0218 134.186 31.5113C134.186 32.0893 134.186 32.6673 134.186 33.4232H134.12Z" fill="#212121"/>
<path d="M268.307 33.7789C272.886 27.6208 282.846 28.3545 287.07 31.9337C289.871 34.3124 291.116 37.447 291.227 40.9595C291.427 47.8512 291.405 54.7206 291.427 61.6122C291.427 63.0128 290.805 63.6353 289.404 63.6575C287.137 63.6797 284.869 63.7019 282.601 63.6575C280.778 63.6575 280.245 63.1017 280.245 61.2343C280.223 56.3434 280.245 51.4526 280.223 46.5617C280.223 45.3168 280.223 44.0496 279.978 42.8492C279.356 39.759 276.843 38.1584 273.509 38.5585C270.552 38.892 268.351 41.2485 268.329 44.183C268.284 49.7853 268.329 55.3875 268.329 60.9897C268.329 63.1239 267.795 63.6575 265.661 63.6575C263.483 63.6575 261.304 63.6575 259.125 63.6575C257.213 63.6575 256.591 63.035 256.591 61.1009C256.591 51.9417 256.591 42.7825 256.591 33.6455C256.591 28.4878 256.591 23.3302 256.591 18.1726C256.591 16.1273 257.369 15.3493 259.37 15.327C261.415 15.327 263.46 15.327 265.506 15.327C267.595 15.327 268.307 16.0607 268.307 18.1281C268.307 22.9301 268.307 27.732 268.307 32.5339C268.307 32.8229 268.307 33.1342 268.307 33.7566V33.7789Z" fill="#212121"/>
<path d="M200.102 29.177C207.638 29.2437 212.996 31 216.842 36.0242C223.822 45.2057 220.777 60.8119 205.971 63.8131C201.436 64.7468 196.856 64.4133 192.543 62.5015C185.585 59.4113 181.761 52.0528 182.85 44.4053C183.539 39.5367 185.585 35.5351 189.542 32.6673C193.099 30.0885 197.167 29.0659 200.102 29.177ZM194.099 46.6729C194.077 51.4971 196.9 54.7206 201.258 54.8317C206.482 54.9651 209.883 50.8079 208.972 45.339C208.305 41.3374 205.237 38.6475 201.591 38.5808C197.567 38.5141 193.921 41.5375 194.099 46.6729Z" fill="#212121"/>
<path d="M236.783 64.2799C232.315 64.2799 228.046 63.4352 224.089 61.3454C222.11 60.3006 221.933 59.5892 223 57.6328C223.622 56.4991 224.267 55.3875 224.934 54.2982C226.001 52.5197 226.69 52.3196 228.513 53.2533C231.67 54.8984 235.049 55.721 238.606 55.5876C239.517 55.5431 240.473 55.3208 241.274 54.8984C241.763 54.6539 242.319 53.898 242.319 53.3867C242.319 52.8754 241.741 52.0751 241.251 51.9195C239.206 51.2747 237.094 50.8301 235.005 50.2521C232.759 49.6296 230.447 49.1406 228.313 48.2291C221.11 45.0945 221.821 35.8464 226.935 32.1338C229.469 30.3108 232.337 29.466 235.36 29.2437C240.562 28.888 245.609 29.6883 250.255 32.2227C252.545 33.4676 252.7 33.9567 251.656 36.3132C251.233 37.2469 250.744 38.1362 250.3 39.0476C249.521 40.6038 248.988 40.6705 247.343 40.0703C244.786 39.1366 242.207 38.2028 239.562 37.6248C238.206 37.3358 236.672 37.6915 235.271 38.0028C234.738 38.1139 234.049 38.9587 234.049 39.47C234.049 39.9813 234.716 40.8039 235.249 40.9595C237.606 41.6709 240.029 42.1378 242.407 42.7825C244.364 43.316 246.32 43.8496 248.188 44.6276C254.279 47.1398 254.724 54.9873 250.9 59.278C248.477 61.9901 245.298 63.2573 241.829 63.8131C240.184 64.0799 238.473 64.1021 236.805 64.2355L236.783 64.2799Z" fill="#212121"/>
<path d="M178.537 86.7778C177.293 85.066 177.315 84.8437 179.182 82.5984C177.648 81.1756 177.115 79.3971 177.937 77.463C178.782 75.4844 180.494 74.6174 182.606 74.484C185.051 74.3284 187.519 75.7068 190.075 73.8838V76.596C189.542 76.6627 189.008 76.7072 188.43 76.7738C188.541 77.0629 188.653 77.2852 188.742 77.5297C189.764 80.4642 188.364 83.0208 185.274 83.5988C184.073 83.8211 182.828 83.6655 181.605 83.71C181.316 83.71 181.027 83.8878 180.716 83.9767C180.872 84.3102 180.961 84.7771 181.227 84.9104C181.628 85.1328 182.139 85.1772 182.628 85.2217C183.784 85.3328 184.918 85.3551 186.074 85.4884C188.097 85.7108 189.32 86.6667 189.653 88.2896C190.009 90.0458 189.231 91.9355 187.43 92.6469C185.918 93.2471 184.206 93.5139 182.561 93.6028C181.405 93.6695 180.16 93.3805 179.093 92.9359C176.492 91.8688 176.07 89.4234 178.004 87.4003C178.182 87.2225 178.36 87.0224 178.582 86.7556L178.537 86.7778ZM183.273 76.9517C181.739 76.9517 180.827 77.7298 180.783 79.0859C180.738 80.5531 181.761 81.5313 183.317 81.5091C184.762 81.5091 185.874 80.4864 185.852 79.197C185.852 77.8409 184.851 76.9739 183.273 76.9739V76.9517ZM182.784 87.8005C182.784 87.8005 182.784 87.8449 182.784 87.8894C182.339 87.8894 181.828 87.756 181.472 87.9116C180.938 88.1784 180.272 88.5786 180.116 89.0677C179.983 89.5123 180.316 90.2904 180.694 90.6461C181.561 91.4464 184.762 91.4464 185.651 90.6683C186.052 90.3126 186.363 89.6234 186.341 89.0899C186.341 88.7786 185.696 88.3118 185.274 88.1784C184.473 87.9339 183.628 87.9116 182.806 87.7782L182.784 87.8005Z" fill="#212121"/>
<path d="M292.45 82.3094H283.068C283.402 85.0883 286.336 86.4888 288.648 84.7993C290.182 83.6877 290.96 84.2657 291.894 85.3106C291.183 87.7116 287.025 88.8898 283.957 87.8449C280.512 86.6889 278.755 83.0875 279.778 79.2193C280.689 75.729 284.002 73.8393 287.87 74.5952C291.071 75.2177 292.961 78.33 292.45 82.3316V82.3094ZM283.068 79.8417H289.337C288.648 77.6631 287.715 77.0184 285.691 77.2185C284.246 77.3519 283.29 78.3078 283.068 79.8417Z" fill="#212121"/>
<path d="M163.487 77.3074C164.021 75.1732 167.933 73.7949 171.246 74.6841C173.758 75.3511 174.914 76.8628 174.936 79.486C174.936 80.3753 174.936 81.2645 174.936 82.1538C174.936 84.0212 174.936 85.8664 174.936 87.8227H172.068C172.024 87.4225 171.979 87.0446 171.913 86.5111C171.601 86.6889 171.335 86.8001 171.135 86.9779C169.378 88.4229 167.4 88.4896 165.377 87.8449C163.909 87.3781 163.154 86.2221 162.998 84.7771C162.842 83.332 163.331 82.0871 164.576 81.2201C166.266 80.0196 168.289 80.1752 170.201 79.9084C170.712 79.8417 171.179 79.5972 171.668 79.4193C171.335 78.8191 171.157 78.0188 170.668 77.6853C169.423 76.8628 168.022 77.0851 166.755 77.7742C165.221 78.619 164.821 78.5968 163.509 77.3074H163.487ZM171.601 81.8425C170.112 82.1093 168.711 82.2427 167.4 82.6651C166.933 82.8207 166.422 83.6433 166.444 84.1546C166.444 84.6437 167.066 85.3106 167.555 85.5107C169.801 86.3999 171.735 84.8215 171.601 81.8425Z" fill="#212121"/>
<path d="M225.623 74.7286C225.623 77.2629 225.579 79.775 225.623 82.2872C225.667 84.4214 226.823 85.5107 228.646 85.2217C230.047 84.9994 230.914 83.91 230.936 82.2649C230.958 79.775 230.936 77.3074 230.936 74.7508H234.338V87.8227H231.159C231.114 87.4448 231.07 87.0224 231.003 86.4221C229.802 87.6671 228.446 88.2451 226.823 88.2006C224.045 88.1117 222.311 86.3999 222.155 83.1542C222.022 80.4197 222.133 77.6631 222.133 74.7286H225.623Z" fill="#212121"/>
<path d="M258.169 74.7286C258.169 75.2177 258.169 75.7512 258.169 76.307C258.169 78.3522 258.147 80.3975 258.169 82.4428C258.214 84.3102 259.17 85.2661 260.815 85.2439C262.527 85.2217 263.483 84.1768 263.483 82.3316C263.483 79.8417 263.483 77.3741 263.483 74.773H266.906V87.8227H263.838C263.794 87.4448 263.749 87.0669 263.683 86.5778C263.46 86.7112 263.282 86.8223 263.149 86.9335C260.882 88.8453 257.614 88.6897 255.902 86.5555C255.479 86.022 255.035 85.3106 255.013 84.6659C254.924 81.3979 254.968 78.1077 254.968 74.7286H258.169Z" fill="#212121"/>
<path d="M220.265 78.0855C219.687 78.3523 219.176 78.5968 218.642 78.8413C218.02 79.1303 217.553 79.1303 217.064 78.4856C216.308 77.5075 215.286 77.1518 214.018 77.4852C212.64 77.8409 211.84 78.708 211.551 79.9751C211.373 80.8199 211.373 81.7758 211.551 82.6206C212.084 85.2439 215.152 86.1554 217.153 84.3324C217.375 84.1323 217.575 83.8878 217.82 83.6433C218.642 84.0212 219.421 84.3991 220.199 84.7771C219.243 87.3559 216.442 88.7564 213.329 88.1562C210.083 87.5337 207.794 84.7326 207.994 80.8421C208.149 77.6409 210.328 75.1065 213.574 74.5507C216.797 74.0172 219.621 75.5511 220.265 78.0855Z" fill="#212121"/>
<path d="M248.899 74.6841H252.189V77.4852H249.099C249.099 79.775 249.032 81.9759 249.166 84.1768C249.188 84.5547 250.055 84.9994 250.611 85.1994C251.011 85.3328 251.544 85.1105 252.189 85.0216C252.234 85.7775 252.3 86.4888 252.256 87.2225C252.256 87.4448 251.989 87.7782 251.767 87.8894C248.454 89.3567 245.631 87.5115 245.609 83.91C245.609 81.8425 245.609 79.7528 245.609 77.5964C244.986 77.5519 244.453 77.5075 243.853 77.4852V74.7286H245.587V71.2161C246.72 71.1494 247.721 71.0827 248.899 71.016V74.7286V74.6841Z" fill="#212121"/>
<path d="M237.628 70.6158H240.918C240.918 73.4169 240.918 76.1514 240.918 78.908C240.918 80.3753 240.874 81.8425 240.94 83.3098C241.029 85.2439 241.185 85.3551 243.052 85.1994C243.097 85.2661 243.186 85.3328 243.186 85.4218C243.408 87.6671 243.319 87.8894 241.896 88.1339C240.051 88.423 238.139 88.045 237.85 86.1998C237.806 85.8886 237.65 85.5996 237.65 85.3106C237.65 80.4642 237.65 75.6401 237.65 70.6381L237.628 70.6158Z" fill="#212121"/>
<path d="M195.322 74.7286V76.0847C196.434 75.5289 197.567 74.8397 198.768 74.3951C199.613 74.0839 200.391 74.2617 200.146 75.5289C200.035 76.1291 200.057 76.7516 200.035 77.3963C199.501 77.463 199.012 77.4852 198.545 77.5964C196.322 78.0632 195.5 79.0859 195.478 81.3757C195.478 83.421 195.478 85.444 195.478 87.4893C195.478 87.5782 195.433 87.6449 195.366 87.8227H192.098V74.7286H195.344H195.322Z" fill="#212121"/>
<path d="M269.974 87.8449V74.8842C272.508 74.1506 273.309 74.484 273.42 76.4404C274.576 74.8397 276.043 74.195 277.933 74.4173V77.4852C277.555 77.4852 277.266 77.4852 276.955 77.4852C274.665 77.6631 273.398 78.997 273.375 81.2645C273.375 83.421 273.375 85.5774 273.375 87.8227H269.974V87.8449Z" fill="#212121"/>
<path d="M202.236 87.8227V74.7286C202.614 74.7286 202.903 74.7286 203.214 74.7286C204.815 74.7582 205.615 75.603 205.615 77.2629C205.615 80.7532 205.615 84.2435 205.615 87.8227H202.236Z" fill="#212121"/>
<path d="M205.904 71.4828C205.948 72.5055 205.193 73.2391 204.037 73.2613C202.814 73.2836 201.947 72.6166 201.902 71.594C201.858 70.6158 202.68 69.7933 203.725 69.7266C205.015 69.6599 205.86 70.3268 205.904 71.4828Z" fill="#212121"/>
<path d="M128.095 85.444C125.605 85.444 123.36 85.444 121.114 85.444C116.579 85.444 112.044 85.4218 107.509 85.4662C106.375 85.4662 105.464 85.1772 104.575 84.488C94.1926 76.2848 85.5669 66.6365 80.0091 54.4983C77.3414 48.6515 75.6518 42.5824 75.1627 36.1354C74.807 31.3557 74.9182 26.6427 76.5411 22.0853C78.9198 15.3937 83.5883 11.281 90.6801 10.4362C96.06 9.79148 101.129 10.8586 104.797 15.2603C108.02 19.1285 108.332 23.7304 106.82 28.3322C105.775 31.5113 104.152 34.4903 102.885 37.6026C102.285 39.0476 101.773 40.5816 101.529 42.1155C101.084 44.6943 103.485 46.2061 105.464 46.3617C108.554 46.6284 111.066 45.3168 113.4 43.5161C113.912 43.1159 114.401 42.6935 115.068 42.16C112.489 47.9401 107.598 51.9195 102.218 51.8083C97.0382 51.7194 93.3923 47.2731 94.5927 42.2489C95.5042 38.4696 96.7714 34.7793 97.7496 31.0222C98.4387 28.3545 98.8611 25.62 98.083 22.8856C97.3049 20.0845 94.8595 17.9503 92.1473 17.6613C88.746 17.2834 86.1449 18.5061 84.4776 21.5073C82.6546 24.753 82.4768 28.31 82.9881 31.867C84.4109 41.3819 89.2795 49.1628 95.5487 56.1878C101.596 62.9683 108.576 68.7929 115.468 74.6619C119.492 78.0855 123.56 81.4424 127.606 84.8437C127.717 84.9549 127.806 85.0883 128.095 85.4218V85.444Z" fill="#FF6B41"/>
<path d="M72.1171 16.9944C71.2945 20.3068 70.3164 23.6415 69.6939 27.0428C68.5823 33.1119 68.5601 39.2255 69.6494 45.2946C72.2949 60.2117 79.809 72.5277 90.0798 83.332C90.6578 83.9323 91.2359 84.5325 92.0806 85.4218C91.058 85.4218 90.3911 85.4218 89.7019 85.4218C81.6542 85.4218 73.6066 85.3995 65.5811 85.4662C64.2028 85.4662 63.5136 84.9549 62.9356 83.7989C59.6454 77.2629 57.7113 70.3268 56.7998 63.0572C55.466 52.453 56.6665 42.2044 60.8459 32.3783C63.2691 26.6649 66.8038 21.7074 71.4501 17.5724C71.6725 17.3723 71.917 17.1722 72.1615 16.9721C72.2505 16.9721 72.1838 16.9499 72.1615 16.9721L72.1171 16.9944Z" fill="#FF6B41"/>
<path d="M57.8447 22.9968C45.084 42.738 42.4163 63.4129 51.7978 85.3773C51.3087 85.3995 50.8419 85.444 50.375 85.444C44.3726 85.444 38.3702 85.444 32.3678 85.4884C31.323 85.4884 30.7894 85.155 30.5893 84.1768C29.9002 80.6643 28.8775 77.1962 28.6108 73.6615C27.6104 60.2117 31.9232 48.5181 40.66 38.2918C45.6843 32.4228 51.1976 27.154 57.8447 23.019V22.9968Z" fill="#FF6B41"/>
</svg>
