<svg width="321" height="104" viewBox="0 0 321 104" fill="none" xmlns="http://www.w3.org/2000/svg">
<path d="M295.331 46.3438C292.616 52.1818 289.901 57.8296 287.348 63.5317C286.724 64.9437 286.018 65.6497 284.443 65.3782C284.036 65.2967 283.574 65.3782 283.139 65.3782C281.157 65.3238 281.537 65.704 281.157 63.749C280.153 58.617 279.175 53.4851 278.225 48.3532C278.116 47.7015 278.035 47.0498 277.899 46.2624C277.763 46.4525 277.655 46.5068 277.655 46.5882C276.514 50.8241 275.401 55.06 274.26 59.2959C273.772 61.0608 273.256 62.8258 272.74 64.5907C272.631 64.9709 272.577 65.3782 272.007 65.351C269.672 65.351 267.336 65.351 265.028 65.351C264.92 65.351 264.811 65.2967 264.621 65.2424C265.164 63.396 265.707 61.6039 266.25 59.7846C267.744 54.8971 269.237 50.0095 270.731 45.122C271.735 41.8636 272.74 38.5781 273.772 35.3197C273.853 35.0482 274.179 34.668 274.396 34.668C277.274 34.6137 280.153 34.6409 283.112 34.6409C284.036 40.0986 284.959 45.5021 285.882 51.0413C286.153 50.3082 286.316 49.6565 286.588 49.032C288.652 44.416 290.715 39.7999 292.806 35.2111C292.915 34.9667 293.268 34.668 293.539 34.6409C296.309 34.6137 299.051 34.6409 301.821 34.6409C301.902 34.6409 301.984 34.6952 302.147 34.7495C302.391 44.8776 302.635 55.0328 302.88 65.351C302.147 65.351 301.522 65.351 300.898 65.351C299.377 65.351 297.856 65.3239 296.336 65.351C295.576 65.351 295.358 65.1609 295.358 64.3735C295.386 58.5627 295.358 52.752 295.386 46.9684C295.386 46.8054 295.386 46.6425 295.358 46.3167L295.331 46.3438Z" fill="#004359"/>
<path d="M224.326 54.8699H217.32C217.402 54.2725 217.456 53.7838 217.51 53.3222C217.701 51.9917 217.918 50.6612 218.135 49.3307C218.189 48.9234 218.298 48.6519 218.814 48.6519C223.62 48.6519 228.426 48.6519 233.232 48.6519C233.341 48.6519 233.449 48.7062 233.612 48.7333C233.748 50.6612 233.422 52.5347 232.933 54.354C231.793 58.7528 229.485 62.3099 225.331 64.4007C221.964 66.1113 218.379 66.4371 214.659 66.0027C211.944 65.6768 209.392 64.8623 207.138 63.2602C203.608 60.7621 201.816 57.2051 201.599 52.9963C201.219 45.8551 203.662 39.9086 210.043 36.27C215.555 33.1203 221.448 32.9574 227.231 35.8356C229.512 36.976 231.196 38.8224 232.662 41.0761C230.49 42.5424 228.372 44.0087 226.227 45.4749C226.091 45.312 225.982 45.2306 225.901 45.0948C222.724 39.6642 214.741 40.5331 211.808 45.5293C210.288 48.1088 209.908 50.8784 210.586 53.7566C211.401 57.2322 214.442 59.3502 218.026 59.1058C220.28 58.9429 222.317 58.2912 223.62 56.2547C223.864 55.8746 224.027 55.4673 224.326 54.8699Z" fill="#004359"/>
<path d="M133.988 49.3578C134.802 49.7108 135.725 50.0095 136.513 50.4983C138.984 52.0188 139.717 54.4083 139.445 57.1236C139.011 61.6582 136.296 64.455 131.761 65.0523C130.078 65.2696 128.367 65.3239 126.683 65.351C123.316 65.4053 119.949 65.351 116.582 65.351C116.202 65.351 115.795 65.351 115.306 65.351C115.605 63.4774 115.876 61.7396 116.148 60.029C117.261 53.0235 118.375 46.018 119.488 39.0125C119.678 37.7635 119.895 36.5144 120.058 35.2654C120.112 34.8309 120.275 34.6137 120.764 34.6137C124.946 34.6952 129.154 34.668 133.336 34.8581C136.676 35.021 138.984 37.0846 139.771 40.2616C140.504 43.2755 139.255 46.5882 136.703 48.1631C135.861 48.679 134.884 48.9777 133.96 49.3578H133.988ZM124.24 59.4045C125.624 59.323 126.846 59.2687 128.068 59.1873C130.946 58.9429 131.68 57.0422 131.435 54.5984C131.327 53.4851 130.702 52.6705 129.616 52.4804C128.394 52.2632 127.118 52.2089 125.869 52.1275C125.679 52.1275 125.326 52.399 125.299 52.5891C124.946 54.7885 124.62 57.015 124.24 59.4316V59.4045ZM126.276 46.371C127.715 46.6697 129.969 46.371 130.919 45.8008C132.168 45.0405 132.304 43.8458 132.195 42.5696C132.114 41.5377 131.489 40.8589 130.322 40.6145C129.453 40.4516 128.557 40.4245 127.688 40.4245C127.498 40.4245 127.199 40.7232 127.172 40.9132C126.873 42.7053 126.602 44.5246 126.303 46.371H126.276Z" fill="#004359"/>
<path d="M198.992 65.351C198.34 65.351 197.879 65.351 197.444 65.351C195.136 65.351 192.855 65.351 190.547 65.351C189.869 65.351 189.516 65.1066 189.217 64.5093C187.506 61.0337 185.741 57.5852 183.976 54.1096C183.922 54.001 183.841 53.8924 183.651 53.5937C183.379 55.3315 183.107 56.9064 182.863 58.4813C182.537 60.4906 182.211 62.4999 181.913 64.5364C181.831 65.1066 181.614 65.351 180.99 65.351C178.6 65.3239 176.238 65.351 173.767 65.351C173.767 64.998 173.74 64.7265 173.767 64.4549C175.26 54.9785 176.781 45.5021 178.301 36.0257C178.329 35.7813 178.383 35.5098 178.383 35.2654C178.383 34.8038 178.627 34.6137 179.089 34.6137C183.406 34.6952 187.724 34.5051 192.014 34.8852C198.829 35.5098 200.974 40.9675 199.779 46.0452C198.883 49.8737 196.277 51.9645 192.611 52.9692C192.312 53.0507 192.014 53.1321 191.715 53.2407C191.715 53.2407 191.715 53.295 191.606 53.4036C193.996 57.2865 196.413 61.1966 198.965 65.351H198.992ZM184.411 48.7876C186.149 48.6519 187.751 48.6247 189.298 48.326C190.493 48.1088 191.335 47.2399 191.824 46.0723C192.855 43.5742 191.769 41.3205 189.135 40.7232C188.321 40.5331 187.425 40.5874 186.583 40.5059C185.959 40.4516 185.606 40.6145 185.606 41.3205C185.606 41.8093 185.443 42.2709 185.361 42.7596C185.063 44.6875 184.764 46.5882 184.411 48.7605V48.7876Z" fill="#004359"/>
<path d="M263.209 65.351C261.824 65.351 260.494 65.351 259.19 65.351C258.159 65.351 257.127 65.2967 256.095 65.351C255.226 65.4325 254.873 65.0795 254.737 64.2649C254.493 62.9344 254.167 61.631 253.923 60.3005C253.814 59.7303 253.597 59.4859 252.972 59.5131C249.877 59.5402 246.754 59.5131 243.659 59.5131C243.116 59.5131 242.817 59.7032 242.6 60.1648C241.894 61.631 241.106 63.0973 240.428 64.5636C240.156 65.1338 239.857 65.3782 239.206 65.3782C236.816 65.351 234.427 65.3782 232.037 65.3782C231.793 65.3782 231.549 65.3239 231.141 65.2967C231.902 63.749 232.635 62.2827 233.368 60.8436C237.549 52.4804 241.758 44.0901 245.94 35.727C246.347 34.9395 246.809 34.6137 247.705 34.6409C250.447 34.6952 253.162 34.668 255.905 34.6409C256.557 34.6409 256.855 34.7766 256.991 35.4826C258.104 40.8861 259.272 46.2624 260.412 51.6659C261.363 56.0918 262.286 60.5449 263.236 64.9709C263.236 65.0523 263.236 65.1338 263.263 65.3782L263.209 65.351ZM246.048 52.6705H252.511C251.859 49.1678 251.235 45.7736 250.61 42.461C249.144 45.7736 247.623 49.1678 246.048 52.6705Z" fill="#004359"/>
<path d="M139.038 65.351C139.771 63.8847 140.396 62.6085 141.047 61.3595C145.392 52.6977 149.709 44.063 154.027 35.4011C154.325 34.8309 154.651 34.6137 155.276 34.6137C158.181 34.6409 161.086 34.6409 163.992 34.6137C164.535 34.6137 164.806 34.7766 164.915 35.3468C166.951 45.0405 169.042 54.707 171.079 64.4007C171.133 64.6722 171.16 64.9709 171.187 65.3782C170.753 65.3782 170.373 65.3782 170.02 65.3782C167.956 65.3782 165.892 65.3782 163.802 65.3782C163.15 65.3782 162.851 65.2424 162.716 64.5093C162.471 63.0701 162.091 61.6582 161.819 60.2191C161.711 59.7032 161.494 59.5131 160.951 59.5131C157.801 59.5131 154.624 59.5131 151.474 59.5131C150.931 59.5131 150.714 59.7575 150.524 60.1919C149.764 61.7396 148.976 63.2874 148.189 64.8079C148.053 65.0523 147.754 65.351 147.537 65.351C144.767 65.3782 142.025 65.351 139.038 65.351ZM154.027 52.6705H160.489C159.837 49.2221 159.213 45.8551 158.588 42.5153C157.095 45.8551 155.574 49.1949 154.027 52.6705Z" fill="#004359"/>
<path d="M223.891 77.1898C223.837 76.0765 224.434 76.0222 225.14 76.0765C225.738 76.1308 226.335 76.0765 227.041 76.0765C226.797 78.0043 226.552 79.8508 226.308 81.67C226.118 83.0005 225.928 84.331 225.656 85.6615C225.331 87.2907 224.299 88.2954 222.697 88.6484C221.04 89.0013 219.384 89.0557 217.809 88.3225C216.995 87.9424 216.37 87.3722 216.37 86.2589C217.402 86.2589 218.406 86.2589 219.384 86.2589C219.547 86.2589 219.71 86.4218 219.873 86.5576C220.715 87.1821 221.773 86.9377 222.154 85.9602C222.371 85.4443 222.452 84.8741 222.561 84.4125C221.692 84.6569 220.932 85.0098 220.144 85.037C218.298 85.1456 217.076 84.1138 216.723 82.3217C216.451 80.9097 216.614 79.5249 217.266 78.2216C218.406 75.8593 221.475 74.7188 223.891 77.2169V77.1898ZM223.267 80.1766C223.267 80.1766 223.376 80.0951 223.43 80.0408C223.104 79.5521 222.887 78.9004 222.425 78.6017C222.072 78.3845 221.176 78.4116 220.932 78.6832C220.47 79.1991 220.199 79.9322 220.063 80.6382C219.9 81.6157 220.362 82.2945 221.095 82.4575C221.936 82.6475 222.724 82.1588 223.05 81.1813C223.158 80.8554 223.185 80.5024 223.24 80.1766H223.267Z" fill="#004359"/>
<path d="M203.255 85.1456C204.477 82.6204 205.617 80.3124 206.758 78.0043C207.464 76.5381 208.224 75.0718 208.903 73.6055C209.174 73.0082 209.527 72.7909 210.152 72.8181C211.157 72.8453 212.161 72.8181 213.193 72.8181C214.008 76.9454 214.822 80.964 215.664 85.1185C214.469 85.1185 213.383 85.1456 212.324 85.0913C212.161 85.0913 211.917 84.6025 211.89 84.331C211.835 83.8151 211.618 83.6522 211.129 83.6522C210.288 83.6793 209.473 83.7065 208.631 83.6522C208.007 83.5979 207.654 83.8151 207.518 84.4396C207.382 85.0098 207.057 85.1999 206.459 85.1728C205.454 85.1184 204.477 85.1728 203.255 85.1728V85.1456ZM210.804 76.9997C210.804 76.9997 210.641 76.9997 210.559 76.9997C209.989 78.3573 209.446 79.715 208.821 81.1541H211.374C211.157 79.715 210.967 78.3573 210.776 77.0268L210.804 76.9997Z" fill="#004359"/>
<path d="M257.833 85.1728V84.1138C257.534 84.331 257.344 84.4668 257.154 84.6025C256.176 85.3628 255.063 85.5529 253.896 85.3085C252.538 85.037 251.615 83.7065 251.778 82.1588C251.968 80.3123 252.294 78.4659 252.592 76.6195C252.619 76.4023 252.918 76.1036 253.108 76.1036C254.059 76.0493 254.982 76.1036 256.068 76.1036C255.959 76.8639 255.905 77.5427 255.796 78.1944C255.661 79.1991 255.498 80.1766 255.362 81.1812C255.28 81.8601 255.362 82.4846 256.204 82.6475C257.045 82.8104 257.724 82.4574 257.887 81.5614C258.186 80.1223 258.403 78.6832 258.566 77.2169C258.647 76.3752 258.865 75.9407 259.815 76.0765C260.575 76.1579 261.363 76.0765 262.204 76.0765C261.96 77.8143 261.716 79.4706 261.498 81.0998C261.336 82.1859 261.145 83.2449 261.037 84.331C260.955 84.9827 260.711 85.2271 260.032 85.1728C259.326 85.1184 258.593 85.1728 257.806 85.1728H257.833Z" fill="#004359"/>
<path d="M281.049 85.1728C281.049 84.7926 280.994 84.5482 280.994 84.1681C280.75 84.331 280.56 84.4396 280.397 84.5754C279.447 85.3628 278.333 85.5529 277.166 85.3357C275.808 85.0913 274.939 83.9237 275.048 82.3217C275.156 80.7197 275.401 79.1176 275.645 77.5427C275.862 76.0765 275.89 76.0765 277.356 76.0765C277.953 76.0765 278.551 76.0765 279.284 76.0765C279.094 77.3255 278.931 78.466 278.795 79.5792C278.714 80.1223 278.605 80.6653 278.578 81.2084C278.523 81.8329 278.578 82.4303 279.392 82.6204C280.207 82.8104 280.886 82.4846 281.076 81.67C281.375 80.3667 281.537 79.009 281.782 77.6785C281.782 77.5971 281.782 77.5156 281.809 77.4341C281.918 76.529 282.443 76.0765 283.384 76.0765C284.036 76.0765 284.687 76.0765 285.447 76.0765C285.257 77.4884 285.095 78.8189 284.904 80.1494C284.687 81.5886 284.443 83.0277 284.28 84.4939C284.226 85.0098 284.008 85.1999 283.52 85.1728C282.759 85.1728 281.972 85.1728 281.103 85.1728H281.049Z" fill="#004359"/>
<path d="M303.233 82.5661C302.907 83.7065 302.255 84.4125 301.332 84.8198C299.567 85.6615 297.721 85.6887 295.901 84.9827C294.652 84.4939 293.865 83.5707 293.566 82.2131C293.105 80.0408 293.892 77.8143 295.603 76.6195C297.259 75.4791 300.164 75.3977 301.848 76.4838C303.151 77.3255 303.993 79.3077 303.64 80.8554C303.586 81.0726 303.178 81.317 302.934 81.317C301.251 81.3442 299.54 81.317 297.856 81.317C296.96 81.317 296.797 81.6157 297.178 82.4303C297.558 83.1634 298.725 83.5979 299.404 83.0277C300.083 82.4846 300.762 82.5389 301.495 82.5389C302.065 82.5389 302.608 82.5389 303.26 82.5389L303.233 82.5661ZM297.15 79.5792H300.164C300.246 78.5746 299.92 78.0587 299.16 77.9229C298.128 77.7328 297.476 78.2487 297.15 79.5792Z" fill="#004359"/>
<path d="M250.447 79.4706C249.524 79.4706 248.574 79.4706 247.623 79.4706C247.46 79.4706 247.243 79.2534 247.162 79.0633C246.591 78.0043 245.451 77.8143 244.745 78.7646C244.012 79.7693 243.876 80.964 244.283 82.1316C244.419 82.5118 244.962 82.9734 245.315 82.9462C245.804 82.9462 246.483 82.6204 246.727 82.2402C247.053 81.7243 247.379 81.6157 247.895 81.6429C248.682 81.6429 249.47 81.6429 250.284 81.6429C250.121 83.4078 248.927 84.7926 247.134 85.2271C245.668 85.5801 244.148 85.5801 242.763 84.8741C241.514 84.2496 240.781 83.2177 240.645 81.8329C240.102 76.4023 244.908 74.8003 248.492 76.2665C249.85 76.8368 250.556 78.0315 250.447 79.4706Z" fill="#004359"/>
<path d="M268.205 77.95C268.26 77.4884 268.314 77.0811 268.341 76.701C268.368 76.2394 268.585 76.0222 269.074 76.0765C269.644 76.1579 269.78 75.8321 269.862 75.3162C270.16 73.2797 270.187 73.2797 272.278 73.2797C272.631 73.2797 273.011 73.2797 273.473 73.2797C273.364 74.2301 273.256 75.0718 273.147 75.995C273.582 76.0493 273.962 76.0765 274.45 76.1308C274.396 76.5652 274.342 76.9997 274.315 77.407C274.26 77.8414 274.043 78.0858 273.582 78.0315C272.984 77.95 272.767 78.2487 272.713 78.7918C272.631 79.4706 272.523 80.1494 272.414 80.8283C272.17 82.3488 272.197 82.376 273.663 82.729C273.582 83.3807 273.5 84.0866 273.364 84.7383C273.337 84.9284 273.066 85.1456 272.848 85.1728C272.495 85.2542 272.115 85.2542 271.735 85.2542C269.373 85.3085 268.531 84.3853 268.884 82.0502C269.074 80.8011 269.237 79.5521 269.4 78.303C269.4 78.2487 269.373 78.1944 269.319 78.0858C269.02 78.0587 268.694 78.0043 268.205 77.95Z" fill="#004359"/>
<path d="M267.988 72.8181C267.418 76.9725 266.875 80.9912 266.332 85.0913H262.91C263.046 83.9509 263.155 82.8647 263.318 81.7515C263.671 79.1719 264.051 76.5652 264.35 73.9857C264.458 73.1168 264.703 72.6823 265.68 72.8181C266.413 72.8996 267.146 72.8181 268.015 72.8181H267.988Z" fill="#004359"/>
<path d="M293.349 75.9136C293.213 76.9182 293.132 77.8686 292.942 78.7918C292.915 78.9547 292.562 79.1719 292.344 79.1991C290.797 79.3348 290.308 79.715 290.063 81.2356C289.873 82.3488 289.683 83.435 289.575 84.5482C289.52 85.0098 289.358 85.1999 288.896 85.1999C288 85.1999 287.131 85.1999 286.099 85.1999C286.235 84.1409 286.344 83.1906 286.479 82.2402C286.751 80.421 287.022 78.6017 287.267 76.7825C287.321 76.2665 287.538 76.1036 288.027 76.1036C288.787 76.1308 289.575 76.1036 290.416 76.1036V77.1898C291.285 76.3752 292.046 75.6149 293.349 75.9136Z" fill="#004359"/>
<path d="M235.106 75.8864C234.943 76.9997 234.807 78.0315 234.644 79.0362C234.535 79.0905 234.508 79.1448 234.454 79.1448C232.363 79.3077 232.037 79.6335 231.711 81.67C231.576 82.5661 231.44 83.4893 231.331 84.3853C231.277 84.9012 231.114 85.1728 230.544 85.1185C229.702 85.0642 228.833 85.1185 227.937 85.1185C227.937 84.7655 227.91 84.4939 227.937 84.2496C228.29 81.7515 228.643 79.2534 228.996 76.7553C229.078 76.2394 229.268 75.995 229.811 76.0222C230.571 76.0493 231.359 76.0222 232.227 76.0222C232.227 76.4023 232.173 76.701 232.146 77.1626C232.988 76.3209 233.775 75.5606 235.106 75.8321V75.8864Z" fill="#004359"/>
<path d="M235.024 85.1728C235.459 82.2131 235.839 79.4435 236.246 76.6738C236.273 76.4566 236.545 76.1308 236.735 76.1036C237.74 76.0493 238.717 76.1036 239.803 76.1036C239.477 78.2216 239.179 80.2309 238.907 82.2402C238.798 82.9734 238.69 83.7065 238.608 84.4668C238.554 84.9555 238.364 85.2271 237.794 85.1999C236.925 85.1456 236.029 85.1999 235.024 85.1999V85.1728Z" fill="#004359"/>
<path d="M240.21 72.5737C240.129 73.334 240.048 73.9857 239.939 74.6374C239.939 74.7731 239.695 74.9904 239.559 74.9904C238.554 75.0175 237.577 74.9904 236.436 74.9904C236.545 74.2029 236.599 73.5512 236.708 72.9267C236.708 72.791 236.952 72.6009 237.088 72.5737C238.092 72.5466 239.07 72.5737 240.183 72.5737H240.21Z" fill="#004359"/>
<path d="M106.808 46.7681C106.808 64.325 86.7662 78.5577 62.0429 78.5577C37.3196 78.5577 17.2773 64.325 17.2773 46.7681C17.2773 29.2112 37.3196 14.9785 62.0429 14.9785C86.7662 14.9785 106.808 29.2112 106.808 46.7681Z" fill="#004359"/>
<path d="M54.2259 71.7218C54.2259 71.7218 71.0118 71.7672 71.0118 71.7327V75.5249C71.0118 75.5249 59.3118 75.9631 54.2906 75.5134L54.2252 71.7218H54.2259Z" fill="white"/>
<path d="M89.8365 68.3643C81.7943 71.1213 72.7107 71.5529 72.7107 71.5529L72.8134 75.3496C79.1008 74.6561 87.8264 70.7181 89.8365 68.3643Z" fill="#FF0009"/>
<path d="M35.4005 68.3643C43.4426 71.1213 52.5263 71.5529 52.5263 71.5529L52.4236 75.3496C46.1362 74.6561 37.4106 70.7181 35.4005 68.3643Z" fill="#009636"/>
<path d="M49.2074 68.9904C49.607 66.8918 50.0067 64.8431 50.4314 62.8194C50.4814 62.6196 50.8311 62.3448 51.0559 62.3448C52.1051 62.2948 53.1793 62.2948 54.2285 62.3448C55.5275 62.3697 56.2519 62.8194 56.4518 63.6189C56.7016 64.5433 56.177 65.6426 55.2277 66.2422C55.0778 66.3421 54.903 66.4171 54.6781 66.542C54.828 66.9667 54.9779 67.3914 55.1278 67.8161C55.2527 68.2159 55.4026 68.5906 55.5275 68.9904C54.1535 69.3651 54.0286 69.3152 53.604 68.066C53.604 68.016 53.579 67.966 53.554 67.9161C53.1793 66.8168 52.5298 66.467 51.3807 66.7668C51.2558 66.8168 51.1059 66.9917 51.0559 67.1166C50.956 67.3914 50.931 67.6912 50.8811 67.9661C50.6812 69.2152 50.6063 69.2652 49.1824 69.0154L49.2074 68.9904ZM51.3557 65.6426C52.28 65.6426 53.0794 65.7175 53.8538 65.6426C54.5532 65.5676 55.0029 65.018 54.9779 64.3185C54.9779 64.0187 54.6032 63.544 54.3284 63.494C53.579 63.3691 52.8046 63.3941 52.0552 63.3941C51.9552 63.3941 51.8054 63.519 51.7804 63.6189C51.6305 64.2935 51.5056 64.993 51.3807 65.6676L51.3557 65.6426Z" fill="#FFEF00"/>
<path d="M46.9593 66.567C46.5845 66.567 46.2848 66.5171 45.985 66.5171C45.9101 65.7925 46.1099 65.3928 46.9093 65.4678C47.4339 65.5177 47.9585 65.4678 48.633 65.4678C48.4081 66.617 48.2083 67.6663 47.9585 68.7156C47.9335 68.8655 47.5838 69.0154 47.4089 69.0404C46.1849 69.0904 44.9858 69.1403 43.7617 69.0904C42.6376 69.0404 41.8632 68.216 41.9381 67.0917C42.0131 66.0924 42.2379 65.068 42.5876 64.1187C42.9374 63.1943 43.7367 62.6446 44.736 62.3948C46.2098 62.045 47.6587 62.2449 49.1326 62.4947C49.1825 63.1693 48.9577 63.4191 48.3082 63.3691C47.5338 63.2942 46.7844 63.2442 46.01 63.2692C44.686 63.2942 44.1364 63.7189 43.7617 64.9681C43.5619 65.6426 43.5119 66.3672 43.4619 67.0667C43.412 67.5664 43.7118 67.9661 44.2364 68.0161C44.9108 68.091 45.6103 68.116 46.2848 68.091C46.4347 68.091 46.6345 67.8662 46.6845 67.7163C46.8094 67.3665 46.8593 66.9918 46.9593 66.567Z" fill="#FFEF00"/>
<path d="M72.6648 68.9908C72.9146 67.6667 73.1394 66.4175 73.3892 65.1434C73.5391 64.3939 73.639 63.6444 73.8389 62.8948C73.9138 62.67 74.2136 62.3202 74.4134 62.3202C75.5376 62.2703 76.6867 62.2453 77.8108 62.3202C79.0349 62.3952 79.6094 62.8449 79.8093 63.6693C80.0091 64.5687 79.5345 65.9428 78.6602 66.3176C77.7609 66.6923 76.7616 66.8672 75.7874 66.9422C74.4884 67.0421 74.4884 66.9672 74.2885 68.2163C74.1386 69.1157 74.0887 69.1407 72.6648 68.9409V68.9908ZM74.7382 65.9928C75.6125 65.9428 76.4369 65.9678 77.2363 65.8429C77.9357 65.743 78.4353 64.9185 78.3354 64.144C78.2355 63.3695 77.636 63.3196 77.0364 63.3446C74.938 63.3945 75.4127 62.8948 74.938 65.1184C74.8881 65.3432 74.8381 65.5681 74.7632 65.9928H74.7382Z" fill="#FFEF00"/>
<path d="M67.4443 62.2947C67.1445 63.8686 66.8697 65.2927 66.57 66.7167C66.3701 67.6911 66.6199 68.0409 67.6192 68.1408C69.2429 68.2657 70.0673 67.9159 70.2421 66.392C70.3421 65.3676 70.6418 64.3683 70.8417 63.369C71.0665 62.2447 71.1914 62.1947 72.4654 62.4695C72.1407 64.0935 71.8909 65.7174 71.4912 67.3164C71.2164 68.3657 70.3671 68.9403 69.3428 69.0652C68.4435 69.1651 67.4943 69.1651 66.595 69.0902C65.5458 69.0152 64.9462 68.2907 65.0961 67.2414C65.296 65.7424 65.5707 64.2684 65.8955 62.8193C66.0953 61.8949 66.8198 62.4945 67.4693 62.3196L67.4443 62.2947Z" fill="#FFEF00"/>
<path fill-rule="evenodd" clip-rule="evenodd" d="M61.372 62.1199C61.9465 62.2448 62.5211 62.2948 63.0707 62.4696C63.7451 62.6945 64.1698 63.2193 64.2447 63.9188C64.3946 65.168 64.2447 66.4172 63.5453 67.5164C62.5211 69.2152 60.8224 69.2403 59.1237 69.1154C57.6748 69.0154 56.8505 68.4157 56.8505 67.2914C56.8006 64.4683 57.8497 62.1199 61.372 62.1199ZM62.7215 65.3177C62.9713 63.7437 62.2968 63.0692 60.723 63.2441C60.594 63.2582 60.4703 63.2793 60.3518 63.308C59.2086 63.5841 58.5579 64.5394 58.3994 66.1922C58.2495 67.6662 58.6741 68.1409 60.148 68.1409C60.2307 68.1409 60.3109 68.1389 60.3885 68.1353C61.6466 68.0795 62.2407 67.56 62.5466 66.2421C62.6215 65.9423 62.6715 65.6424 62.7215 65.3177Z" fill="#FFEF00"/>
<path d="M85.3563 41.2712C85.9808 41.571 86.4305 41.7209 86.8302 41.9457C88.8536 43.07 89.678 44.8938 89.578 47.1173C89.4531 50.2652 88.6038 53.2133 86.6803 55.7616C84.5819 58.5348 81.7091 59.9089 78.2617 59.9589C73.7402 60.0338 69.2187 59.9588 64.6972 59.9838C63.9727 59.9838 63.5231 59.709 63.2733 59.0095C62.7737 57.6854 62.1991 56.3612 61.6745 55.0621C61.6745 55.0121 61.6246 54.9622 61.6246 54.9122C61.5746 54.5624 61.5496 54.2126 61.5246 53.8629C61.8494 53.8879 62.1991 53.8629 62.4989 53.9628C64.1726 54.5124 65.8463 55.0871 67.545 55.6367C67.6949 55.6867 67.8448 55.6867 68.1945 55.7616C67.9197 54.5874 67.7448 53.5381 67.3451 52.5387C67.1953 52.164 66.5458 51.8392 66.0711 51.7393C64.7721 51.5144 63.4482 51.4145 62.1492 51.2646C62.0242 51.2646 61.8744 51.2646 61.7495 51.2146C59.751 50.8149 58.8767 49.5407 60.4005 47.8918C61.4997 46.6926 62.7987 45.6683 63.9977 44.569C64.3724 44.2192 64.7721 44.2692 65.2468 44.4691C66.7206 45.1186 68.2195 45.7183 69.6933 46.3428C70.118 46.5177 70.4178 46.4927 70.6176 46.093C70.9424 45.4434 71.6169 44.7689 71.5419 44.1693C71.3671 42.8701 71.0423 41.496 69.9182 40.5717C69.2437 40.022 68.4693 39.5973 67.7448 39.0976C67.1703 38.7229 66.5708 38.3481 66.0711 37.8984C65.7963 37.6486 65.6964 37.1989 65.4966 36.8241C65.2717 36.3994 65.1718 35.8498 64.8471 35.55C63.7979 34.6506 62.6488 33.8261 61.5246 32.9767C61.2498 32.7768 61 32.5519 60.5004 32.1522C61.1999 31.5526 61.7994 31.0529 62.399 30.5533C62.8486 30.1535 62.8486 29.7788 62.4239 29.3541C59.9009 26.8057 57.0031 25.0569 53.3309 24.6821C42.5892 23.5329 34.7952 31.6026 32.3721 38.598C30.9232 42.7952 30.8982 47.0674 31.8974 51.3395C32.2722 52.9635 32.8467 54.5124 33.3463 56.1114C33.4463 56.4362 33.5961 56.761 33.6961 57.0857C34.0708 58.4848 33.4962 59.4342 32.0473 59.6591C29.824 60.0088 27.6257 59.8589 25.4774 59.1344C23.0293 58.3099 21.7802 56.3362 22.2549 53.688C22.6546 51.4894 23.2541 49.3159 23.9785 47.1923C25.7772 41.7958 27.6257 36.3994 29.5742 31.0529C31.3728 26.1312 34.9201 23.1581 40.1911 22.5086C41.7399 22.3087 43.2887 22.2338 44.8625 22.2338C58.7018 22.2338 72.5412 22.2338 86.3805 22.2338C88.7287 22.2338 90.8271 22.8084 92.176 24.857C92.7506 25.7065 93.2252 26.7558 93.3751 27.7551C94.2994 33.6762 92.4508 37.9234 86.5803 40.6966C86.2306 40.8715 85.8559 41.0214 85.3063 41.2462L85.3563 41.2712ZM67.9197 49.091C68.0446 48.7662 68.0696 48.3665 68.2944 48.1167C68.7191 47.642 68.5942 47.3672 68.1196 47.1423C67.1203 46.6426 66.1461 46.118 65.1219 45.6933C64.8471 45.5933 64.3475 45.6933 64.1476 45.8682C63.0984 46.8425 62.0992 47.8419 61.1249 48.8912C60.6003 49.4658 60.7752 49.8405 61.5996 49.9654C62.2491 50.0654 62.9236 50.0654 63.5731 50.2153C64.947 50.5651 66.1211 50.3152 67.1453 49.3159C67.3202 49.141 67.6699 49.166 67.9447 49.091C67.8448 49.5157 67.7448 49.9654 67.6949 50.4152C67.6699 50.715 67.6699 51.0647 67.7948 51.3146C68.1695 52.0641 68.5942 52.7636 69.0438 53.5631C69.9431 53.5631 70.9923 53.5631 72.0415 53.5631C74.3148 53.5131 76.588 53.5631 78.8613 53.3882C81.3594 53.1883 82.6584 51.5894 83.3328 49.2909C83.7575 47.8918 83.3328 47.2672 81.859 47.0174C80.9846 46.8675 80.0853 46.7676 79.211 46.5427C77.0877 45.9931 75.5888 44.1193 75.4389 41.9707C75.314 39.997 76.4631 38.1483 78.4366 37.2738C79.9355 36.6243 81.4593 36.0496 82.9581 35.3501C84.407 34.6755 85.756 33.8261 86.5803 32.3771C87.8793 30.0536 87.1299 28.7794 84.482 28.7794C77.7122 28.7794 70.9424 28.7794 64.1726 28.7794C63.9478 28.7794 63.7479 28.8294 63.4731 28.8544C63.673 29.1292 63.7729 29.3041 63.9228 29.454C64.5473 30.0286 64.4474 30.5033 63.7979 31.003C63.3232 31.3777 62.9236 31.8024 62.4489 32.2771C62.7737 32.5519 62.9985 32.7268 63.2233 32.9017C64.1476 33.6512 65.0969 34.3508 65.9712 35.1752C66.271 35.45 66.3209 35.9997 66.5208 36.3994C66.6707 36.7242 66.7956 37.1489 67.0704 37.3238C68.2694 38.1233 69.5435 38.8478 70.7425 39.6473C71.7667 40.3218 72.766 40.9964 73.7153 41.7459C74.5646 42.4204 74.5146 42.7702 73.7902 43.5447C73.3655 43.9944 72.9658 44.519 72.6411 45.0437C72.1415 45.8182 71.6918 46.6426 71.2172 47.4171C71.0923 47.642 70.8924 47.8418 70.6676 47.9668C70.118 48.2916 69.5185 48.5664 68.9439 48.8162C68.6192 48.9661 68.2694 49.0411 67.9197 49.141V49.091Z" fill="#FFEF00"/>
<path d="M39.7421 54.6624C39.4173 54.2626 38.9927 53.8879 38.7928 53.4382C36.8943 49.2909 35.6702 44.9688 36.2198 40.3968C36.7444 36.0497 38.1433 31.9773 41.4907 28.9044C43.2394 27.3054 45.2628 26.8557 47.4861 27.955C48.3604 28.3797 48.4604 28.6046 47.9358 29.429C47.7359 29.7538 47.5361 30.0536 47.3362 30.3534C46.8366 31.1779 46.2371 31.6775 45.1379 31.3028C44.3136 31.028 43.5142 31.5027 43.0395 32.1522C42.1902 33.3514 41.3408 34.5756 40.7163 35.8998C39.6422 38.1982 38.8428 40.6216 38.518 43.145C38.1933 45.6683 38.518 48.1417 39.1176 50.5901C39.3674 51.6394 39.6422 52.6887 39.892 53.738C39.9419 53.9878 39.9419 54.2377 39.9669 54.4875C39.892 54.5375 39.792 54.5874 39.7171 54.6374L39.7421 54.6624Z" fill="#FFEF00"/>
<path d="M60.0767 57.1108C59.6271 56.5361 59.1774 55.9615 58.7278 55.3619C56.8792 52.8885 54.3312 51.2896 51.7831 49.6907C49.5848 48.2916 47.4864 46.8175 45.8877 44.7189C44.114 42.3955 43.0399 36.8491 45.1133 33.8261C45.1882 33.7262 45.2382 33.5763 45.3381 33.5013C45.6379 33.2265 45.9626 33.0017 46.2874 32.7518C46.3873 33.1016 46.4872 33.4764 46.6121 33.8261C46.787 34.3258 46.9369 34.8255 47.2116 35.2752C47.5614 35.8248 47.7362 36.3495 47.6613 37.049C47.2116 40.3718 48.6106 43.0201 50.8838 45.2686C52.5326 46.8925 54.2562 48.3915 55.88 50.0154C57.5037 51.6144 58.9526 53.3632 59.9269 55.4369C60.1517 55.9365 60.2516 56.4862 60.4015 57.0358L60.1017 57.1357L60.0767 57.1108Z" fill="#FFEF00"/>
<path d="M43.3892 34.1257C43.3642 34.4255 43.3642 34.7003 43.3143 35.0001C42.9645 37.4235 42.6148 39.8469 42.9396 42.3202C43.2643 44.6687 44.2885 46.7673 45.5375 48.716C47.0614 51.0645 48.6851 53.338 50.2839 55.6365C50.4338 55.8613 50.5337 56.1111 50.5337 56.4359C50.4338 56.386 50.3089 56.336 50.209 56.261C47.586 53.8876 44.8631 51.6141 42.7647 48.716C41.4907 46.9922 40.8661 45.1184 40.9411 42.9698C41.041 40.4215 41.3408 37.9231 42.34 35.5497C42.5149 35.125 42.7647 34.7003 42.9645 34.2756C43.0145 34.1756 43.0645 34.0757 43.1144 34.0007C43.2143 34.0257 43.3143 34.0757 43.4142 34.1007L43.3892 34.1257Z" fill="#FFEF00"/>
<path d="M48.51 36.7988C48.8847 36.8738 49.2594 36.9487 49.6341 37.0237C50.2337 37.1236 50.8582 37.1736 51.4078 37.3485C51.6826 37.4234 52.0573 37.8232 52.0323 38.048C51.8325 40.3965 53.1315 42.1203 54.3555 43.8692C55.3298 45.2433 56.6038 46.3176 58.0527 47.167C58.2025 47.2669 58.3275 47.3919 58.5023 47.4918C57.653 47.8665 54.3805 46.5174 52.6069 45.0934C49.7341 42.7699 47.9604 39.2972 48.485 36.8238L48.51 36.7988Z" fill="#FFEF00"/>
<path d="M50.8085 36.4742C48.835 36.3742 47.4111 35.0501 47.2362 33.0764C47.0614 31.3026 48.3853 29.4288 50.159 29.2289C52.2823 28.9791 53.6313 29.9035 54.1809 31.7523C54.2808 32.0771 54.1559 32.7516 53.956 32.8266C53.4065 33.0514 53.2066 32.5268 53.0567 32.1021C52.707 31.1027 52.0825 30.4531 51.0083 30.3782C50.109 30.3282 49.3596 30.653 48.81 31.4025C48.2354 32.202 48.2105 33.0514 48.6351 33.8759C49.1348 34.8003 49.8842 35.3749 51.0083 35.275C51.358 35.25 51.6828 35.1251 52.0325 35.15C52.2574 35.15 52.5571 35.3749 52.6071 35.5498C52.657 35.6997 52.4322 36.0494 52.2574 36.1244C51.8077 36.2993 51.2831 36.3742 50.8085 36.4742Z" fill="#FFEF00"/>
<path d="M64.6724 36.9738C64.4976 37.6484 64.3727 38.223 64.1978 38.7477C63.998 39.2973 63.6232 39.3473 63.2485 38.9475C62.2993 37.9482 61.325 36.9239 60.4257 35.8746C60.2508 35.6497 60.2508 35.1001 60.4257 34.8502C60.5506 34.6754 61.1252 34.6004 61.375 34.7253C62.3492 35.2 63.2735 35.7497 64.1978 36.2993C64.4226 36.4492 64.5475 36.774 64.6974 36.9738H64.6724Z" fill="#FFEF00"/>
</svg>
