<svg width="321" height="104" viewBox="0 0 321 104" fill="none" xmlns="http://www.w3.org/2000/svg">
<mask id="mask0_276_752" style="mask-type:alpha" maskUnits="userSpaceOnUse" x="22" y="23" width="61" height="61">
<rect x="22.2812" y="23.0879" width="60.4992" height="60.4992" rx="1" fill="#6BCD85"/>
</mask>
<g mask="url(#mask0_276_752)">
<path fill-rule="evenodd" clip-rule="evenodd" d="M71.7226 29.2541L40.3609 -2.00158C39.5785 -2.7813 39.5764 -4.04763 40.3561 -4.83L43.9421 -8.42812C44.7218 -9.21049 45.9881 -9.21263 46.7705 -8.43291L76.7289 21.4242C77.5103 22.203 78.7748 22.2019 79.5549 21.4218L83.142 17.8347C83.923 17.0537 85.1894 17.0537 85.9704 17.8347L89.5624 21.4268C90.3435 22.2078 90.3435 23.4741 89.5624 24.2552L7.59194 106.226C6.81089 107.007 5.54456 107.007 4.76351 106.226L1.17148 102.634C0.390428 101.853 0.390426 100.586 1.17147 99.8052L21.1358 79.841C21.9149 79.0618 21.9171 77.7993 21.1407 77.0174L-8.20788 47.4649C-8.98622 46.6811 -8.98183 45.4148 -8.19808 44.6365L-4.59363 41.0569C-3.80988 40.2786 -2.54356 40.283 -1.76522 41.0667L28.9656 72.0111L34.6226 66.3542L3.7221 35.2389C2.94376 34.4552 2.94815 33.1888 3.7319 32.4105L7.33635 28.8309C8.1201 28.0526 9.38642 28.057 10.1648 28.8407L39.6289 58.5096C40.4091 59.2953 41.6792 59.2975 42.4622 58.5145L47.2477 53.729L16.8226 22.88C16.047 22.0936 16.0557 20.8273 16.8422 20.0517L20.459 16.4846C21.2454 15.7089 22.5117 15.7177 23.2873 16.5041L53.6683 47.3084L59.5653 41.4114L28.4195 10.22C27.6391 9.43842 27.64 8.17209 28.4216 7.39161L32.0163 3.80221C32.7979 3.02173 34.0642 3.02266 34.8447 3.80428L65.9857 34.991L71.7226 29.2541ZM103.7 33.3568C104.481 34.1378 104.481 35.4041 103.7 36.1852L21.7295 118.156C20.9484 118.937 19.6821 118.937 18.901 118.156L15.309 114.564C14.528 113.783 14.528 112.516 15.309 111.735L97.2795 29.7647C98.0606 28.9837 99.3269 28.9837 100.108 29.7647L103.7 33.3568ZM119.271 44.331C120.052 45.112 120.052 46.3783 119.271 47.1594L37.3007 129.13C36.5196 129.911 35.2533 129.911 34.4722 129.13L30.8802 125.538C30.0992 124.757 30.0992 123.49 30.8802 122.709L112.851 40.7389C113.632 39.9579 114.898 39.9579 115.679 40.7389L119.271 44.331Z" fill="#58C88A" fill-opacity="0.7"/>
<path d="M43.3842 34.9417C43.6443 34.6831 44.0255 34.5867 44.375 34.6977C48.1948 35.9115 51.7271 37.7297 54.869 40.0316C55.165 40.2485 55.3118 40.6133 55.2564 40.9759L54.7204 44.4802C54.6696 44.8126 54.767 45.1504 54.9857 45.4058L60.4926 51.8368C60.7112 52.0921 61.0304 52.2392 61.3664 52.2404L64.9136 52.2521C65.2802 52.2534 65.6178 52.4546 65.7864 52.7801C67.5777 56.2387 68.8301 60.0085 69.4418 63.9696C69.4978 64.3321 69.3437 64.6939 69.0482 64.9112L66.189 67.0126C65.9181 67.2118 65.7474 67.5188 65.7214 67.8541L65.0685 76.2966C65.0427 76.6317 65.1634 76.9615 65.4002 77.1999L67.9033 79.718C68.1618 79.9781 68.2583 80.3593 68.1472 80.7088C66.9335 84.5286 65.1153 88.0602 62.8133 91.202C62.5965 91.4978 62.2318 91.6447 61.8692 91.5894L58.3647 91.0542C58.0325 91.0035 57.6946 91.1 57.4393 91.3185L51.0081 96.8264C50.7529 97.045 50.6057 97.3641 50.6046 97.7002L50.5928 101.247C50.5916 101.614 50.3904 101.952 50.0648 102.12C46.6064 103.911 42.8371 105.164 38.8762 105.776C38.5138 105.832 38.152 105.678 37.9347 105.382L35.8323 102.523C35.6332 102.252 35.3263 102.08 34.9909 102.054L26.5494 101.401C26.2142 101.375 25.8835 101.497 25.645 101.734L23.127 104.237C22.8669 104.496 22.4857 104.592 22.1361 104.481C18.3164 103.267 14.7848 101.449 11.643 99.1471C11.3471 98.9303 11.2002 98.5656 11.2556 98.203L11.7908 94.6985C11.8415 94.3663 11.745 94.0284 11.5264 93.7731L6.01858 87.3419C5.79992 87.0866 5.48088 86.9395 5.14474 86.9384L1.59754 86.9266C1.23091 86.9254 0.893355 86.7242 0.724746 86.3986C-1.06645 82.9401 -2.31891 79.1703 -2.93061 75.2093C-2.9866 74.8467 -2.83253 74.4848 -2.5369 74.2676L0.323108 72.1662C0.593867 71.9671 0.764763 71.6599 0.790747 71.3247L1.44365 62.8822C1.46944 62.5471 1.34782 62.2172 1.11095 61.9788L-1.39127 59.4608C-1.64974 59.2007 -1.74618 58.8196 -1.63513 58.4701C-0.421446 54.6504 1.39598 51.1186 3.69786 47.9768C3.91463 47.6809 4.27933 47.534 4.64191 47.5894L8.14641 48.1246C8.47887 48.1754 8.81742 48.0791 9.07287 47.8603L15.503 42.3524C15.7583 42.1338 15.9064 41.8147 15.9075 41.4786L15.9185 37.9315C15.9196 37.5648 16.1208 37.2271 16.4465 37.0585C19.905 35.2672 23.6747 34.0149 27.6358 33.4032C27.9983 33.3472 28.3602 33.5012 28.5774 33.7968L30.6788 36.6559C30.8779 36.9268 31.185 37.0985 31.5202 37.1245L39.9628 37.7774C40.2978 37.8033 40.6277 37.6816 40.8661 37.4447L43.3842 34.9417ZM34.9658 47.4747C22.7526 46.5304 12.0865 55.666 11.1419 67.8792C10.1974 80.0925 19.3321 90.7593 31.5453 91.704C43.7587 92.6485 54.4257 83.513 55.3702 71.2996C56.3146 59.0863 47.1792 48.4193 34.9658 47.4747Z" fill="#333333"/>
</g>
<path d="M186.475 83.7716H181.123V57.0098H205.132V83.7716H199.818V62.3621H186.475V83.7716Z" fill="#333333"/>
<path d="M154.382 83.7716V78.4192H165.087L170.439 73.1051H159.734L151.744 65.0765V57.0098H157.097V62.4004L162.411 67.7527H170.439V57.0098H175.753V75.7813L167.763 83.7716H154.382Z" fill="#333333"/>
<path d="M128.893 70.4289H142.236V62.3621H128.893V70.4289ZM128.893 83.7716H123.541V57.0098H144.912L147.55 59.7242V73.1051L144.912 75.7813H128.893V83.7716Z" fill="#333333"/>
<path d="M101.593 83.7716H96.2402V57.0098H118.95V62.3621H101.593V83.7716Z" fill="#333333"/>
<path d="M280.063 44.4905H293.406V28.4334H280.063V44.4905ZM296.082 49.8429H277.349L274.711 47.2049V25.7955L277.349 23.0811H296.082L298.72 25.7955V47.2049L296.082 49.8429Z" fill="#58C88A"/>
<path d="M250.71 36.5002H264.052V28.4334H250.71V36.5002ZM250.71 49.8429H245.357V23.0811H266.729L269.367 25.7955V39.1764L266.729 41.8526H250.71V49.8429Z" fill="#58C88A"/>
<path d="M223.409 49.8429H218.057V23.0811H240.766V28.4334H223.409V49.8429Z" fill="#58C88A"/>
<path d="M193.679 36.5002H207.021V28.4334H198.993L193.679 33.824V36.5002ZM193.679 49.8429H188.326V31.1478L196.316 23.0811H212.335V49.8429H207.021V41.8526H193.679V49.8429Z" fill="#58C88A"/>
<path d="M164.702 49.8429H159.35V23.0811H164.702V33.824H172.692L178.045 28.4717V23.0811H183.359V31.1478L178.045 36.5002L183.359 41.8526V49.8429H178.045V44.4905L172.692 39.1764H164.702V49.8429Z" fill="#58C88A"/>
<path d="M154.014 49.8429H131.305V23.0811H154.014V28.4334H136.657V33.824H152.676V39.1764H136.657V44.4905H154.014V49.8429Z" fill="#58C88A"/>
<path d="M101.593 49.8429H96.2402V23.0811H101.593L110.921 36.0414L120.402 23.0811H125.564V49.8429H120.211V31.7978L113.215 42.082H108.742L101.593 31.7978V49.8429Z" fill="#58C88A"/>
</svg>
