<svg width="273" height="105" viewBox="0 0 273 105" fill="none" xmlns="http://www.w3.org/2000/svg">
<mask id="mask0_457_50" style="mask-type:alpha" maskUnits="userSpaceOnUse" x="12" y="27" width="55" height="55">
<rect x="12.5449" y="27.2891" width="54.255" height="54.255" rx="2" fill="#6BCD85"/>
</mask>
<g mask="url(#mask0_457_50)">
<path fill-rule="evenodd" clip-rule="evenodd" d="M55.4656 34.2349C56.2476 33.4529 56.2466 32.1847 55.4632 31.4041L28.9036 4.93425C28.1212 4.15453 28.1191 2.8882 28.8988 2.10583L31.8232 -0.82851C32.6029 -1.61088 33.8692 -1.61303 34.6516 -0.833302L61.2259 25.651C62.0073 26.4298 63.2718 26.4288 64.0519 25.6487L66.977 22.7235C67.7581 21.9425 69.0244 21.9425 69.8055 22.7235L72.7349 25.6529C73.5159 26.4339 73.5159 27.7003 72.7349 28.4813L-0.483563 101.7C-1.26461 102.481 -2.53094 102.481 -3.31199 101.7L-6.24137 98.7703C-7.02242 97.9893 -7.02242 96.723 -6.24137 95.9419L11.371 78.3296C12.1501 77.5504 12.1523 76.2879 11.3759 75.506L-14.6532 49.296C-15.4315 48.5123 -15.4271 47.246 -14.6434 46.4676L-11.7039 43.5484C-10.9201 42.7701 -9.65381 42.7745 -8.87548 43.5582L17.124 69.7384C17.9042 70.524 19.1743 70.5262 19.9573 69.7433L22.2019 67.4986C22.9811 66.7195 22.9833 65.4569 22.2068 64.6751L-3.9545 38.3319C-4.73284 37.5482 -4.72846 36.2818 -3.94471 35.5035L-1.0052 32.5843C-0.221448 31.8059 1.04487 31.8103 1.82321 32.5941L27.9549 58.9074C28.7352 59.6931 30.0053 59.6953 30.7882 58.9123L33.5289 56.1716C34.3061 55.3944 34.3105 54.1356 33.5386 53.353L7.7934 27.2491C7.01777 26.4626 7.02653 25.1963 7.81297 24.4207L10.7625 21.5117C11.549 20.736 12.8153 20.7448 13.5909 21.5312L39.2772 47.5754C40.0566 48.3657 41.3305 48.3701 42.1153 47.5852L44.5665 45.1341C45.3471 44.3534 45.3476 43.0879 44.5675 42.3067L18.1943 15.8948C17.4138 15.1132 17.4148 13.8469 18.1964 13.0664L21.1279 10.1392C21.9095 9.35869 23.1759 9.35962 23.9563 10.1412L50.3233 36.5468C51.1041 37.3288 52.3713 37.3293 53.1527 36.5478L55.4656 34.2349ZM85.4133 36.3516C86.1943 37.1326 86.1943 38.399 85.4133 39.18L12.1948 112.398C11.4138 113.179 10.1475 113.179 9.36641 112.398L6.43703 109.469C5.65598 108.688 5.65598 107.422 6.43703 106.641L79.6554 33.4222C80.4365 32.6411 81.7028 32.6411 82.4839 33.4222L85.4133 36.3516ZM99.3774 46.1931C100.158 46.9742 100.158 48.2405 99.3774 49.0216L26.1589 122.24C25.3779 123.021 24.1116 123.021 23.3305 122.24L20.4011 119.311C19.6201 118.53 19.6201 117.263 20.4011 116.482L93.6195 43.2637C94.4006 42.4827 95.6669 42.4827 96.448 43.2637L99.3774 46.1931Z" fill="#58C88A" fill-opacity="0.7"/>
<path d="M30.3594 38.8354C30.8796 38.3183 31.6428 38.1227 32.3373 38.3589C35.3115 39.3702 38.0834 40.7924 40.5908 42.5534C41.1912 42.9751 41.4835 43.7069 41.3726 44.4321L40.9914 46.926C40.9459 47.2242 41.0327 47.5273 41.2289 47.7564L46.1681 53.5235C46.3642 53.7525 46.6505 53.8849 46.952 53.8858L49.4753 53.8939C50.2086 53.8963 50.8864 54.2976 51.2106 54.9553C52.5652 57.7038 53.5446 60.6613 54.0866 63.7558C54.2131 64.4785 53.9022 65.2028 53.3109 65.6372L51.2755 67.1326C51.0326 67.3112 50.88 67.5871 50.8567 67.8877L50.2712 75.4589C50.248 75.7593 50.3567 76.0547 50.569 76.2684L52.3504 78.0619C52.8671 78.5821 53.0625 79.3451 52.8264 80.0393C51.8151 83.0135 50.3929 85.785 48.6318 88.2923C48.2102 88.8927 47.4783 89.185 46.7531 89.0741L44.2592 88.6929C43.9612 88.6476 43.6579 88.7343 43.4289 88.9304L37.6617 93.8696C37.4328 94.0657 37.3004 94.3521 37.2994 94.6535L37.2919 97.1776C37.2898 97.911 36.8884 98.589 36.2305 98.9133C33.4821 100.268 30.5245 101.247 27.4301 101.789C26.7075 101.916 25.9834 101.605 25.5489 101.014L24.0525 98.978C23.8739 98.735 23.5982 98.5815 23.2975 98.5582L15.7273 97.9728C15.4267 97.9495 15.1306 98.059 14.9167 98.2715L13.1243 100.053C12.6041 100.57 11.8409 100.765 11.1466 100.529C8.17226 99.5176 5.40032 98.0954 2.89283 96.3343C2.29245 95.9127 2.0002 95.1808 2.11105 94.4556L2.49223 91.9617C2.53779 91.6636 2.45097 91.3605 2.25477 91.1314L-2.6844 85.3642C-2.88052 85.1352 -3.16688 85.0029 -3.46837 85.0019L-5.99166 84.9938C-6.72498 84.9915 -7.40271 84.5902 -7.7269 83.9324C-9.0815 81.1839 -10.0609 78.2264 -10.6029 75.132C-10.7295 74.4092 -10.4186 73.6849 -9.82728 73.2505L-7.79188 71.7551C-7.54891 71.5765 -7.39631 71.3007 -7.37303 71L-6.78752 63.4289C-6.76442 63.1285 -6.87301 62.833 -7.08536 62.6193L-8.86647 60.8268C-9.38339 60.3066 -9.5789 59.5435 -9.3428 58.8492C-8.33142 55.8748 -6.90928 53.1029 -5.14817 50.5954C-4.72651 49.995 -3.99468 49.7028 -3.26945 49.8136L-0.775583 50.1948C-0.477556 50.2402 -0.174212 50.1534 0.0547688 49.9573L5.82191 45.0182C6.05089 44.8221 6.18326 44.5357 6.18422 44.2342L6.19172 41.7102C6.19389 40.9767 6.59522 40.2987 7.25317 39.9745C10.0016 38.6201 12.9592 37.6413 16.0537 37.0995C16.7762 36.973 17.5002 37.2836 17.9347 37.8746L19.4311 39.9097C19.6097 40.1528 19.8854 40.3063 20.1862 40.3295L27.7563 40.915C28.0568 40.9382 28.353 40.8296 28.5668 40.6172L30.3594 38.8354ZM23.2755 49.6129C12.3227 48.7659 2.75758 56.958 1.91038 67.9107C1.06334 78.8635 9.25522 88.4297 20.2081 89.2767C31.1609 90.1238 40.7271 81.931 41.5742 70.9781C42.421 60.0254 34.2282 50.46 23.2755 49.6129Z" fill="#333333"/>
</g>
<path d="M159.792 81.7097H154.992V57.71H176.523V81.7097H171.758V62.5099H159.792V81.7097Z" fill="#333333"/>
<path d="M131.012 81.7097V76.9098H140.612L145.412 72.1441H135.812L128.646 64.9442V57.71H133.446V62.5442L138.212 67.3441H145.412V57.71H150.178V74.5441L143.012 81.7097H131.012Z" fill="#333333"/>
<path d="M108.153 69.7441H120.119V62.5099H108.153V69.7441ZM108.153 81.7097H103.354V57.71H122.519L124.885 60.1442V72.1441L122.519 74.5441H108.153V81.7097Z" fill="#333333"/>
<path d="M83.671 81.7097H78.8711V57.71H99.2366V62.5099H83.671V81.7097Z" fill="#333333"/>
<path d="M243.722 46.482H255.687V32.0822H243.722V46.482ZM258.087 51.282H241.288L238.922 48.9163V29.7165L241.288 27.2822H258.087L260.453 29.7165V48.9163L258.087 51.282Z" fill="#58C88A"/>
<path d="M217.398 39.3164H229.363V32.0822H217.398V39.3164ZM217.398 51.282H212.598V27.2822H231.763L234.129 29.7165V41.7164L231.763 44.1163H217.398V51.282Z" fill="#58C88A"/>
<path d="M192.915 51.282H188.115V27.2822H208.481V32.0822H192.915V51.282Z" fill="#58C88A"/>
<path d="M166.253 39.3164H178.219V32.0822H171.019L166.253 36.9164V39.3164ZM166.253 51.282H161.453V34.5164L168.619 27.2822H182.984V51.282H178.219V44.1163H166.253V51.282Z" fill="#58C88A"/>
<path d="M140.269 51.282H135.469V27.2822H140.269V36.9164H147.434L152.234 32.1165V27.2822H157V34.5164L152.234 39.3164L157 44.1163V51.282H152.234V46.482L147.434 41.7164H140.269V51.282Z" fill="#58C88A"/>
<path d="M130.682 51.282H110.316V27.2822H130.682V32.0822H115.116V36.9164H129.482V41.7164H115.116V46.482H130.682V51.282Z" fill="#58C88A"/>
<path d="M83.671 51.282H78.8711V27.2822H83.671L92.0367 38.905L100.539 27.2822H105.168V51.282H100.368V35.0993L94.0938 44.322H90.0824L83.671 35.0993V51.282Z" fill="#58C88A"/>
</svg>
